SplineFontDB: 3.0
FontName: Jones-it-BookItalic
FullName: Jones* Book Italic
FamilyName: Jones*
Weight: Book
Copyright: 
UComments: "2016-1-29: Created with FontForge (http://fontforge.org)"
Version: 002.000
ItalicAngle: -9
UnderlinePosition: -150
UnderlineWidth: 50
Ascent: 784
Descent: 216
InvalidEm: 0
LayerCount: 2
Layer: 0 0 "Back" 1
Layer: 1 0 "Fore" 0
XUID: [1021 31 -699969567 4970488]
FSType: 0
OS2Version: 2
OS2_WeightWidthSlopeOnly: 0
OS2_UseTypoMetrics: 0
CreationTime: 1454127431
ModificationTime: 1456599096
PfmFamily: 17
TTFWeight: 400
TTFWidth: 5
LineGap: 0
VLineGap: 0
OS2TypoAscent: 784
OS2TypoAOffset: 0
OS2TypoDescent: -216
OS2TypoDOffset: 0
OS2TypoLinegap: 200
OS2WinAscent: 850
OS2WinAOffset: 0
OS2WinDescent: 300
OS2WinDOffset: 0
HheadAscent: 850
HheadAOffset: 0
HheadDescent: -300
HheadDOffset: 0
OS2SubXSize: 650
OS2SubYSize: 600
OS2SubXOff: 0
OS2SubYOff: 75
OS2SupXSize: 650
OS2SupYSize: 600
OS2SupXOff: 0
OS2SupYOff: 350
OS2StrikeYSize: 50
OS2StrikeYPos: 314
OS2CapHeight: 700
OS2XHeight: 520
OS2Vendor: 'PfEd'
Lookup: 5 0 0 "lig" { "lig-1"  } ['calt' ('DFLT' <'dflt' > 'grek' <'dflt' > 'latn' <'dflt' > ) ]
Lookup: 1 0 0 "fi" { "fi-1"  } ['ss01' ('DFLT' <'dflt' > 'grek' <'dflt' > 'latn' <'dflt' > ) ]
Lookup: 258 0 0 "kern" { "kerning" [150,0,2] } ['kern' ('DFLT' <'dflt' > 'grek' <'dflt' > 'latn' <'dflt' > ) ]
MarkAttachClasses: 1
DEI: 91125
KernClass2: 13 10 "kerning"
 3 A L
 5 D O Q
 3 F P
 3 K X
 3 V W
 13 b e h m n o p
 15 a c g q r s u z
 14 d f i j l t fi
 3 k x
 3 v w
 3 R B
 3 T Y
 1 A
 7 C G O Q
 3 T Y
 3 V W
 15 a m n p r s u z
 11 c d e g o q
 18 b f h i j k l t fi
 5 v w y
 1 x

StartChar: E
Encoding: 69 69 0
Width: 670
VWidth: 0
Flags: HMW
AnchorPoint: "ced" 495 0 basechar 0
AnchorPoint: "dot" 365 760 basechar 0
LayerCount: 2
Fore
SplineSet
165 398 m 1
 625 398 l 1
 612 318 l 1
 152 318 l 1
 165 398 l 1
214 700 m 1
 724 700 l 1
 711 620 l 1
 201 620 l 1
 214 700 l 1
113 80 m 1
 623 80 l 1
 610 0 l 1
 100 0 l 1
 113 80 l 1
214 700 m 1
 304 700 l 5
 190 0 l 5
 100 0 l 1
 214 700 l 1
EndSplineSet
EndChar

StartChar: I
Encoding: 73 73 1
Width: 300
VWidth: 0
Flags: HMW
AnchorPoint: "ced" 155 0 basechar 0
AnchorPoint: "dot" 150 760 basechar 0
LayerCount: 2
Fore
SplineSet
219 700 m 1
 309 700 l 1
 195 0 l 1
 105 0 l 1
 219 700 l 1
EndSplineSet
EndChar

StartChar: F
Encoding: 70 70 2
Width: 665
VWidth: 0
Flags: HMW
AnchorPoint: "ced" 145 0 basechar 0
AnchorPoint: "dot" 365 760 basechar 0
LayerCount: 2
Fore
SplineSet
162 378 m 1
 622 378 l 1
 609 298 l 1
 149 298 l 1
 162 378 l 1
214 700 m 1
 724 700 l 1
 711 620 l 1
 201 620 l 1
 214 700 l 1
214 700 m 1
 304 700 l 5
 190 0 l 5
 100 0 l 1
 214 700 l 1
EndSplineSet
EndChar

StartChar: H
Encoding: 72 72 3
Width: 765
VWidth: 0
Flags: HMW
AnchorPoint: "ced" 625 0 basechar 0
AnchorPoint: "dot" 380 760 basechar 0
LayerCount: 2
Fore
SplineSet
689 700 m 1
 779 700 l 1
 665 0 l 1
 575 0 l 1
 689 700 l 1
165 398 m 1
 675 398 l 1
 662 318 l 1
 152 318 l 1
 165 398 l 1
214 700 m 1
 304 700 l 1
 190 0 l 1
 100 0 l 1
 214 700 l 1
EndSplineSet
EndChar

StartChar: L
Encoding: 76 76 4
Width: 655
VWidth: 0
Flags: HMW
AnchorPoint: "ced" 365 0 basechar 0
AnchorPoint: "dot" 385 760 basechar 0
LayerCount: 2
Fore
SplineSet
113 80 m 1
 623 80 l 1
 610 0 l 1
 100 0 l 1
 113 80 l 1
214 700 m 1
 304 700 l 5
 190 0 l 5
 100 0 l 1
 214 700 l 1
EndSplineSet
EndChar

StartChar: T
Encoding: 84 84 5
Width: 690
VWidth: 0
Flags: HMW
AnchorPoint: "ced" 347 0 basechar 0
AnchorPoint: "dot" 345 760 basechar 0
LayerCount: 2
Fore
SplineSet
164 700 m 1
 754 700 l 1
 741 620 l 1
 151 620 l 1
 164 700 l 1
414 700 m 1
 504 700 l 1
 390 0 l 1
 300 0 l 1
 414 700 l 1
EndSplineSet
EndChar

StartChar: O
Encoding: 79 79 7
Width: 850
VWidth: 0
Flags: HMW
AnchorPoint: "ced" 425 0 basechar 0
AnchorPoint: "dot" 425 760 basechar 0
LayerCount: 2
Fore
SplineSet
210 350 m 0
 188 194 284 70 435 70 c 0
 586 70 718 194 740 350 c 4
 762 506 665 630 514 630 c 0
 363 630 232 506 210 350 c 0
120 350 m 0
 148 549 330 710 525 710 c 0
 720 710 858 549 830 350 c 4
 802 151 619 -10 424 -10 c 0
 229 -10 92 151 120 350 c 0
EndSplineSet
EndChar

StartChar: C
Encoding: 67 67 8
Width: 732
VWidth: 0
Flags: HMW
AnchorPoint: "ced" 425 0 basechar 0
AnchorPoint: "dot" 425 760 basechar 0
LayerCount: 2
Fore
SplineSet
210 350 m 0
 188 194 284 70 435 70 c 0
 518 70 596 110 658 171 c 5
 708 113 l 1
 632 38 530 -10 424 -10 c 0
 229 -10 92 151 120 350 c 0
 148 549 330 710 525 710 c 0
 631 710 721 662 775 587 c 1
 709 529 l 1
 665 590 597 630 514 630 c 0
 363 630 232 506 210 350 c 0
EndSplineSet
EndChar

StartChar: A
Encoding: 65 65 9
Width: 800
VWidth: 0
Flags: HMW
AnchorPoint: "ced" 707 0 basechar 0
AnchorPoint: "ring" 400 700 basechar 0
AnchorPoint: "dot" 400 760 basechar 0
LayerCount: 2
Fore
SplineSet
474 700 m 1
 554 700 l 1
 542 690 l 1
 472 690 l 1
 474 700 l 1
246 260 m 1
 638 260 l 1
 626 185 l 1
 234 185 l 1
 246 260 l 1
670 0 m 1
 472 690 l 1
 554 700 l 1
 760 0 l 1
 670 0 l 1
474 700 m 1
 552 690 l 1
 130 0 l 1
 40 0 l 1
 474 700 l 1
EndSplineSet
EndChar

StartChar: V
Encoding: 86 86 10
Width: 780
VWidth: 0
Flags: HMW
AnchorPoint: "ced" 390 0 basechar 0
AnchorPoint: "dot" 389 760 basechar 0
LayerCount: 2
Fore
SplineSet
430 0 m 1
 350 0 l 1
 355 30 l 1
 435 30 l 1
 430 0 l 1
249 700 m 1
 435 30 l 1
 350 0 l 1
 154 700 l 1
 249 700 l 1
430 0 m 1
 355 30 l 1
 759 700 l 1
 854 700 l 1
 430 0 l 1
EndSplineSet
EndChar

StartChar: G
Encoding: 71 71 11
Width: 782
VWidth: 0
Flags: HMW
AnchorPoint: "ced" 425 0 basechar 0
AnchorPoint: "dot" 425 760 basechar 0
LayerCount: 2
Fore
SplineSet
754 370 m 1
 743 290 l 1
 466 290 l 1
 477 370 l 1
 754 370 l 1
718 113 m 1
 628 113 l 1
 664 370 l 1
 754 370 l 1
 718 113 l 1
210 350 m 0
 188 194 284 70 435 70 c 0
 518 70 606 110 668 171 c 1
 718 113 l 1
 642 38 530 -10 424 -10 c 0
 229 -10 92 151 120 350 c 0
 148 549 330 710 525 710 c 0
 631 710 721 662 775 587 c 1
 709 529 l 1
 665 590 597 630 514 630 c 0
 363 630 232 506 210 350 c 0
EndSplineSet
EndChar

StartChar: D
Encoding: 68 68 12
Width: 810
VWidth: 0
Flags: HMW
AnchorPoint: "ced" 325 0 basechar 0
AnchorPoint: "dot" 345 760 basechar 0
LayerCount: 2
Fore
SplineSet
214 700 m 1
 494 700 l 1
 481 620 l 1
 201 620 l 1
 214 700 l 1
113 80 m 1
 393 80 l 1
 380 0 l 1
 100 0 l 1
 113 80 l 1
214 700 m 1
 304 700 l 1
 190 0 l 1
 100 0 l 1
 214 700 l 1
393 80 m 1
 544 80 682 194 707 350 c 0
 732 506 632 620 481 620 c 1
 494 700 l 1
 689 700 829 549 797 350 c 0
 765 151 575 0 380 0 c 1
 393 80 l 1
EndSplineSet
EndChar

StartChar: U
Encoding: 85 85 13
Width: 760
VWidth: 0
Flags: HMW
AnchorPoint: "ced" 380 0 basechar 0
AnchorPoint: "dot" 380 760 basechar 0
LayerCount: 2
Fore
SplineSet
631 280 m 5
 699 700 l 5
 784 700 l 1
 716 280 l 1
 631 280 l 5
136 280 m 1
 204 700 l 1
 289 700 l 1
 221 280 l 1
 136 280 l 1
631 280 m 5
 716 280 l 1
 688 111 537 -10 378 -10 c 0
 219 -10 108 111 136 280 c 1
 221 280 l 1
 202 161 274 65 391 65 c 0
 508 65 612 161 631 280 c 5
EndSplineSet
EndChar

StartChar: o
Encoding: 111 111 14
Width: 650
VWidth: 0
Flags: HMW
AnchorPoint: "ced" 325 0 basechar 0
AnchorPoint: "dot" 325 673 basechar 0
LayerCount: 2
Fore
SplineSet
177 260 m 0
 162 151 227 65 334 65 c 0
 441 65 532 151 547 260 c 4
 562 369 496 455 389 455 c 0
 282 455 192 369 177 260 c 0
92 260 m 0
 113 409 251 530 400 530 c 0
 549 530 653 409 632 260 c 0
 611 111 473 -10 324 -10 c 0
 175 -10 71 111 92 260 c 0
EndSplineSet
EndChar

StartChar: B
Encoding: 66 66 15
Width: 695
VWidth: 0
Flags: HMW
AnchorPoint: "ced" 327 0 basechar 0
AnchorPoint: "dot" 308 760 basechar 0
LayerCount: 2
Fore
SplineSet
425 398 m 5
 508 398 577 422 591 507 c 4
 605 592 544 620 461 620 c 5
 474 700 l 1
 603 700 701 631 681 507 c 0
 661 384 544 340 415 340 c 1
 425 398 l 5
214 700 m 1
 304 700 l 1
 190 0 l 1
 100 0 l 1
 214 700 l 1
113 80 m 1
 413 80 l 1
 400 0 l 1
 100 0 l 1
 113 80 l 1
214 700 m 1
 474 700 l 1
 461 620 l 1
 201 620 l 1
 214 700 l 1
165 398 m 1
 465 398 l 1
 452 318 l 1
 152 318 l 1
 165 398 l 1
413 80 m 5
 496 80 572 105 587 195 c 4
 602 285 535 318 452 318 c 5
 461 375 l 1
 590 375 698 324 677 195 c 0
 656 66 529 0 400 0 c 1
 413 80 l 5
EndSplineSet
EndChar

StartChar: K
Encoding: 75 75 16
Width: 745
VWidth: 0
Flags: HMW
AnchorPoint: "ced" 665 0 basechar 0
AnchorPoint: "dot" 355 760 basechar 0
LayerCount: 2
Fore
SplineSet
353 413 m 1
 457 413 l 5
 720 0 l 5
 616 0 l 1
 353 413 l 1
679 700 m 1
 784 700 l 5
 224 207 l 5
 142 230 l 1
 679 700 l 1
214 700 m 1
 304 700 l 1
 190 0 l 1
 100 0 l 1
 214 700 l 1
EndSplineSet
EndChar

StartChar: R
Encoding: 82 82 17
Width: 718
VWidth: 0
Flags: HMW
AnchorPoint: "ced" 610 0 basechar 0
AnchorPoint: "dot" 340 760 basechar 0
LayerCount: 2
Fore
SplineSet
380 320 m 1
 485 320 l 1
 673 0 l 1
 568 0 l 1
 380 320 l 1
455 338 m 1
 542 338 612 392 626 477 c 0
 640 562 588 620 501 620 c 1
 514 700 l 1
 643 700 736 602 716 477 c 0
 696 353 571 258 442 258 c 1
 455 338 l 1
214 700 m 1
 304 700 l 1
 190 0 l 1
 100 0 l 1
 214 700 l 1
219 700 m 1
 514 700 l 1
 501 620 l 1
 206 620 l 1
 219 700 l 1
160 338 m 1
 455 338 l 1
 442 258 l 1
 147 258 l 1
 160 338 l 1
EndSplineSet
EndChar

StartChar: P
Encoding: 80 80 18
Width: 643
VWidth: 0
Flags: HMW
AnchorPoint: "ced" 150 0 basechar 0
AnchorPoint: "dot" 320 760 basechar 0
LayerCount: 2
Fore
SplineSet
415 338 m 1
 503 338 572 392 586 477 c 0
 600 562 549 620 461 620 c 1
 474 700 l 1
 603 700 696 602 676 477 c 0
 656 353 531 258 402 258 c 1
 415 338 l 1
214 700 m 1
 304 700 l 1
 190 0 l 1
 100 0 l 1
 214 700 l 1
219 700 m 1
 474 700 l 1
 461 620 l 1
 206 620 l 1
 219 700 l 1
160 338 m 1
 415 338 l 1
 402 258 l 1
 147 258 l 1
 160 338 l 1
EndSplineSet
EndChar

StartChar: Q
Encoding: 81 81 19
Width: 849
VWidth: 0
Flags: HMW
AnchorPoint: "ced" 425 0 basechar 0
AnchorPoint: "dot" 425 760 basechar 0
LayerCount: 2
Fore
SplineSet
729 -44 m 1
 499 224 l 1
 565 282 l 5
 795 15 l 5
 729 -44 l 1
210 350 m 0
 188 194 284 70 435 70 c 0
 586 70 718 194 740 350 c 0
 762 506 665 630 514 630 c 0
 363 630 232 506 210 350 c 0
120 350 m 0
 148 549 330 710 525 710 c 0
 720 710 858 549 830 350 c 0
 802 151 619 -10 424 -10 c 0
 229 -10 92 151 120 350 c 0
EndSplineSet
EndChar

StartChar: J
Encoding: 74 74 20
Width: 599
VWidth: 0
Flags: HMW
AnchorPoint: "ced" 265 0 basechar 0
AnchorPoint: "dot" 265 760 basechar 0
LayerCount: 2
Fore
SplineSet
456 260 m 1
 528 700 l 1
 613 700 l 1
 541 260 l 1
 456 260 l 1
456 260 m 1
 541 260 l 1
 513 91 402 -10 263 -10 c 0
 155 -10 81 51 56 157 c 1
 130 194 l 5
 151 111 197 65 276 65 c 0
 373 65 437 141 456 260 c 1
EndSplineSet
EndChar

StartChar: S
Encoding: 83 83 21
Width: 625
VWidth: 0
Flags: HMW
AnchorPoint: "ced" 315 0 basechar 0
AnchorPoint: "dot" 335 760 basechar 0
LayerCount: 2
Fore
SplineSet
508 195 m 1
 593 195 l 1
 575 66 476 -10 327 -10 c 0
 198 -10 120 56 66 113 c 1
 129 176 l 5
 171 132 239 65 337 65 c 0
 430 65 495 105 508 195 c 1
249 524 m 1
 163 519 l 1
 179 630 296 710 415 710 c 0
 514 710 591 674 636 622 c 1
 578 566 l 1
 539 610 473 635 415 635 c 0
 312 635 257 581 249 524 c 1
387 404 m 0
 510 382 611 325 593 195 c 1
 508 195 l 1
 518 266 463 312 366 326 c 0
 245 343 147 404 163 519 c 1
 249 524 l 1
 240 459 291 421 387 404 c 0
EndSplineSet
EndChar

StartChar: M
Encoding: 77 77 22
Width: 932
VWidth: 0
Flags: HMW
AnchorPoint: "ced" 790 0 basechar 0
AnchorPoint: "dot" 470 760 basechar 0
LayerCount: 2
Fore
SplineSet
511 130 m 1
 463 130 l 1
 475 200 l 5
 523 200 l 5
 511 130 l 1
846 640 m 1
 866 700 l 1
 946 700 l 1
 943 680 l 1
 846 640 l 1
923 650 m 1
 511 130 l 1
 475 200 l 5
 866 700 l 1
 923 650 l 1
943 680 m 1
 832 0 l 1
 742 0 l 1
 846 640 l 1
 943 680 l 1
294 640 m 1
 211 680 l 1
 214 700 l 1
 294 700 l 1
 294 640 l 1
221 650 m 1
 294 700 l 1
 523 200 l 5
 463 130 l 1
 221 650 l 1
211 680 m 1
 294 640 l 1
 190 0 l 1
 100 0 l 1
 211 680 l 1
EndSplineSet
EndChar

StartChar: Y
Encoding: 89 89 23
Width: 680
VWidth: 0
Flags: HMW
AnchorPoint: "ced" 345 0 basechar 0
AnchorPoint: "dot" 337 760 basechar 0
LayerCount: 2
Fore
SplineSet
343 295 m 1
 433 295 l 1
 385 0 l 1
 295 0 l 1
 343 295 l 1
144 700 m 1
 244 700 l 1
 433 295 l 1
 370 217 l 1
 144 700 l 1
664 700 m 1
 764 700 l 1
 380 217 l 1
 343 295 l 1
 664 700 l 1
EndSplineSet
EndChar

StartChar: W
Encoding: 87 87 24
Width: 1065
VWidth: 0
Flags: HMW
AnchorPoint: "ced" 750 0 basechar 0
AnchorPoint: "dot" 530 760 basechar 0
LayerCount: 2
Fore
SplineSet
604 700 m 1
 689 700 l 1
 683 690 l 1
 606 690 l 1
 604 700 l 1
790 0 m 1
 710 0 l 1
 712 10 l 1
 792 10 l 1
 790 0 l 1
689 700 m 1
 792 10 l 1
 710 0 l 1
 606 690 l 1
 689 700 l 1
790 0 m 1
 712 10 l 1
 1044 700 l 1
 1134 700 l 1
 790 0 l 1
355 0 m 1
 275 0 l 1
 277 10 l 1
 357 10 l 1
 355 0 l 1
249 700 m 1
 357 10 l 1
 275 0 l 1
 159 700 l 1
 249 700 l 1
355 0 m 1
 277 10 l 1
 604 700 l 1
 683 690 l 1
 355 0 l 1
EndSplineSet
EndChar

StartChar: N
Encoding: 78 78 25
Width: 790
VWidth: 0
Flags: HMW
AnchorPoint: "ced" 650 0 basechar 0
AnchorPoint: "dot" 400 760 basechar 0
LayerCount: 2
Fore
SplineSet
690 0 m 1
 610 0 l 1
 614 24 l 1
 692 14 l 1
 690 0 l 1
294 700 m 1
 291 680 l 1
 211 680 l 1
 214 700 l 1
 294 700 l 1
208 665 m 1
 294 700 l 1
 696 35 l 1
 610 0 l 1
 208 665 l 1
714 700 m 1
 804 700 l 1
 690 0 l 1
 603 20 l 1
 714 700 l 1
214 700 m 1
 301 680 l 1
 190 0 l 1
 100 0 l 1
 214 700 l 1
EndSplineSet
EndChar

StartChar: X
Encoding: 88 88 26
Width: 750
VWidth: 0
Flags: HMW
AnchorPoint: "ced" 645 0 basechar 0
AnchorPoint: "dot" 374 760 basechar 0
LayerCount: 2
Fore
SplineSet
179 700 m 1
 284 700 l 1
 705 0 l 1
 600 0 l 1
 179 700 l 1
694 700 m 1
 799 700 l 1
 150 0 l 1
 45 0 l 1
 694 700 l 1
EndSplineSet
EndChar

StartChar: Z
Encoding: 90 90 27
Width: 680
VWidth: 0
Flags: HMW
AnchorPoint: "ced" 495 0 basechar 0
AnchorPoint: "dot" 335 760 basechar 0
LayerCount: 2
Fore
SplineSet
698 630 m 1
 688 630 l 1
 699 700 l 1
 709 700 l 1
 698 630 l 1
76 70 m 1
 86 70 l 1
 75 0 l 1
 65 0 l 1
 76 70 l 1
199 700 m 1
 699 700 l 1
 686 620 l 1
 186 620 l 1
 199 700 l 1
88 80 m 1
 628 80 l 1
 615 0 l 1
 75 0 l 1
 88 80 l 1
598 630 m 1
 698 630 l 1
 176 70 l 5
 76 70 l 1
 598 630 l 1
EndSplineSet
EndChar

StartChar: l
Encoding: 108 108 28
Width: 265
VWidth: 0
Flags: HMW
AnchorPoint: "ced" 133 0 basechar 0
AnchorPoint: "dot" 133 793 basechar 0
LayerCount: 2
Fore
SplineSet
209 730 m 1
 294 730 l 1
 175 0 l 1
 90 0 l 1
 209 730 l 1
EndSplineSet
EndChar

StartChar: b
Encoding: 98 98 29
Width: 655
VWidth: 0
Flags: HMW
AnchorPoint: "ced" 356 0 basechar 0
AnchorPoint: "dot" 360 673 basechar 0
LayerCount: 2
Fore
SplineSet
212 260 m 0
 193 141 259 65 356 65 c 0
 453 65 538 141 557 260 c 4
 576 379 516 455 419 455 c 0
 322 455 231 379 212 260 c 0
177 260 m 0
 201 409 292 530 441 530 c 0
 570 530 668 419 642 260 c 0
 616 101 482 -10 353 -10 c 0
 204 -10 153 111 177 260 c 0
204 730 m 1
 289 730 l 1
 170 0 l 1
 85 0 l 1
 204 730 l 1
EndSplineSet
EndChar

StartChar: c
Encoding: 99 99 30
Width: 573
VWidth: 0
Flags: HMW
AnchorPoint: "ced" 325 0 basechar 0
AnchorPoint: "dot" 325 673 basechar 0
LayerCount: 2
Fore
SplineSet
177 260 m 4
 162 151 227 65 334 65 c 4
 398 65 457 96 501 145 c 5
 546 92 l 5
 490 28 411 -10 324 -10 c 4
 175 -10 71 111 92 260 c 4
 113 409 251 530 400 530 c 4
 487 530 555 491 593 428 c 5
 533 375 l 5
 503 424 453 455 389 455 c 4
 282 455 192 369 177 260 c 4
EndSplineSet
EndChar

StartChar: d
Encoding: 100 100 31
Width: 655
VWidth: 0
Flags: HMW
AnchorPoint: "ced" 300 0 basechar 0
AnchorPoint: "dot" 295 673 basechar 0
LayerCount: 2
Fore
SplineSet
527 260 m 0
 546 379 481 455 384 455 c 0
 287 455 201 379 182 260 c 0
 163 141 224 65 321 65 c 0
 418 65 508 141 527 260 c 0
562 260 m 0
 538 111 447 -10 298 -10 c 0
 169 -10 71 101 97 260 c 0
 123 419 257 530 386 530 c 0
 535 530 586 409 562 260 c 0
689 730 m 5
 570 0 l 5
 485 0 l 1
 604 730 l 1
 689 730 l 5
EndSplineSet
EndChar

StartChar: k
Encoding: 107 107 32
Width: 615
VWidth: 0
Flags: W
HStem: 0 21G<85 173.26 478.254 590> 500 20G<526.377 655> 710 20G<200.74 289>
AnchorPoint: "ced" 535 0 basechar 0
AnchorPoint: "dot" 325 673 basechar 0
LayerCount: 2
Fore
SplineSet
292 291 m 1
 381 311 l 1
 590 0 l 1
 492 0 l 1
 292 291 l 1
549 520 m 1
 655 520 l 1
 188 110 l 1
 135 154 l 1
 549 520 l 1
204 730 m 1
 289 730 l 1
 170 0 l 1
 85 0 l 1
 204 730 l 1
EndSplineSet
EndChar

StartChar: e
Encoding: 101 101 33
Width: 615
VWidth: 0
Flags: HMW
AnchorPoint: "ced" 320 0 basechar 0
AnchorPoint: "dot" 310 673 basechar 0
LayerCount: 2
Fore
SplineSet
602 260 m 1
 598 230 l 1
 513 230 l 1
 517 260 l 1
 602 260 l 1
513 230 m 1
 147 230 l 1
 156 297 l 1
 522 297 l 1
 513 230 l 1
517 260 m 1
 534 379 481 455 374 455 c 0
 267 455 194 379 177 260 c 1
 92 260 l 1
 114 419 246 530 385 530 c 0
 524 530 624 419 602 260 c 1
 517 260 l 1
92 260 m 1
 177 260 l 1
 160 141 222 65 329 65 c 0
 393 65 460 98 504 147 c 1
 551 92 l 1
 495 28 406 -10 319 -10 c 0
 170 -10 70 101 92 260 c 1
EndSplineSet
EndChar

StartChar: p
Encoding: 112 112 34
Width: 655
VWidth: 0
Flags: HMW
AnchorPoint: "ced" 355 0 basechar 0
AnchorPoint: "dot" 360 673 basechar 0
LayerCount: 2
Fore
SplineSet
212 260 m 0
 193 141 259 65 356 65 c 0
 453 65 538 141 557 260 c 0
 576 379 516 455 419 455 c 0
 322 455 231 379 212 260 c 0
177 260 m 0
 201 409 292 530 441 530 c 0
 570 530 668 419 642 260 c 0
 616 101 482 -10 353 -10 c 0
 204 -10 153 111 177 260 c 0
52 -200 m 1
 170 520 l 1
 255 520 l 1
 137 -200 l 1
 52 -200 l 1
EndSplineSet
EndChar

StartChar: q
Encoding: 113 113 35
Width: 655
VWidth: 0
Flags: HMW
AnchorPoint: "ced" 300 0 basechar 0
AnchorPoint: "dot" 295 673 basechar 0
LayerCount: 2
Fore
SplineSet
527 260 m 0
 546 379 481 455 384 455 c 0
 287 455 201 379 182 260 c 0
 163 141 224 65 321 65 c 0
 418 65 508 141 527 260 c 0
562 260 m 0
 538 111 447 -10 298 -10 c 0
 169 -10 71 101 97 260 c 0
 123 419 257 530 386 530 c 0
 535 530 586 409 562 260 c 0
537 -200 m 1
 452 -200 l 1
 570 520 l 1
 655 520 l 1
 537 -200 l 1
EndSplineSet
EndChar

StartChar: h
Encoding: 104 104 36
Width: 635
VWidth: 0
Flags: HMW
AnchorPoint: "ced" 510 0 basechar 0
AnchorPoint: "dot" 350 673 basechar 0
LayerCount: 2
Fore
SplineSet
604 300 m 1
 555 0 l 1
 470 0 l 5
 519 300 l 5
 604 300 l 1
204 730 m 1
 289 730 l 1
 170 0 l 1
 85 0 l 1
 204 730 l 1
519 300 m 5
 533 389 514 455 404 455 c 0
 305 455 234 390 216 280 c 1
 181 280 l 1
 204 419 297 530 436 530 c 0
 565 530 625 429 604 300 c 1
 519 300 l 5
EndSplineSet
EndChar

StartChar: n
Encoding: 110 110 37
Width: 635
VWidth: 0
Flags: HMW
AnchorPoint: "ced" 520 0 basechar 0
AnchorPoint: "dot" 330 673 basechar 0
LayerCount: 2
Fore
SplineSet
604 300 m 1
 555 0 l 1
 470 0 l 5
 519 300 l 5
 604 300 l 1
170 520 m 1
 255 520 l 1
 170 0 l 1
 85 0 l 1
 170 520 l 1
519 300 m 5
 534 390 514 455 404 455 c 0
 306 455 234 390 216 280 c 1
 181 280 l 1
 204 419 297 530 436 530 c 0
 565 530 625 429 604 300 c 1
 519 300 l 5
EndSplineSet
EndChar

StartChar: m
Encoding: 109 109 38
Width: 900
VWidth: 0
Flags: HMW
AnchorPoint: "ced" 785 0 basechar 0
AnchorPoint: "dot" 450 673 basechar 0
LayerCount: 2
Fore
SplineSet
874 300 m 1
 825 0 l 1
 740 0 l 1
 789 300 l 1
 874 300 l 1
789 300 m 1
 804 390 795 460 700 460 c 0
 617 460 561 390 543 280 c 1
 508 280 l 1
 531 419 607 530 731 530 c 0
 855 530 895 429 874 300 c 1
 789 300 l 1
546 300 m 1
 497 0 l 1
 413 0 l 1
 462 300 l 1
 546 300 l 1
170 520 m 1
 255 520 l 1
 170 0 l 1
 85 0 l 1
 170 520 l 1
462 300 m 1
 477 390 470 460 375 460 c 0
 292 460 234 390 216 280 c 1
 181 280 l 1
 204 419 282 530 406 530 c 0
 530 530 567 429 546 300 c 1
 462 300 l 1
EndSplineSet
EndChar

StartChar: r
Encoding: 114 114 39
Width: 410
VWidth: 0
Flags: HMW
AnchorPoint: "ced" 140 0 basechar 0
AnchorPoint: "dot" 220 673 basechar 0
LayerCount: 2
Fore
SplineSet
170 520 m 1
 255 520 l 1
 170 0 l 1
 85 0 l 1
 170 520 l 1
452 445 m 1
 432 445 l 2
 308 445 232 380 214 270 c 1
 179 270 l 1
 202 409 296 520 465 520 c 1
 452 445 l 1
EndSplineSet
EndChar

StartChar: u
Encoding: 117 117 40
Width: 635
VWidth: 0
Flags: HMW
AnchorPoint: "ced" 285 0 basechar 0
AnchorPoint: "dot" 305 673 basechar 0
LayerCount: 2
Fore
SplineSet
116 220 m 1
 165 520 l 1
 250 520 l 1
 201 220 l 1
 116 220 l 1
550 0 m 1
 465 0 l 1
 550 520 l 1
 635 520 l 1
 550 0 l 1
201 220 m 1
 186 130 206 65 316 65 c 0
 414 65 486 130 504 240 c 1
 539 240 l 1
 516 101 422 -10 283 -10 c 0
 154 -10 95 91 116 220 c 1
 201 220 l 1
EndSplineSet
EndChar

StartChar: g
Encoding: 103 103 41
Width: 655
VWidth: 0
Flags: HMW
AnchorPoint: "dot" 300 673 basechar 0
LayerCount: 2
Fore
SplineSet
299 -145 m 1
 287 -220 l 1
 150 -220 76 -172 39 -108 c 1
 105 -52 l 5
 134 -101 186 -145 299 -145 c 1
573 20 m 1
 488 20 l 1
 570 520 l 1
 655 520 l 1
 573 20 l 1
562 260 m 0
 538 111 447 -10 298 -10 c 0
 169 -10 71 101 97 260 c 0
 123 419 257 530 386 530 c 0
 535 530 586 409 562 260 c 0
527 260 m 0
 546 379 481 455 384 455 c 0
 287 455 201 379 182 260 c 0
 163 141 224 65 321 65 c 0
 418 65 508 141 527 260 c 0
488 20 m 1
 573 20 l 1
 550 -119 416 -220 287 -220 c 1
 299 -145 l 1
 376 -145 472 -79 488 20 c 1
EndSplineSet
EndChar

StartChar: i
Encoding: 105 105 42
Width: 255
VWidth: 0
Flags: HMW
AnchorPoint: "ced" 125 0 basechar 0
LayerCount: 2
Fore
SplineSet
180 682 m 4
 185 714 216 740 248 740 c 4
 280 740 301 714 296 682 c 4
 291 650 261 624 229 624 c 4
 197 624 175 650 180 682 c 4
170 520 m 1
 255 520 l 1
 170 0 l 1
 85 0 l 1
 170 520 l 1
EndSplineSet
EndChar

StartChar: t
Encoding: 116 116 43
Width: 420
VWidth: 0
Flags: HMW
AnchorPoint: "ced" 257 0 basechar 0
AnchorPoint: "dot" 285 673 basechar 0
LayerCount: 2
Fore
SplineSet
125 520 m 1
 455 520 l 1
 442 445 l 1
 112 445 l 1
 125 520 l 1
218 140 m 1
 133 140 l 1
 220 673 l 1
 305 673 l 1
 218 140 l 1
275 65 m 1
 319 65 349 84 369 103 c 5
 399 42 l 1
 367 13 318 -10 256 -10 c 1
 275 65 l 1
218 140 m 1
 211 100 227 65 275 65 c 1
 256 -10 l 1
 167 -10 120 61 133 140 c 1
 218 140 l 1
EndSplineSet
EndChar

StartChar: a
Encoding: 97 97 44
Width: 580
VWidth: 0
Flags: HMW
AnchorPoint: "ced" 455 0 basechar 0
AnchorPoint: "ring" 285 673 basechar 0
AnchorPoint: "dot" 285 673 basechar 0
LayerCount: 2
Fore
SplineSet
371 312 m 1
 521 312 l 1
 510 248 l 1
 390 248 l 1
 371 312 l 1
474 330 m 1
 487 410 468 455 362 455 c 1
 380 530 l 1
 523 530 578 449 559 330 c 1
 474 330 l 1
362 455 m 1
 288 455 246 432 190 392 c 1
 153 450 l 1
 218 499 278 530 380 530 c 1
 362 455 l 1
474 330 m 1
 559 330 l 1
 505 0 l 1
 420 0 l 1
 474 330 l 1
153 155 m 1
 144 97 178 65 281 65 c 0
 359 65 436 100 449 180 c 1
 484 180 l 1
 466 71 377 -10 238 -10 c 0
 139 -10 50 41 69 160 c 1
 153 155 l 1
371 312 m 1
 390 248 l 1
 241 248 167 240 153 155 c 1
 69 160 l 1
 91 295 234 312 371 312 c 1
EndSplineSet
EndChar

StartChar: j
Encoding: 106 106 45
Width: 255
VWidth: 0
Flags: HMW
LayerCount: 2
Fore
SplineSet
184 682 m 0
 189 714 220 740 252 740 c 0
 284 740 305 714 300 682 c 0
 295 650 265 624 233 624 c 0
 201 624 179 650 184 682 c 0
174 520 m 1
 259 520 l 1
 164 -60 l 1
 79 -60 l 1
 174 520 l 1
4 -135 m 5
 -2 -210 l 5
 -59 -210 -107 -192 -128 -158 c 1
 -78 -97 l 1
 -64 -116 -39 -135 4 -135 c 5
79 -60 m 1
 164 -60 l 1
 151 -139 87 -210 -2 -210 c 5
 4 -135 l 5
 41 -135 72 -100 79 -60 c 1
EndSplineSet
EndChar

StartChar: s
Encoding: 115 115 46
Width: 520
VWidth: 0
Flags: HMW
AnchorPoint: "ced" 265 0 basechar 0
AnchorPoint: "dot" 265 673 basechar 0
LayerCount: 2
Fore
SplineSet
411 150 m 1
 496 150 l 1
 485 71 413 -10 274 -10 c 0
 165 -10 106 37 60 104 c 1
 125 158 l 1
 164 108 206 65 284 65 c 0
 357 65 403 90 411 150 c 1
210 388 m 1
 125 388 l 1
 136 464 221 530 330 530 c 0
 439 530 486 496 521 448 c 1
 461 390 l 5
 434 422 407 455 319 455 c 4
 241 455 215 420 210 388 c 1
323 307 m 0
 437 288 512 260 496 150 c 1
 411 150 l 1
 418 200 389 221 283 236 c 0
 182 251 112 293 125 388 c 1
 210 388 l 1
 204 348 228 323 323 307 c 0
EndSplineSet
EndChar

StartChar: v
Encoding: 118 118 47
Width: 590
VWidth: 0
Flags: HW
AnchorPoint: "ced" 297 0 basechar 0
AnchorPoint: "dot" 293 673 basechar 0
LayerCount: 2
Fore
SplineSet
335 0 m 1
 255 0 l 1
 256 5 l 1
 336 5 l 1
 335 0 l 1
256 5 m 1
 555 520 l 1
 640 520 l 1
 335 0 l 1
 256 5 l 1
120 520 m 1
 205 520 l 1
 336 5 l 1
 255 0 l 1
 120 520 l 1
EndSplineSet
EndChar

StartChar: f
Encoding: 102 102 48
Width: 375
VWidth: 0
Flags: HMW
AnchorPoint: "ced" 155 0 basechar 0
LayerCount: 2
Fore
SplineSet
130 520 m 5
 433 520 l 5
 420 445 l 5
 117 445 l 5
 130 520 l 5
296 590 m 5
 200 0 l 5
 115 0 l 5
 211 590 l 5
 296 590 l 5
376 665 m 5
 383 740 l 5
 445 740 486 718 507 688 c 5
 457 627 l 5
 441 648 420 665 376 665 c 5
296 590 m 5
 211 590 l 5
 224 669 294 740 383 740 c 5
 376 665 l 5
 321 665 302 629 296 590 c 5
EndSplineSet
Substitution2: "fi-1" fi
EndChar

StartChar: y
Encoding: 121 121 49
Width: 579
VWidth: 0
Flags: HW
AnchorPoint: "dot" 295 673 basechar 0
LayerCount: 2
Fore
SplineSet
124 520 m 1
 214 520 l 1
 355 5 l 1
 269 0 l 1
 124 520 l 1
141 -135 m 1
 135 -210 l 1
 78 -210 32 -184 11 -150 c 1
 61 -89 l 5
 75 -108 97 -135 141 -135 c 1
234 -60 m 2
 544 520 l 1
 629 520 l 1
 319 -60 l 2
 277 -140 224 -210 135 -210 c 1
 141 -135 l 1
 179 -135 213 -100 234 -60 c 2
EndSplineSet
EndChar

StartChar: w
Encoding: 119 119 50
Width: 795
VWidth: 0
Flags: HW
AnchorPoint: "ced" 565 0 basechar 0
AnchorPoint: "dot" 398 673 basechar 0
LayerCount: 2
Fore
SplineSet
450 520 m 1
 515 520 l 1
 507 470 l 5
 442 470 l 5
 450 520 l 1
605 0 m 1
 530 0 l 1
 531 5 l 1
 609 25 l 1
 605 0 l 1
531 5 m 1
 755 520 l 1
 840 520 l 1
 605 0 l 1
 531 5 l 1
452 470 m 5
 515 520 l 1
 599 25 l 1
 530 0 l 1
 452 470 l 5
265 0 m 1
 190 0 l 1
 194 25 l 1
 266 5 l 1
 265 0 l 1
204 25 m 1
 450 520 l 1
 497 470 l 5
 265 0 l 1
 204 25 l 1
125 520 m 1
 210 520 l 1
 266 5 l 1
 190 0 l 1
 125 520 l 1
EndSplineSet
EndChar

StartChar: x
Encoding: 120 120 51
Width: 615
VWidth: 0
Flags: HW
AnchorPoint: "ced" 515 0 basechar 0
AnchorPoint: "dot" 305 673 basechar 0
LayerCount: 2
Fore
SplineSet
40 0 m 1
 540 520 l 1
 640 520 l 5
 140 0 l 5
 40 0 l 1
145 520 m 1
 245 520 l 5
 575 0 l 5
 475 0 l 1
 145 520 l 1
EndSplineSet
EndChar

StartChar: z
Encoding: 122 122 52
Width: 570
VWidth: 0
Flags: HMW
AnchorPoint: "ced" 445 0 basechar 0
AnchorPoint: "dot" 290 673 basechar 0
LayerCount: 2
Fore
SplineSet
66 65 m 1
 86 65 l 1
 75 0 l 1
 55 0 l 1
 66 65 l 1
87 75 m 1
 527 75 l 1
 515 0 l 1
 75 0 l 1
 87 75 l 1
570 520 m 1
 590 520 l 1
 579 455 l 1
 559 455 l 1
 570 520 l 1
160 520 m 1
 570 520 l 1
 557 445 l 1
 147 445 l 1
 160 520 l 1
479 455 m 1
 579 455 l 1
 166 65 l 5
 66 65 l 1
 479 455 l 1
EndSplineSet
EndChar

StartChar: zero
Encoding: 48 48 53
Width: 600
VWidth: 0
Flags: HMW
LayerCount: 2
Fore
SplineSet
162 350 m 0
 136 193 179 70 311 70 c 0
 443 70 526 193 552 350 c 4
 578 507 535 630 403 630 c 0
 271 630 188 507 162 350 c 0
72 350 m 0
 104 549 241 710 416 710 c 0
 591 710 674 549 642 350 c 0
 610 151 473 -10 298 -10 c 0
 123 -10 40 151 72 350 c 0
EndSplineSet
EndChar

StartChar: one
Encoding: 49 49 54
Width: 600
VWidth: 0
Flags: HMW
LayerCount: 2
Fore
SplineSet
494 700 m 5
 490 676 l 5
 410 676 l 1
 414 700 l 1
 494 700 l 5
414 700 m 1
 460 641 l 1
 238 501 l 1
 213 570 l 1
 414 700 l 1
402 690 m 1
 494 700 l 5
 380 0 l 5
 290 0 l 1
 402 690 l 1
EndSplineSet
EndChar

StartChar: six
Encoding: 54 54 55
Width: 600
VWidth: 0
Flags: HMW
LayerCount: 2
Fore
SplineSet
166 220 m 1
 131 220 l 1
 152 349 273 445 402 445 c 1
 362 380 l 1
 254 380 181 310 166 220 c 1
166 220 m 0
 151 130 202 60 310 60 c 0
 418 60 491 130 506 220 c 4
 521 310 470 380 362 380 c 1
 402 445 l 1
 531 445 607 349 586 220 c 0
 565 91 447 -10 298 -10 c 0
 149 -10 65 91 86 220 c 0
 95 277 127 327 169 377 c 2
 443 700 l 1
 543 700 l 1
 235 352 l 1
 241 345 l 1
 198 316 174 271 166 220 c 0
EndSplineSet
EndChar

StartChar: period
Encoding: 46 46 56
Width: 230
VWidth: 0
Flags: HMW
LayerCount: 2
Fore
SplineSet
59 55 m 4
 65 91 99 120 135 120 c 4
 171 120 195 91 189 55 c 4
 183 19 149 -10 113 -10 c 4
 77 -10 53 19 59 55 c 4
EndSplineSet
EndChar

StartChar: semicolon
Encoding: 59 59 57
Width: 254
VWidth: 0
Flags: HMW
LayerCount: 2
Fore
SplineSet
69 55 m 4
 75 91 109 120 147 120 c 4
 185 120 209 91 203 55 c 4
 201 43 195 24 183 10 c 6
 69 -130 l 5
 19 -130 l 5
 99 -5 l 5
 79 3 64 27 69 55 c 4
136 469 m 4
 142 505 176 534 212 534 c 4
 248 534 272 505 266 469 c 4
 260 433 227 404 191 404 c 4
 155 404 130 433 136 469 c 4
EndSplineSet
EndChar

StartChar: comma
Encoding: 44 44 58
Width: 254
VWidth: 0
Flags: HMW
LayerCount: 2
Fore
SplineSet
79 55 m 4
 85 91 119 120 157 120 c 4
 195 120 219 91 213 55 c 4
 211 43 205 24 193 10 c 6
 79 -130 l 5
 29 -130 l 5
 109 -5 l 5
 89 3 74 27 79 55 c 4
EndSplineSet
EndChar

StartChar: colon
Encoding: 58 58 59
Width: 230
VWidth: 0
Flags: HMW
LayerCount: 2
Fore
SplineSet
59 55 m 4
 65 91 99 120 135 120 c 4
 171 120 195 91 189 55 c 4
 183 19 149 -10 113 -10 c 4
 77 -10 53 19 59 55 c 4
126 469 m 4
 132 505 166 534 202 534 c 4
 238 534 262 505 256 469 c 4
 250 433 217 404 181 404 c 4
 145 404 120 433 126 469 c 4
EndSplineSet
EndChar

StartChar: two
Encoding: 50 50 60
Width: 600
VWidth: 0
Flags: HMW
LayerCount: 2
Fore
SplineSet
61 65 m 1
 81 65 l 1
 70 0 l 1
 50 0 l 1
 61 65 l 1
519 516 m 1
 529 575 490 635 403 635 c 0
 314 635 252 568 203 485 c 5
 135 523 l 1
 194 629 298 710 416 710 c 0
 545 710 620 615 604 516 c 1
 519 516 l 1
70 0 m 1
 82 75 l 1
 562 75 l 1
 550 0 l 1
 70 0 l 1
405 251 m 2
 171 65 l 1
 61 65 l 1
 352 300 l 2
 463 389 507 445 519 516 c 1
 604 516 l 1
 586 406 523 345 405 251 c 2
EndSplineSet
EndChar

StartChar: nine
Encoding: 57 57 61
Width: 600
VWidth: 0
Flags: HMW
LayerCount: 2
Fore
SplineSet
548 480 m 1
 583 480 l 1
 562 351 441 255 312 255 c 1
 352 320 l 1
 460 320 533 390 548 480 c 1
548 480 m 0
 563 570 512 640 404 640 c 0
 296 640 223 570 208 480 c 4
 193 390 244 320 352 320 c 1
 312 255 l 1
 183 255 107 351 128 480 c 0
 149 609 267 710 416 710 c 0
 565 710 649 609 628 480 c 0
 619 423 587 373 545 323 c 2
 271 0 l 1
 171 0 l 1
 479 348 l 1
 473 355 l 1
 516 384 540 429 548 480 c 0
EndSplineSet
EndChar

StartChar: three
Encoding: 51 51 62
Width: 600
VWidth: 0
Flags: HMW
LayerCount: 2
Fore
SplineSet
313 384 m 1
 500 384 606 347 582 197 c 0
 559 57 425 -10 298 -10 c 0
 208 -10 118 14 66 99 c 1
 130 152 l 5
 162 97 242 64 310 64 c 0
 393 64 483 108 497 197 c 0
 511 286 447 330 304 330 c 1
 313 384 l 1
173 602 m 1
 231 660 302 710 416 710 c 0
 550 710 622 629 606 530 c 0
 587 411 481 350 307 350 c 1
 316 405 l 1
 446 405 509 452 520 520 c 0
 531 588 493 635 403 635 c 0
 320 635 268 597 220 549 c 1
 173 602 l 1
EndSplineSet
EndChar

StartChar: eight
Encoding: 56 56 63
Width: 600
VWidth: 0
Flags: HMW
LayerCount: 2
Fore
SplineSet
250 520 m 0
 239 452 286 405 366 405 c 0
 446 405 509 452 520 520 c 4
 531 588 483 635 403 635 c 0
 323 635 261 588 250 520 c 0
166 530 m 0
 182 629 292 710 416 710 c 0
 540 710 622 629 606 530 c 0
 587 411 481 350 357 350 c 0
 233 350 147 411 166 530 c 0
80 187 m 4
 103 327 226 384 363 384 c 0
 500 384 603 327 580 187 c 4
 560 67 435 -10 298 -10 c 0
 161 -10 60 67 80 187 c 4
167 197 m 0
 153 108 217 64 310 64 c 0
 403 64 483 108 497 197 c 4
 511 286 447 330 354 330 c 0
 261 330 181 286 167 197 c 0
EndSplineSet
EndChar

StartChar: four
Encoding: 52 52 64
Width: 600
VWidth: 0
Flags: HMW
LayerCount: 2
Fore
SplineSet
74 210 m 1
 94 210 l 1
 84 145 l 1
 64 145 l 1
 74 210 l 1
96 220 m 1
 586 220 l 1
 574 145 l 1
 84 145 l 1
 96 220 l 1
584 700 m 1
 580 676 l 1
 485 676 l 1
 489 700 l 1
 584 700 l 1
489 700 m 1
 551 679 l 1
 159 210 l 1
 74 210 l 1
 489 700 l 1
496 680 m 1
 584 700 l 1
 470 0 l 1
 385 0 l 1
 496 680 l 1
EndSplineSet
EndChar

StartChar: five
Encoding: 53 53 65
Width: 600
VWidth: 0
Flags: HMW
LayerCount: 2
Fore
SplineSet
121 311 m 1
 136 346 l 1
 186 346 l 1
 181 311 l 1
 121 311 l 1
394 455 m 1
 521 455 609 360 586 220 c 0
 562 70 425 -10 298 -10 c 0
 208 -10 118 14 66 99 c 1
 136 157 l 5
 168 102 238 66 311 66 c 0
 394 66 485 121 501 220 c 0
 515 309 475 380 362 380 c 1
 394 455 l 1
121 311 m 1
 244 700 l 1
 319 700 l 1
 211 341 l 1
 121 311 l 1
244 700 m 1
 624 700 l 1
 612 625 l 1
 232 625 l 1
 244 700 l 1
362 380 m 1
 285 380 229 360 181 311 c 1
 151 311 l 1
 195 400 255 455 394 455 c 1
 362 380 l 1
EndSplineSet
EndChar

StartChar: seven
Encoding: 55 55 66
Width: 600
VWidth: 0
Flags: HMW
LayerCount: 2
Fore
SplineSet
655 640 m 1
 241 0 l 1
 154 0 l 5
 568 640 l 5
 655 640 l 1
644 700 m 1
 665 700 l 1
 655 640 l 1
 634 640 l 1
 644 700 l 1
164 700 m 1
 644 700 l 1
 632 625 l 1
 152 625 l 1
 164 700 l 1
EndSplineSet
EndChar

StartChar: exclam
Encoding: 33 33 67
Width: 230
VWidth: 0
Flags: HMW
LayerCount: 2
Fore
SplineSet
59 55 m 4
 65 91 99 120 135 120 c 4
 171 120 195 91 189 55 c 4
 183 19 149 -10 113 -10 c 4
 77 -10 53 19 59 55 c 4
146 490 m 1
 244 490 l 1
 178 250 l 1
 134 250 l 1
 146 490 l 1
185 730 m 1
 283 730 l 1
 244 490 l 1
 146 490 l 1
 185 730 l 1
EndSplineSet
EndChar

StartChar: quotedbl
Encoding: 34 34 68
Width: 340
VWidth: 0
Flags: HMW
LayerCount: 2
Fore
SplineSet
142 685 m 0
 147 715 176 740 206 740 c 0
 236 740 257 715 252 685 c 0
 251 679 249 674 247 668 c 2
 185 480 l 1
 141 480 l 1
 141 668 l 2
 141 674 141 679 142 685 c 0
312 685 m 0
 317 715 346 740 376 740 c 0
 406 740 427 715 422 685 c 0
 421 679 419 674 417 668 c 2
 355 480 l 1
 311 480 l 1
 311 668 l 2
 311 674 311 679 312 685 c 0
EndSplineSet
EndChar

StartChar: quotesingle
Encoding: 39 39 69
Width: 170
VWidth: 0
Flags: HMW
LayerCount: 2
Fore
SplineSet
142 685 m 0
 147 715 176 740 206 740 c 0
 236 740 257 715 252 685 c 0
 251 679 249 674 247 668 c 2
 185 480 l 1
 141 480 l 1
 141 668 l 2
 141 674 141 679 142 685 c 0
EndSplineSet
EndChar

StartChar: numbersign
Encoding: 35 35 70
Width: 810
VWidth: 0
Flags: HMW
LayerCount: 2
Fore
SplineSet
749 240 m 1
 737 165 l 1
 87 165 l 1
 99 240 l 1
 749 240 l 1
837 535 m 1
 825 460 l 1
 175 460 l 1
 187 535 l 1
 837 535 l 1
679 700 m 1
 759 700 l 1
 525 0 l 1
 445 0 l 1
 679 700 l 1
399 700 m 1
 479 700 l 1
 245 0 l 1
 165 0 l 1
 399 700 l 1
EndSplineSet
EndChar

StartChar: percent
Encoding: 37 37 71
Width: 940
VWidth: 0
Flags: HMW
LayerCount: 2
Fore
SplineSet
190 550 m 0
 179 481 223 425 289 425 c 0
 355 425 419 481 430 550 c 0
 441 619 396 675 330 675 c 0
 264 675 201 619 190 550 c 0
120 550 m 0
 137 655 236 740 341 740 c 0
 446 740 517 655 500 550 c 0
 483 445 384 360 279 360 c 0
 174 360 103 445 120 550 c 0
629 180 m 0
 618 111 663 55 729 55 c 0
 795 55 858 111 869 180 c 0
 880 249 836 305 770 305 c 0
 704 305 640 249 629 180 c 0
559 180 m 0
 576 285 675 370 780 370 c 0
 885 370 956 285 939 180 c 0
 922 75 823 -10 718 -10 c 0
 613 -10 542 75 559 180 c 0
809 730 m 1
 889 730 l 1
 250 0 l 1
 170 0 l 1
 809 730 l 1
EndSplineSet
EndChar

StartChar: dollar
Encoding: 36 36 72
Width: 600
VWidth: 0
Flags: HMW
LayerCount: 2
Fore
SplineSet
502 195 m 1
 587 195 l 1
 566 66 465 -10 316 -10 c 0
 187 -10 111 56 58 113 c 1
 123 176 l 5
 164 132 231 65 329 65 c 0
 422 65 487 105 502 195 c 1
250 524 m 1
 165 519 l 1
 183 630 302 710 421 710 c 0
 520 710 595 674 639 622 c 1
 580 566 l 1
 542 610 476 635 418 635 c 0
 315 635 259 581 250 524 c 1
386 404 m 0
 509 382 608 325 587 195 c 1
 502 195 l 1
 514 266 459 312 363 326 c 0
 242 343 146 404 165 519 c 1
 250 524 l 1
 239 459 291 421 386 404 c 0
408 780 m 1
 478 780 l 1
 338 -80 l 1
 268 -80 l 1
 408 780 l 1
EndSplineSet
EndChar

StartChar: asterisk
Encoding: 42 42 73
Width: 324
VWidth: 0
Flags: HMW
LayerCount: 2
Fore
SplineSet
124 483 m 5
 106 527 l 5
 389 677 l 5
 407 633 l 5
 124 483 l 5
123 633 m 5
 155 677 l 5
 390 527 l 5
 358 483 l 5
 123 633 l 5
256 730 m 5
 306 730 l 5
 257 430 l 5
 207 430 l 5
 256 730 l 5
EndSplineSet
EndChar

StartChar: slash
Encoding: 47 47 74
Width: 430
VWidth: 0
Flags: HMW
LayerCount: 2
Fore
SplineSet
507 780 m 5
 577 780 l 5
 37 -80 l 5
 -33 -80 l 5
 507 780 l 5
EndSplineSet
EndChar

StartChar: ampersand
Encoding: 38 38 75
Width: 715
VWidth: 0
Flags: HMW
LayerCount: 2
Fore
SplineSet
369 395 m 0
 449 416 513 480 521 530 c 5
 601 530 l 5
 586 435 487 367 391 345 c 0
 289 322 197 291 181 190 c 1
 101 190 l 1
 124 330 259 366 369 395 c 0
321 530 m 5
 241 530 l 5
 259 639 342 710 451 710 c 0
 560 710 619 639 601 530 c 5
 521 530 l 5
 531 589 495 635 438 635 c 0
 381 635 331 589 321 530 c 5
348 291 m 2
 272 392 226 440 241 530 c 5
 321 530 l 5
 311 469 346 435 416 339 c 2
 665 0 l 1
 565 0 l 1
 348 291 l 2
630 310 m 1
 696 284 l 1
 638 115 487 -10 318 -10 c 4
 169 -10 82 71 101 190 c 5
 181 190 l 5
 170 121 234 65 341 65 c 0
 458 65 576 161 630 310 c 1
EndSplineSet
EndChar

StartChar: parenleft
Encoding: 40 40 76
Width: 275
VWidth: 0
Flags: HMW
LayerCount: 2
Fore
SplineSet
316 740 m 5
 372 720 l 5
 170 460 106 70 224 -190 c 5
 161 -210 l 5
 11 100 66 430 316 740 c 5
EndSplineSet
EndChar

StartChar: parenright
Encoding: 41 41 77
Width: 275
VWidth: 0
Flags: HMW
LayerCount: 2
Fore
SplineSet
46 -210 m 5
 -11 -190 l 5
 191 70 255 460 137 720 c 5
 201 740 l 5
 351 430 296 100 46 -210 c 5
EndSplineSet
EndChar

StartChar: hyphen
Encoding: 45 45 78
Width: 430
VWidth: 0
Flags: HMW
LayerCount: 2
Fore
SplineSet
120 335 m 5
 420 335 l 5
 407 260 l 5
 107 260 l 5
 120 335 l 5
EndSplineSet
EndChar

StartChar: plus
Encoding: 43 43 79
Width: 510
VWidth: 0
Flags: HMW
LayerCount: 2
Fore
SplineSet
391 589 m 5
 317 134 l 5
 237 134 l 5
 311 589 l 5
 391 589 l 5
95 399 m 5
 545 399 l 5
 533 324 l 5
 83 324 l 5
 95 399 l 5
EndSplineSet
EndChar

StartChar: equal
Encoding: 61 61 80
Width: 510
VWidth: 0
Flags: HMW
LayerCount: 2
Fore
SplineSet
75 275 m 5
 525 275 l 5
 513 200 l 5
 63 200 l 5
 75 275 l 5
113 510 m 5
 563 510 l 5
 551 435 l 5
 101 435 l 5
 113 510 l 5
EndSplineSet
EndChar

StartChar: backslash
Encoding: 92 92 81
Width: 430
VWidth: 0
Flags: HMW
LayerCount: 2
Fore
SplineSet
177 780 m 5
 437 -80 l 5
 367 -80 l 5
 107 780 l 5
 177 780 l 5
EndSplineSet
EndChar

StartChar: less
Encoding: 60 60 82
Width: 510
VWidth: 0
Flags: HMW
LayerCount: 2
Fore
SplineSet
94 395 m 5
 512 195 l 5
 500 120 l 5
 82 320 l 5
 94 395 l 5
94 395 m 5
 577 595 l 5
 565 520 l 5
 82 320 l 5
 94 395 l 5
EndSplineSet
EndChar

StartChar: greater
Encoding: 62 62 83
Width: 510
VWidth: 0
Flags: HMW
LayerCount: 2
Fore
SplineSet
538 320 m 5
 121 520 l 5
 133 595 l 5
 550 395 l 5
 538 320 l 5
538 320 m 5
 56 120 l 5
 68 195 l 5
 550 395 l 5
 538 320 l 5
EndSplineSet
EndChar

StartChar: question
Encoding: 63 63 84
Width: 555
VWidth: 0
Flags: HMW
LayerCount: 2
Fore
SplineSet
204 55 m 4
 210 91 244 120 280 120 c 4
 316 120 340 91 334 55 c 4
 328 19 294 -10 258 -10 c 4
 222 -10 198 19 204 55 c 4
405 438 m 0
 465 466 498 506 506 556 c 1
 591 556 l 1
 576 461 525 412 441 374 c 0
 378 346 349 331 336 250 c 1
 256 250 l 1
 260 400 330 403 405 438 c 0
506 556 m 1
 516 615 480 665 393 665 c 0
 304 665 244 613 199 550 c 1
 137 593 l 1
 193 679 283 740 406 740 c 0
 540 740 607 655 591 556 c 1
 506 556 l 1
EndSplineSet
EndChar

StartChar: at
Encoding: 64 64 85
Width: 1050
VWidth: 0
Flags: HMW
LayerCount: 2
Fore
SplineSet
567 260 m 1048
742 260 m 0,0,1
 761 379 696 455 599 455 c 0,2,3
 502 455 411 379 392 260 c 0,4,5
 373 141 439 65 536 65 c 0,6,7
 633 65 723 141 742 260 c 0,0,1
777 260 m 0,8,9
 753 111 662 -10 513 -10 c 0,10,11
 384 -10 286 101 312 260 c 0,12,13
 338 419 472 530 601 530 c 0,14,15
 750 530 801 409 777 260 c 0,8,9
865 520 m 1,16,-1
 800 120 l 1,17,-1
 716 100 l 1,18,-1
 785 520 l 1,19,-1
 865 520 l 1,16,-1
97 260 m 0,16,17
 139 519 365 730 644 730 c 0,18,19
 903 730 1086 559 1044 300 c 0,20,21
 1006 64 872 -10 796 -10 c 0,0,0
 722 -10 707 43 716 100 c 1,1,-1
 800 120 l 5,2,3
 790 61 797 33 833 33 c 4,0,0
 884 33 983 116 1013 300 c 0,1,2
 1053 543 882 701 639 701 c 0,3,4
 376 701 168 503 128 260 c 0,5,6
 88 17 253 -181 496 -181 c 1,7,-1
 491 -210 l 1,8,9
 232 -210 55 1 97 260 c 0,16,17
EndSplineSet
EndChar

StartChar: bracketleft
Encoding: 91 91 86
Width: 295
VWidth: 0
Flags: HMW
LayerCount: 2
Fore
SplineSet
232 654 m 1
 244 730 l 1
 394 730 l 1
 382 654 l 1
 232 654 l 1
92 -200 m 1
 105 -124 l 1
 255 -124 l 1
 242 -200 l 1
 92 -200 l 1
164 730 m 1
 244 730 l 1
 92 -200 l 1
 12 -200 l 1
 164 730 l 1
EndSplineSet
EndChar

StartChar: bracketright
Encoding: 93 93 87
Width: 295
VWidth: 0
Flags: HMW
LayerCount: 2
Fore
SplineSet
150 -124 m 1
 137 -200 l 1
 -13 -200 l 1
 -0 -124 l 1
 150 -124 l 1
289 730 m 1
 277 654 l 1
 127 654 l 1
 139 730 l 1
 289 730 l 1
217 -200 m 1
 137 -200 l 1
 289 730 l 1
 369 730 l 1
 217 -200 l 1
EndSplineSet
EndChar

StartChar: asciicircum
Encoding: 94 94 88
Width: 510
VWidth: 0
Flags: HMW
LayerCount: 2
Fore
SplineSet
490 430 m 5
 339 730 l 5
 409 730 l 5
 560 430 l 5
 490 430 l 5
339 730 m 5
 409 730 l 5
 160 430 l 5
 90 430 l 5
 339 730 l 5
EndSplineSet
EndChar

StartChar: underscore
Encoding: 95 95 89
Width: 600
VWidth: 0
Flags: HMW
LayerCount: 2
Fore
SplineSet
-15 -80 m 5
 589 -80 l 5
 576 -160 l 5
 -28 -160 l 5
 -15 -80 l 5
EndSplineSet
EndChar

StartChar: braceleft
Encoding: 123 123 90
Width: 349
VWidth: 0
Flags: HMW
LayerCount: 2
Fore
SplineSet
95 305 m 5
 113 305 l 5
 100 225 l 5
 82 225 l 5
 95 305 l 5
171 150 m 5
 251 150 l 5
 219 -50 l 5
 139 -50 l 5
 171 150 l 5
241 580 m 5
 321 580 l 5
 289 380 l 5
 209 380 l 5
 241 580 l 5
209 380 m 5
 289 380 l 5
 276 301 211 250 92 250 c 5
 95 305 l 5
 183 305 202 340 209 380 c 5
171 150 m 5
 178 190 160 225 82 225 c 5
 97 280 l 5
 216 280 264 229 251 150 c 5
 171 150 l 5
321 580 m 5
 241 580 l 5
 254 659 323 730 442 730 c 5
 436 655 l 5
 358 655 328 620 321 580 c 5
219 -50 m 5
 212 -90 231 -125 309 -125 c 5
 290 -200 l 5
 171 -200 126 -129 139 -50 c 5
 219 -50 l 5
EndSplineSet
EndChar

StartChar: braceright
Encoding: 125 125 91
Width: 349
VWidth: 0
Flags: HMW
LayerCount: 2
Fore
SplineSet
366 225 m 5
 348 225 l 5
 361 305 l 5
 379 305 l 5
 366 225 l 5
289 380 m 5
 209 380 l 5
 241 580 l 5
 321 580 l 5
 289 380 l 5
219 -50 m 5
 139 -50 l 5
 171 150 l 5
 251 150 l 5
 219 -50 l 5
251 150 m 5
 171 150 l 5
 184 229 250 280 369 280 c 5
 366 225 l 5
 278 225 258 190 251 150 c 5
289 380 m 5
 282 340 301 305 379 305 c 5
 364 250 l 5
 245 250 196 301 209 380 c 5
 289 380 l 5
139 -50 m 5
 219 -50 l 5
 206 -129 137 -200 18 -200 c 5
 25 -125 l 5
 103 -125 132 -90 139 -50 c 5
241 580 m 5
 248 620 230 655 152 655 c 5
 170 730 l 5
 289 730 334 659 321 580 c 5
 241 580 l 5
EndSplineSet
EndChar

StartChar: bar
Encoding: 124 124 92
Width: 300
VWidth: 0
Flags: HMW
LayerCount: 2
Fore
SplineSet
312 780 m 5
 172 -80 l 5
 102 -80 l 5
 242 780 l 5
 312 780 l 5
EndSplineSet
EndChar

StartChar: asciitilde
Encoding: 126 126 93
Width: 470
VWidth: 0
Flags: HMW
LayerCount: 2
Fore
SplineSet
143 174 m 5
 77 194 l 5
 94 272 148 311 199 311 c 4
 263 311 308 247 352 247 c 4
 397 247 410 277 416 314 c 5
 473 294 l 5
 454 206 403 177 353 177 c 4
 291 177 250 241 207 241 c 4
 163 241 149 211 143 174 c 5
EndSplineSet
EndChar

StartChar: quoteleft
Encoding: 8216 8216 94
Width: 214
VWidth: 0
Flags: HMW
LayerCount: 2
Fore
SplineSet
233 545 m 4
 227 509 193 480 155 480 c 4
 117 480 93 509 99 545 c 4
 101 557 107 576 119 590 c 6
 233 730 l 5
 283 730 l 5
 203 605 l 5
 223 597 238 573 233 545 c 4
EndSplineSet
EndChar

StartChar: quoteright
Encoding: 8217 8217 95
Width: 214
VWidth: 0
Flags: HMW
LayerCount: 2
Fore
SplineSet
180 675 m 4
 186 711 220 740 258 740 c 4
 296 740 320 711 314 675 c 4
 312 663 306 644 294 630 c 6
 180 490 l 5
 130 490 l 5
 210 615 l 5
 190 623 175 647 180 675 c 4
EndSplineSet
EndChar

StartChar: quotedblleft
Encoding: 8220 8220 96
Width: 384
VWidth: 0
Flags: HMW
LayerCount: 2
Fore
SplineSet
233 545 m 4
 227 509 193 480 155 480 c 4
 117 480 93 509 99 545 c 4
 101 557 107 576 119 590 c 6
 233 730 l 5
 283 730 l 5
 203 605 l 5
 223 597 238 573 233 545 c 4
403 545 m 4
 397 509 363 480 325 480 c 4
 287 480 263 509 269 545 c 4
 271 557 277 576 289 590 c 6
 403 730 l 5
 453 730 l 5
 373 605 l 5
 393 597 408 573 403 545 c 4
EndSplineSet
EndChar

StartChar: quotedblright
Encoding: 8221 8221 97
Width: 384
VWidth: 0
Flags: HMW
LayerCount: 2
Fore
SplineSet
350 675 m 4
 356 711 390 740 428 740 c 4
 466 740 490 711 484 675 c 4
 482 663 476 644 464 630 c 6
 350 490 l 5
 300 490 l 5
 380 615 l 5
 360 623 345 647 350 675 c 4
180 675 m 4
 186 711 220 740 258 740 c 4
 296 740 320 711 314 675 c 4
 312 663 306 644 294 630 c 6
 180 490 l 5
 130 490 l 5
 210 615 l 5
 190 623 175 647 180 675 c 4
EndSplineSet
EndChar

StartChar: tilde
Encoding: 732 732 98
Width: 500
VWidth: 0
Flags: HMW
AnchorPoint: "dot" 250 610 basechar 0
LayerCount: 2
Fore
SplineSet
228 600 m 1
 161 620 l 1
 178 698 232 737 283 737 c 0
 347 737 392 673 436 673 c 0
 481 673 495 703 501 740 c 1
 557 720 l 1
 538 632 487 603 437 603 c 0
 375 603 334 667 291 667 c 0
 247 667 234 637 228 600 c 1
EndSplineSet
EndChar

StartChar: dotaccent
Encoding: 729 729 99
Width: 500
VWidth: 0
Flags: HMW
AnchorPoint: "dot" 250 590 basechar 0
LayerCount: 2
Fore
SplineSet
290 645 m 0
 296 681 330 710 366 710 c 0
 402 710 426 681 420 645 c 0
 414 609 380 580 344 580 c 0
 308 580 284 609 290 645 c 0
EndSplineSet
EndChar

StartChar: ring
Encoding: 730 730 100
Width: 500
VWidth: 0
Flags: HMW
AnchorPoint: "ring" 250 590 basechar 0
LayerCount: 2
Fore
SplineSet
311 680 m 0
 306 651 324 630 353 630 c 0
 382 630 406 651 411 680 c 0
 416 709 398 730 369 730 c 4
 340 730 316 709 311 680 c 0
261 680 m 0
 270 735 322 780 377 780 c 0
 432 780 470 735 461 680 c 0
 452 625 399 580 344 580 c 0
 289 580 252 625 261 680 c 0
EndSplineSet
EndChar

StartChar: breve
Encoding: 728 728 101
Width: 500
VWidth: 0
Flags: HMW
AnchorPoint: "dot" 244 579 basechar 0
LayerCount: 2
Fore
SplineSet
351 659 m 1
 291 659 260 683 268 731 c 1
 192 725 l 1
 178 636 239 579 338 579 c 1
 351 659 l 1
351 659 m 1
 338 579 l 1
 437 579 518 636 532 725 c 1
 458 731 l 1
 450 683 411 659 351 659 c 1
EndSplineSet
EndChar

StartChar: circumflex
Encoding: 710 710 102
Width: 500
VWidth: 0
Flags: HMW
AnchorPoint: "dot" 250 630 basechar 0
LayerCount: 2
Fore
SplineSet
418 630 m 1
 334 730 l 1
 404 730 l 1
 488 630 l 1
 418 630 l 1
334 730 m 1
 404 730 l 1
 288 630 l 1
 218 630 l 1
 334 730 l 1
EndSplineSet
EndChar

StartChar: caron
Encoding: 711 711 103
Width: 500
VWidth: 0
Flags: HMW
AnchorPoint: "dot" 250 630 basechar 0
LayerCount: 2
Fore
SplineSet
304 730 m 1
 388 630 l 1
 318 630 l 1
 234 730 l 1
 304 730 l 1
388 630 m 1
 318 630 l 1
 434 730 l 1
 504 730 l 1
 388 630 l 1
EndSplineSet
EndChar

StartChar: exclamdown
Encoding: 161 161 104
Width: 190
VWidth: 0
Flags: HMW
LayerCount: 2
Fore
SplineSet
236 465 m 4
 230 429 196 400 160 400 c 4
 124 400 100 429 106 465 c 4
 112 501 145 530 181 530 c 4
 217 530 242 501 236 465 c 4
149 30 m 1
 51 30 l 1
 117 270 l 1
 161 270 l 1
 149 30 l 1
110 -210 m 1
 12 -210 l 1
 51 30 l 1
 149 30 l 1
 110 -210 l 1
EndSplineSet
EndChar

StartChar: cent
Encoding: 162 162 105
Width: 600
VWidth: 0
Flags: HMW
LayerCount: 2
Fore
SplineSet
413 600 m 1
 453 600 l 1
 342 -80 l 1
 302 -80 l 1
 413 600 l 1
187 260 m 0
 169 151 239 65 346 65 c 0
 410 65 470 94 515 143 c 1
 558 92 l 1
 501 28 420 -10 333 -10 c 0
 184 -10 83 111 107 260 c 0
 131 409 272 530 421 530 c 0
 508 530 575 491 612 428 c 1
 553 377 l 1
 524 426 473 455 409 455 c 0
 302 455 205 369 187 260 c 0
EndSplineSet
EndChar

StartChar: questiondown
Encoding: 191 191 106
Width: 555
VWidth: 0
Flags: HMW
LayerCount: 2
Fore
SplineSet
436 465 m 4
 430 429 396 400 360 400 c 4
 324 400 300 429 306 465 c 4
 312 501 345 530 381 530 c 4
 417 530 442 501 436 465 c 4
234 82 m 0
 174 54 142 14 134 -36 c 1
 49 -36 l 1
 64 59 115 108 199 146 c 0
 262 174 291 189 304 270 c 1
 384 270 l 1
 380 120 309 117 234 82 c 0
134 -36 m 1
 124 -95 159 -145 246 -145 c 0
 335 -145 396 -93 441 -30 c 1
 503 -73 l 1
 447 -159 357 -220 234 -220 c 0
 100 -220 33 -135 49 -36 c 1
 134 -36 l 1
EndSplineSet
EndChar

StartChar: uni0203
Encoding: 515 515 107
Width: 580
VWidth: 0
Flags: HMW
LayerCount: 2
Fore
SplineSet
371 312 m 1
 521 312 l 1
 510 248 l 1
 390 248 l 1
 371 312 l 1
474 330 m 1
 487 410 468 455 362 455 c 1
 380 530 l 1
 523 530 578 449 559 330 c 1
 474 330 l 1
362 455 m 1
 288 455 246 432 190 392 c 1
 153 450 l 1
 218 499 278 530 380 530 c 1
 362 455 l 1
474 330 m 1
 559 330 l 1
 505 0 l 1
 420 0 l 1
 474 330 l 1
153 155 m 1
 144 97 178 65 281 65 c 0
 359 65 436 100 449 180 c 1
 484 180 l 1
 466 71 377 -10 238 -10 c 0
 139 -10 50 41 69 160 c 1
 153 155 l 1
371 312 m 1
 390 248 l 1
 241 248 167 240 153 155 c 1
 69 160 l 1
 91 295 234 312 371 312 c 1
402 662 m 1
 342 662 303 638 295 590 c 1
 221 596 l 1
 235 685 316 742 415 742 c 1
 402 662 l 1
402 662 m 1
 415 742 l 1
 514 742 575 685 561 596 c 1
 485 590 l 1
 493 638 462 662 402 662 c 1
EndSplineSet
EndChar

StartChar: sterling
Encoding: 163 163 108
Width: 600
VWidth: 0
Flags: HMW
LayerCount: 2
Fore
SplineSet
162 45 m 1
 77 -1 l 1
 292 273 160 279 201 530 c 1
 281 530 l 1
 251 346 340 220 162 45 c 1
141 -25 m 1
 77 -1 l 1
 164 77 202 92 273 92 c 0
 337 92 369 38 413 38 c 0
 458 38 486 58 512 95 c 1
 566 70 l 1
 527 -18 459 -32 409 -32 c 0
 327 -32 280 32 237 32 c 0
 193 32 167 12 141 -25 c 1
107 380 m 5
 405 380 l 5
 393 305 l 5
 95 305 l 5
 107 380 l 5
408 635 m 1
 415 710 l 1
 497 710 559 669 586 610 c 1
 535 551 l 1
 514 590 472 635 408 635 c 1
281 530 m 1
 201 530 l 1
 217 629 306 710 415 710 c 1
 408 635 l 1
 333 635 291 589 281 530 c 1
EndSplineSet
EndChar

StartChar: currency
Encoding: 164 164 109
Width: 600
VWidth: 0
Flags: HMW
LayerCount: 2
Fore
SplineSet
165 199 m 1
 208 148 l 1
 96 52 l 1
 54 103 l 1
 165 199 l 1
436 153 m 1
 495 204 l 1
 580 103 l 1
 520 52 l 1
 436 153 l 1
606 578 m 1
 649 527 l 1
 517 414 l 1
 475 465 l 1
 606 578 l 1
123 527 m 1
 182 578 l 1
 277 465 l 1
 217 414 l 1
 123 527 l 1
199 315 m 0
 185 228 240 159 326 159 c 0
 412 159 489 228 503 315 c 0
 517 402 463 471 377 471 c 0
 291 471 213 402 199 315 c 0
135 315 m 0
 154 434 267 531 386 531 c 0
 505 531 586 434 567 315 c 0
 548 196 435 99 316 99 c 0
 197 99 116 196 135 315 c 0
EndSplineSet
EndChar

StartChar: yen
Encoding: 165 165 110
Width: 600
VWidth: 0
Flags: HMW
LayerCount: 2
Fore
SplineSet
311 295 m 1
 390 295 l 1
 342 0 l 1
 263 0 l 1
 311 295 l 1
144 700 m 1
 232 700 l 1
 390 295 l 1
 333 217 l 1
 144 700 l 1
601 700 m 1
 688 700 l 1
 342 217 l 1
 311 295 l 1
 601 700 l 1
56 158 m 5
 596 158 l 5
 588 110 l 5
 48 110 l 5
 56 158 l 5
80 310 m 5
 620 310 l 5
 613 262 l 5
 73 262 l 5
 80 310 l 5
EndSplineSet
EndChar

StartChar: brokenbar
Encoding: 166 166 111
Width: 300
VWidth: 0
Flags: HMW
LayerCount: 2
Fore
SplineSet
260 460 m 5
 190 460 l 5
 242 780 l 1
 312 780 l 1
 260 460 l 5
231 280 m 1
 172 -80 l 1
 102 -80 l 1
 161 280 l 1
 231 280 l 1
EndSplineSet
EndChar

StartChar: section
Encoding: 167 167 112
Width: 520
VWidth: 0
Flags: HMW
LayerCount: 2
Fore
SplineSet
418 140 m 1
 498 140 l 1
 485 61 412 -10 273 -10 c 0
 164 -10 106 37 62 104 c 1
 125 155 l 1
 163 105 208 65 286 65 c 0
 359 65 410 90 418 140 c 1
327 287 m 0
 441 268 518 260 498 140 c 1
 418 140 l 1
 425 180 391 201 285 216 c 0
 184 231 63 328 227 473 c 5
 287 473 l 5
 166 343 232 303 327 287 c 0
263 573 m 1
 183 573 l 1
 195 649 282 710 391 710 c 0
 500 710 545 670 580 628 c 1
 522 573 l 1
 489 606 456 635 378 635 c 0
 300 635 268 605 263 573 c 1
381 498 m 0
 495 479 620 400 456 250 c 5
 396 250 l 5
 517 380 446 412 340 427 c 0
 239 442 168 478 183 573 c 1
 263 573 l 1
 255 523 286 514 381 498 c 0
EndSplineSet
EndChar

StartChar: dieresis
Encoding: 168 168 113
Width: 500
VWidth: 0
Flags: HMW
AnchorPoint: "dot" 250 590 basechar 0
LayerCount: 2
Fore
SplineSet
180 645 m 0
 186 681 220 710 256 710 c 0
 292 710 316 681 310 645 c 0
 304 609 270 580 234 580 c 0
 198 580 174 609 180 645 c 0
400 645 m 0
 406 681 440 710 476 710 c 0
 512 710 536 681 530 645 c 0
 524 609 490 580 454 580 c 0
 418 580 394 609 400 645 c 0
EndSplineSet
EndChar

StartChar: copyright
Encoding: 169 169 114
Width: 850
VWidth: 0
Flags: HMW
LayerCount: 2
Fore
SplineSet
358 350 m 0
 345 272 391 210 467 210 c 0
 509 210 549 230 580 260 c 5
 604 232 l 1
 565 194 514 170 461 170 c 0
 363 170 297 250 313 350 c 0
 329 450 421 530 519 530 c 0
 572 530 617 506 643 468 c 1
 609 440 l 1
 587 470 555 490 513 490 c 0
 437 490 371 428 358 350 c 0
170 350 m 0
 141 174 259 30 430 30 c 0
 601 30 765 174 794 350 c 0
 823 526 705 670 534 670 c 0
 363 670 199 526 170 350 c 0
127 350 m 0
 159 549 346 710 541 710 c 0
 736 710 869 549 837 350 c 0
 805 151 618 -10 423 -10 c 0
 228 -10 95 151 127 350 c 0
EndSplineSet
EndChar

StartChar: ordfeminine
Encoding: 170 170 115
Width: 535
VWidth: 0
Flags: HMW
LayerCount: 2
Fore
SplineSet
377 547 m 1
 490 547 l 1
 482 499 l 1
 392 499 l 1
 377 547 l 1
454 560 m 1
 464 620 451 654 371 654 c 1
 384 710 l 1
 491 710 533 649 518 560 c 1
 454 560 l 1
371 654 m 1
 315 654 283 637 241 607 c 1
 214 650 l 1
 263 687 308 710 384 710 c 1
 371 654 l 1
454 560 m 1
 518 560 l 1
 478 313 l 1
 414 313 l 1
 454 560 l 1
214 429 m 1
 207 385 232 362 309 362 c 0
 367 362 426 388 436 448 c 1
 462 448 l 1
 449 366 382 306 278 306 c 0
 204 306 136 344 151 433 c 1
 214 429 l 1
377 547 m 1
 392 499 l 1
 280 499 224 493 214 429 c 1
 151 433 l 1
 167 534 274 547 377 547 c 1
132 256 m 5
 465 256 l 5
 455 199 l 5
 122 199 l 5
 132 256 l 5
EndSplineSet
EndChar

StartChar: registered
Encoding: 174 174 116
Width: 850
VWidth: 0
Flags: HMW
LayerCount: 2
Fore
SplineSet
471 335 m 1
 523 335 l 1
 617 175 l 1
 565 175 l 1
 471 335 l 1
508 344 m 1
 552 344 586 372 593 414 c 0
 600 456 575 485 531 485 c 1
 538 525 l 1
 602 525 648 476 638 414 c 0
 628 352 566 304 502 304 c 1
 508 344 l 1
388 525 m 1
 433 525 l 1
 376 175 l 1
 331 175 l 1
 388 525 l 1
390 525 m 1
 538 525 l 1
 531 485 l 1
 383 485 l 1
 390 525 l 1
361 344 m 1
 508 344 l 1
 502 304 l 1
 354 304 l 1
 361 344 l 1
170 350 m 0
 141 174 259 30 430 30 c 0
 601 30 765 174 794 350 c 0
 823 526 705 670 534 670 c 0
 363 670 199 526 170 350 c 0
127 350 m 0
 159 549 346 710 541 710 c 0
 736 710 869 549 837 350 c 0
 805 151 618 -10 423 -10 c 0
 228 -10 95 151 127 350 c 0
EndSplineSet
EndChar

StartChar: ordmasculine
Encoding: 186 186 117
Width: 535
VWidth: 0
Flags: HMW
LayerCount: 2
Fore
SplineSet
114 256 m 5
 500 256 l 5
 490 199 l 5
 104 199 l 5
 114 256 l 5
209 510 m 0
 196 428 244 364 324 364 c 0
 404 364 474 428 487 510 c 4
 500 592 452 656 372 656 c 0
 292 656 222 592 209 510 c 0
146 510 m 0
 164 622 269 712 381 712 c 0
 493 712 569 622 551 510 c 0
 533 398 427 308 315 308 c 0
 203 308 128 398 146 510 c 0
EndSplineSet
EndChar

StartChar: plusminus
Encoding: 177 177 118
Width: 510
VWidth: 0
Flags: HMW
LayerCount: 2
Fore
SplineSet
391 589 m 5
 326 189 l 5
 246 189 l 5
 311 589 l 5
 391 589 l 5
99 422 m 5
 549 422 l 5
 538 356 l 5
 88 356 l 5
 99 422 l 5
54 145 m 5
 504 145 l 5
 491 70 l 5
 41 70 l 5
 54 145 l 5
EndSplineSet
EndChar

StartChar: degree
Encoding: 176 176 119
Width: 400
VWidth: 0
Flags: HMW
LayerCount: 2
Fore
SplineSet
241 680 m 0
 235 641 260 610 299 610 c 0
 338 610 375 641 381 680 c 0
 387 719 361 750 322 750 c 0
 283 750 247 719 241 680 c 0
211 680 m 0
 220 735 272 780 327 780 c 0
 382 780 420 735 411 680 c 0
 402 625 349 580 294 580 c 0
 239 580 202 625 211 680 c 0
EndSplineSet
EndChar

StartChar: mu
Encoding: 181 181 120
Width: 635
VWidth: 0
Flags: HMW
LayerCount: 2
Fore
SplineSet
116 220 m 1
 165 520 l 1
 250 520 l 1
 201 220 l 1
 116 220 l 1
550 0 m 1
 465 0 l 1
 550 520 l 1
 635 520 l 1
 550 0 l 1
201 220 m 1
 186 130 206 65 316 65 c 0
 414 65 486 130 504 240 c 1
 539 240 l 1
 516 101 422 -10 283 -10 c 0
 154 -10 95 91 116 220 c 1
 201 220 l 1
116 220 m 1
 196 220 l 1
 128 -198 l 1
 48 -198 l 1
 116 220 l 1
EndSplineSet
EndChar

StartChar: uni00B2
Encoding: 178 178 121
Width: 300
VWidth: 0
Flags: HMW
LayerCount: 2
Fore
SplineSet
88 388 m 1
 98 388 l 1
 93 356 l 1
 83 356 l 1
 88 388 l 1
317 614 m 1
 322 644 304 673 260 673 c 0
 216 673 183 640 159 598 c 5
 125 617 l 1
 155 670 207 710 266 710 c 0
 330 710 368 664 360 614 c 1
 317 614 l 1
93 356 m 1
 99 393 l 1
 339 393 l 1
 333 356 l 1
 93 356 l 1
260 481 m 2
 143 388 l 1
 88 388 l 1
 234 506 l 2
 289 550 311 578 317 614 c 1
 360 614 l 1
 351 559 319 528 260 481 c 2
EndSplineSet
EndChar

StartChar: uni00B3
Encoding: 179 179 122
Width: 300
VWidth: 0
Flags: HMW
LayerCount: 2
Fore
SplineSet
214 547 m 1
 308 547 361 529 349 454 c 0
 338 384 271 350 207 350 c 0
 162 350 117 362 91 404 c 1
 123 431 l 5
 139 403 179 387 213 387 c 0
 255 387 299 410 306 454 c 0
 313 498 282 520 210 520 c 1
 214 547 l 1
144 656 m 1
 173 685 209 710 266 710 c 0
 333 710 369 670 361 620 c 0
 351 560 298 530 211 530 c 1
 216 558 l 1
 281 558 312 581 318 615 c 0
 324 649 305 672 260 672 c 0
 218 672 192 654 168 630 c 1
 144 656 l 1
EndSplineSet
EndChar

StartChar: grave
Encoding: 96 96 123
Width: 320
VWidth: 0
Flags: HMW
AnchorPoint: "dot" 200 590 basechar 0
LayerCount: 2
Fore
SplineSet
286 590 m 1
 189 730 l 1
 289 730 l 1
 346 590 l 1
 286 590 l 1
EndSplineSet
EndChar

StartChar: acute
Encoding: 180 180 124
Width: 320
VWidth: 0
Flags: HMW
AnchorPoint: "dot" 120 590 basechar 0
LayerCount: 2
Fore
SplineSet
226 590 m 1
 166 590 l 1
 269 730 l 1
 369 730 l 1
 226 590 l 1
EndSplineSet
EndChar

StartChar: uni00AD
Encoding: 173 173 125
Width: 470
VWidth: 0
Flags: HMW
LayerCount: 2
Fore
SplineSet
120 335 m 5
 460 335 l 5
 447 260 l 5
 107 260 l 5
 120 335 l 5
EndSplineSet
EndChar

StartChar: logicalnot
Encoding: 172 172 126
Width: 540
VWidth: 0
Flags: HMW
LayerCount: 2
Fore
SplineSet
136 435 m 5
 476 435 l 5
 464 360 l 5
 124 360 l 5
 136 435 l 5
476 435 m 5
 546 435 l 5
 520 275 l 5
 450 275 l 5
 476 435 l 5
EndSplineSet
EndChar

StartChar: macron
Encoding: 175 175 127
Width: 300
VWidth: 0
Flags: HMW
LayerCount: 2
Fore
SplineSet
128 800 m 1
 432 800 l 5
 419 720 l 5
 115 720 l 1
 128 800 l 1
EndSplineSet
EndChar

StartChar: periodcentered
Encoding: 183 183 128
Width: 190
VWidth: 0
Flags: HMW
LayerCount: 2
Fore
SplineSet
100 305 m 4
 106 341 139 370 175 370 c 4
 211 370 236 341 230 305 c 4
 224 269 190 240 154 240 c 4
 118 240 94 269 100 305 c 4
EndSplineSet
EndChar

StartChar: uni00B9
Encoding: 185 185 129
Width: 600
VWidth: 0
Flags: HMW
LayerCount: 2
Fore
SplineSet
428 700 m 5
 426 688 l 5
 386 688 l 1
 388 700 l 1
 428 700 l 5
388 700 m 1
 411 670 l 1
 300 600 l 1
 287 635 l 1
 388 700 l 1
382 695 m 1
 428 700 l 5
 371 350 l 5
 326 350 l 1
 382 695 l 1
EndSplineSet
EndChar

StartChar: paragraph
Encoding: 182 182 130
Width: 600
VWidth: 0
Flags: HMW
LayerCount: 2
Fore
SplineSet
559 700 m 1
 552 656 l 1
 460 656 l 1
 467 700 l 1
 559 700 l 1
639 700 m 1
 525 0 l 1
 445 0 l 1
 559 700 l 1
 639 700 l 1
489 700 m 1
 375 0 l 1
 295 0 l 1
 409 700 l 1
 489 700 l 1
337 260 m 1
 238 260 132 351 153 480 c 0
 174 609 310 700 409 700 c 1
 380 520 366 440 337 260 c 1
EndSplineSet
EndChar

StartChar: cedilla
Encoding: 184 184 131
Width: 320
VWidth: 0
Flags: HMW
AnchorPoint: "ced" 146 -1 basechar 0
LayerCount: 2
Fore
SplineSet
89 30 m 5
 129 30 l 5
 173 -4 231 -44 222 -102 c 4
 214 -149 187 -184 120 -184 c 4
 83 -184 48 -170 29 -155 c 5
 54 -125 l 5
 63 -128 80 -140 110 -140 c 4
 141 -140 167 -131 172 -99 c 4
 178 -64 130 -9 89 30 c 5
EndSplineSet
EndChar

StartChar: guillemotleft
Encoding: 171 171 132
Width: 592
VWidth: 0
Flags: HMW
LayerCount: 2
Fore
SplineSet
94 395 m 5
 344 195 l 5
 332 120 l 5
 82 320 l 5
 94 395 l 5
94 395 m 5
 409 595 l 5
 397 520 l 5
 82 320 l 5
 94 395 l 5
344 395 m 5
 594 195 l 5
 582 120 l 5
 332 320 l 5
 344 395 l 5
344 395 m 5
 659 595 l 5
 647 520 l 5
 332 320 l 5
 344 395 l 5
EndSplineSet
EndChar

StartChar: guillemotright
Encoding: 187 187 133
Width: 592
VWidth: 0
Flags: HMW
LayerCount: 2
Fore
SplineSet
614 320 m 5
 365 520 l 5
 377 595 l 5
 626 395 l 5
 614 320 l 5
614 320 m 5
 300 120 l 5
 312 195 l 5
 626 395 l 5
 614 320 l 5
364 320 m 5
 115 520 l 5
 127 595 l 5
 376 395 l 5
 364 320 l 5
364 320 m 5
 50 120 l 5
 62 195 l 5
 376 395 l 5
 364 320 l 5
EndSplineSet
EndChar

StartChar: Agrave
Encoding: 192 192 134
Width: 800
VWidth: 0
Flags: HMW
LayerCount: 2
Fore
SplineSet
474 700 m 1
 554 700 l 1
 542 690 l 1
 472 690 l 1
 474 700 l 1
246 260 m 1
 638 260 l 1
 626 185 l 1
 234 185 l 1
 246 260 l 1
670 0 m 1
 472 690 l 1
 554 700 l 1
 760 0 l 1
 670 0 l 1
474 700 m 1
 552 690 l 1
 130 0 l 1
 40 0 l 1
 474 700 l 1
493 770 m 1
 396 910 l 1
 496 910 l 1
 553 770 l 1
 493 770 l 1
EndSplineSet
EndChar

StartChar: Aacute
Encoding: 193 193 135
Width: 800
VWidth: 0
Flags: HMW
LayerCount: 2
Fore
SplineSet
474 700 m 1
 554 700 l 1
 542 690 l 1
 472 690 l 1
 474 700 l 1
246 260 m 1
 638 260 l 1
 626 185 l 1
 234 185 l 1
 246 260 l 1
670 0 m 1
 472 690 l 1
 554 700 l 1
 760 0 l 1
 670 0 l 1
474 700 m 1
 552 690 l 1
 130 0 l 1
 40 0 l 1
 474 700 l 1
553 770 m 1
 493 770 l 1
 596 910 l 1
 696 910 l 1
 553 770 l 1
EndSplineSet
EndChar

StartChar: Acircumflex
Encoding: 194 194 136
Width: 800
VWidth: 0
Flags: HMW
LayerCount: 2
Fore
SplineSet
474 700 m 1
 554 700 l 1
 542 690 l 1
 472 690 l 1
 474 700 l 1
246 260 m 1
 638 260 l 1
 626 185 l 1
 234 185 l 1
 246 260 l 1
670 0 m 1
 472 690 l 1
 554 700 l 1
 760 0 l 1
 670 0 l 1
474 700 m 1
 552 690 l 1
 130 0 l 1
 40 0 l 1
 474 700 l 1
588 770 m 1
 504 870 l 1
 574 870 l 1
 658 770 l 1
 588 770 l 1
504 870 m 1
 574 870 l 1
 458 770 l 1
 388 770 l 1
 504 870 l 1
EndSplineSet
EndChar

StartChar: Atilde
Encoding: 195 195 137
Width: 800
VWidth: 0
Flags: HMW
LayerCount: 2
Fore
SplineSet
474 700 m 1
 554 700 l 1
 542 690 l 1
 472 690 l 1
 474 700 l 1
246 260 m 1
 638 260 l 1
 626 185 l 1
 234 185 l 1
 246 260 l 1
670 0 m 1
 472 690 l 1
 554 700 l 1
 760 0 l 1
 670 0 l 1
474 700 m 1
 552 690 l 1
 130 0 l 1
 40 0 l 1
 474 700 l 1
403 770 m 1
 336 790 l 1
 353 868 407 907 458 907 c 0
 522 907 567 843 611 843 c 0
 656 843 670 873 676 910 c 1
 732 890 l 1
 713 802 662 773 612 773 c 0
 550 773 509 837 466 837 c 0
 422 837 409 807 403 770 c 1
EndSplineSet
EndChar

StartChar: Adieresis
Encoding: 196 196 138
Width: 800
VWidth: 0
Flags: HMW
LayerCount: 2
Fore
SplineSet
474 700 m 1
 554 700 l 1
 542 690 l 1
 472 690 l 1
 474 700 l 1
246 260 m 1
 638 260 l 1
 626 185 l 1
 234 185 l 1
 246 260 l 1
670 0 m 1
 472 690 l 1
 554 700 l 1
 760 0 l 1
 670 0 l 1
474 700 m 1
 552 690 l 1
 130 0 l 1
 40 0 l 1
 474 700 l 1
358 835 m 0
 364 871 398 900 434 900 c 0
 470 900 494 871 488 835 c 0
 482 799 449 770 413 770 c 0
 377 770 352 799 358 835 c 0
578 835 m 0
 584 871 618 900 654 900 c 0
 690 900 714 871 708 835 c 0
 702 799 669 770 633 770 c 0
 597 770 572 799 578 835 c 0
EndSplineSet
EndChar

StartChar: Aring
Encoding: 197 197 139
Width: 800
VWidth: 0
Flags: HMW
LayerCount: 2
Fore
SplineSet
474 700 m 1
 554 700 l 1
 542 690 l 1
 472 690 l 1
 474 700 l 1
246 260 m 1
 638 260 l 1
 626 185 l 1
 234 185 l 1
 246 260 l 1
670 0 m 1
 472 690 l 1
 554 700 l 1
 760 0 l 1
 670 0 l 1
474 700 m 1
 552 690 l 1
 130 0 l 1
 40 0 l 1
 474 700 l 1
471 760 m 0
 466 731 484 710 513 710 c 0
 542 710 566 731 571 760 c 0
 576 789 558 810 529 810 c 4
 500 810 476 789 471 760 c 0
421 760 m 0
 430 815 483 860 538 860 c 0
 593 860 630 815 621 760 c 0
 612 705 560 660 505 660 c 0
 450 660 412 705 421 760 c 0
EndSplineSet
EndChar

StartChar: Ccedilla
Encoding: 199 199 140
Width: 732
VWidth: 0
Flags: HM
LayerCount: 2
Fore
SplineSet
217 350 m 0
 192 194 285 70 436 70 c 0
 519 70 599 110 662 171 c 5
 710 113 l 1
 633 38 529 -10 423 -10 c 0
 228 -10 95 151 127 350 c 0
 159 549 346 710 541 710 c 0
 647 710 735 662 788 587 c 1
 720 529 l 1
 677 590 611 630 528 630 c 0
 377 630 242 506 217 350 c 0
405 -3 m 5
 445 -3 l 5
 489 -37 547 -77 538 -135 c 4
 530 -182 503 -217 436 -217 c 4
 399 -217 363 -203 344 -188 c 5
 369 -158 l 5
 378 -161 396 -173 426 -173 c 4
 457 -173 483 -164 488 -132 c 4
 494 -97 446 -42 405 -3 c 5
EndSplineSet
EndChar

StartChar: Egrave
Encoding: 200 200 141
Width: 670
VWidth: 0
Flags: HM
LayerCount: 2
Fore
SplineSet
165 398 m 1
 625 398 l 1
 612 318 l 1
 152 318 l 1
 165 398 l 1
214 700 m 1
 724 700 l 1
 711 620 l 1
 201 620 l 1
 214 700 l 1
113 80 m 1
 623 80 l 1
 610 0 l 1
 100 0 l 1
 113 80 l 1
214 700 m 1
 304 700 l 5
 190 0 l 5
 100 0 l 1
 214 700 l 1
450 770 m 1
 353 910 l 1
 453 910 l 1
 510 770 l 1
 450 770 l 1
EndSplineSet
EndChar

StartChar: Eacute
Encoding: 201 201 142
Width: 670
VWidth: 0
Flags: HM
LayerCount: 2
Fore
SplineSet
165 398 m 1
 625 398 l 1
 612 318 l 1
 152 318 l 1
 165 398 l 1
214 700 m 1
 724 700 l 1
 711 620 l 1
 201 620 l 1
 214 700 l 1
113 80 m 1
 623 80 l 1
 610 0 l 1
 100 0 l 1
 113 80 l 1
214 700 m 1
 304 700 l 5
 190 0 l 5
 100 0 l 1
 214 700 l 1
510 770 m 1
 450 770 l 1
 553 910 l 1
 653 910 l 1
 510 770 l 1
EndSplineSet
EndChar

StartChar: Ecircumflex
Encoding: 202 202 143
Width: 670
VWidth: 0
Flags: HM
LayerCount: 2
Fore
SplineSet
165 398 m 1
 625 398 l 1
 612 318 l 1
 152 318 l 1
 165 398 l 1
214 700 m 1
 724 700 l 1
 711 620 l 1
 201 620 l 1
 214 700 l 1
113 80 m 1
 623 80 l 1
 610 0 l 1
 100 0 l 1
 113 80 l 1
214 700 m 1
 304 700 l 5
 190 0 l 5
 100 0 l 1
 214 700 l 1
545 770 m 1
 462 870 l 1
 532 870 l 1
 615 770 l 1
 545 770 l 1
462 870 m 1
 532 870 l 1
 415 770 l 1
 345 770 l 1
 462 870 l 1
EndSplineSet
EndChar

StartChar: Edieresis
Encoding: 203 203 144
Width: 670
VWidth: 0
Flags: HM
LayerCount: 2
Fore
SplineSet
165 398 m 1
 625 398 l 1
 612 318 l 1
 152 318 l 1
 165 398 l 1
214 700 m 1
 724 700 l 1
 711 620 l 1
 201 620 l 1
 214 700 l 1
113 80 m 1
 623 80 l 1
 610 0 l 1
 100 0 l 1
 113 80 l 1
214 700 m 1
 304 700 l 5
 190 0 l 5
 100 0 l 1
 214 700 l 1
316 835 m 0
 322 871 356 900 392 900 c 0
 428 900 452 871 446 835 c 0
 440 799 406 770 370 770 c 0
 334 770 310 799 316 835 c 0
536 835 m 0
 542 871 576 900 612 900 c 0
 648 900 672 871 666 835 c 0
 660 799 626 770 590 770 c 0
 554 770 530 799 536 835 c 0
EndSplineSet
EndChar

StartChar: Igrave
Encoding: 204 204 145
Width: 300
VWidth: 0
Flags: HMW
LayerCount: 2
Fore
SplineSet
219 700 m 1
 309 700 l 1
 195 0 l 1
 105 0 l 1
 219 700 l 1
243 770 m 1
 146 910 l 1
 246 910 l 1
 303 770 l 1
 243 770 l 1
EndSplineSet
EndChar

StartChar: Iacute
Encoding: 205 205 146
Width: 300
VWidth: 0
Flags: HMW
LayerCount: 2
Fore
SplineSet
219 700 m 1
 309 700 l 1
 195 0 l 1
 105 0 l 1
 219 700 l 1
303 770 m 1
 243 770 l 1
 346 910 l 1
 446 910 l 1
 303 770 l 1
EndSplineSet
EndChar

StartChar: Icircumflex
Encoding: 206 206 147
Width: 300
VWidth: 0
Flags: HMW
LayerCount: 2
Fore
SplineSet
219 700 m 1
 309 700 l 1
 195 0 l 1
 105 0 l 1
 219 700 l 1
338 770 m 1
 254 870 l 1
 324 870 l 1
 408 770 l 1
 338 770 l 1
254 870 m 1
 324 870 l 1
 208 770 l 1
 138 770 l 1
 254 870 l 1
EndSplineSet
EndChar

StartChar: Idieresis
Encoding: 207 207 148
Width: 300
VWidth: 0
Flags: HMW
LayerCount: 2
Fore
SplineSet
219 700 m 1
 309 700 l 1
 195 0 l 1
 105 0 l 1
 219 700 l 1
108 835 m 0
 114 871 148 900 184 900 c 0
 220 900 244 871 238 835 c 0
 232 799 199 770 163 770 c 0
 127 770 102 799 108 835 c 0
328 835 m 0
 334 871 368 900 404 900 c 0
 440 900 464 871 458 835 c 0
 452 799 419 770 383 770 c 0
 347 770 322 799 328 835 c 0
EndSplineSet
EndChar

StartChar: Ntilde
Encoding: 209 209 149
Width: 790
VWidth: 0
Flags: HMW
LayerCount: 2
Fore
SplineSet
690 0 m 1
 610 0 l 1
 614 24 l 1
 692 14 l 1
 690 0 l 1
294 700 m 1
 291 680 l 1
 211 680 l 1
 214 700 l 1
 294 700 l 1
208 665 m 1
 294 700 l 1
 696 35 l 1
 610 0 l 1
 208 665 l 1
714 700 m 1
 804 700 l 1
 690 0 l 1
 603 20 l 1
 714 700 l 1
214 700 m 1
 301 680 l 1
 190 0 l 1
 100 0 l 1
 214 700 l 1
395 770 m 1
 329 790 l 1
 346 868 400 907 451 907 c 0
 515 907 560 843 604 843 c 0
 649 843 662 873 668 910 c 1
 725 890 l 1
 706 802 655 773 605 773 c 0
 543 773 502 837 459 837 c 0
 415 837 401 807 395 770 c 1
EndSplineSet
EndChar

StartChar: Ograve
Encoding: 210 210 150
Width: 850
VWidth: 0
Flags: HM
LayerCount: 2
Fore
SplineSet
217 350 m 0
 192 194 285 70 436 70 c 0
 587 70 722 194 747 350 c 4
 772 506 679 630 528 630 c 0
 377 630 242 506 217 350 c 0
127 350 m 0
 159 549 346 710 541 710 c 0
 736 710 869 549 837 350 c 4
 805 151 618 -10 423 -10 c 0
 228 -10 95 151 127 350 c 0
520 770 m 1
 423 910 l 1
 523 910 l 1
 580 770 l 1
 520 770 l 1
EndSplineSet
EndChar

StartChar: Oacute
Encoding: 211 211 151
Width: 850
VWidth: 0
Flags: HM
LayerCount: 2
Fore
SplineSet
217 350 m 0
 192 194 285 70 436 70 c 0
 587 70 722 194 747 350 c 4
 772 506 679 630 528 630 c 0
 377 630 242 506 217 350 c 0
127 350 m 0
 159 549 346 710 541 710 c 0
 736 710 869 549 837 350 c 4
 805 151 618 -10 423 -10 c 0
 228 -10 95 151 127 350 c 0
580 770 m 1
 520 770 l 1
 623 910 l 1
 723 910 l 1
 580 770 l 1
EndSplineSet
EndChar

StartChar: Ocircumflex
Encoding: 212 212 152
Width: 850
VWidth: 0
Flags: HM
LayerCount: 2
Fore
SplineSet
217 350 m 0
 192 194 285 70 436 70 c 0
 587 70 722 194 747 350 c 4
 772 506 679 630 528 630 c 0
 377 630 242 506 217 350 c 0
127 350 m 0
 159 549 346 710 541 710 c 0
 736 710 869 549 837 350 c 4
 805 151 618 -10 423 -10 c 0
 228 -10 95 151 127 350 c 0
615 770 m 1
 532 870 l 1
 602 870 l 1
 685 770 l 1
 615 770 l 1
532 870 m 1
 602 870 l 1
 485 770 l 1
 415 770 l 1
 532 870 l 1
EndSplineSet
EndChar

StartChar: Otilde
Encoding: 213 213 153
Width: 850
VWidth: 0
Flags: HM
LayerCount: 2
Fore
SplineSet
217 350 m 0
 192 194 285 70 436 70 c 0
 587 70 722 194 747 350 c 4
 772 506 679 630 528 630 c 0
 377 630 242 506 217 350 c 0
127 350 m 0
 159 549 346 710 541 710 c 0
 736 710 869 549 837 350 c 4
 805 151 618 -10 423 -10 c 0
 228 -10 95 151 127 350 c 0
430 770 m 1
 364 790 l 1
 381 868 435 907 486 907 c 0
 550 907 595 843 639 843 c 0
 684 843 697 873 703 910 c 1
 760 890 l 1
 741 802 690 773 640 773 c 0
 578 773 537 837 494 837 c 0
 450 837 436 807 430 770 c 1
EndSplineSet
EndChar

StartChar: Odieresis
Encoding: 214 214 154
Width: 850
VWidth: 0
Flags: HM
LayerCount: 2
Fore
SplineSet
217 350 m 0
 192 194 285 70 436 70 c 0
 587 70 722 194 747 350 c 4
 772 506 679 630 528 630 c 0
 377 630 242 506 217 350 c 0
127 350 m 0
 159 549 346 710 541 710 c 0
 736 710 869 549 837 350 c 4
 805 151 618 -10 423 -10 c 0
 228 -10 95 151 127 350 c 0
386 835 m 0
 392 871 426 900 462 900 c 0
 498 900 522 871 516 835 c 0
 510 799 476 770 440 770 c 0
 404 770 380 799 386 835 c 0
606 835 m 0
 612 871 646 900 682 900 c 0
 718 900 742 871 736 835 c 0
 730 799 696 770 660 770 c 0
 624 770 600 799 606 835 c 0
EndSplineSet
EndChar

StartChar: Ugrave
Encoding: 217 217 155
Width: 760
VWidth: 0
Flags: HM
LayerCount: 2
Fore
SplineSet
631 280 m 5
 699 700 l 5
 784 700 l 1
 716 280 l 1
 631 280 l 5
136 280 m 1
 204 700 l 1
 289 700 l 1
 221 280 l 1
 136 280 l 1
631 280 m 5
 716 280 l 1
 688 111 537 -10 378 -10 c 0
 219 -10 108 111 136 280 c 1
 221 280 l 1
 202 161 274 65 391 65 c 0
 508 65 612 161 631 280 c 5
475 770 m 1
 378 910 l 1
 478 910 l 1
 535 770 l 1
 475 770 l 1
EndSplineSet
EndChar

StartChar: Uacute
Encoding: 218 218 156
Width: 760
VWidth: 0
Flags: HM
LayerCount: 2
Fore
SplineSet
631 280 m 5
 699 700 l 5
 784 700 l 1
 716 280 l 1
 631 280 l 5
136 280 m 1
 204 700 l 1
 289 700 l 1
 221 280 l 1
 136 280 l 1
631 280 m 5
 716 280 l 1
 688 111 537 -10 378 -10 c 0
 219 -10 108 111 136 280 c 1
 221 280 l 1
 202 161 274 65 391 65 c 0
 508 65 612 161 631 280 c 5
535 770 m 1
 475 770 l 1
 578 910 l 1
 678 910 l 1
 535 770 l 1
EndSplineSet
EndChar

StartChar: Ucircumflex
Encoding: 219 219 157
Width: 760
VWidth: 0
Flags: HM
LayerCount: 2
Fore
SplineSet
631 280 m 5
 699 700 l 5
 784 700 l 1
 716 280 l 1
 631 280 l 5
136 280 m 1
 204 700 l 1
 289 700 l 1
 221 280 l 1
 136 280 l 1
631 280 m 5
 716 280 l 1
 688 111 537 -10 378 -10 c 0
 219 -10 108 111 136 280 c 1
 221 280 l 1
 202 161 274 65 391 65 c 0
 508 65 612 161 631 280 c 5
570 770 m 1
 487 870 l 1
 557 870 l 1
 640 770 l 1
 570 770 l 1
487 870 m 1
 557 870 l 1
 440 770 l 1
 370 770 l 1
 487 870 l 1
EndSplineSet
EndChar

StartChar: Udieresis
Encoding: 220 220 158
Width: 760
VWidth: 0
Flags: HM
LayerCount: 2
Fore
SplineSet
631 280 m 5
 699 700 l 5
 784 700 l 1
 716 280 l 1
 631 280 l 5
136 280 m 1
 204 700 l 1
 289 700 l 1
 221 280 l 1
 136 280 l 1
631 280 m 5
 716 280 l 1
 688 111 537 -10 378 -10 c 0
 219 -10 108 111 136 280 c 1
 221 280 l 1
 202 161 274 65 391 65 c 0
 508 65 612 161 631 280 c 5
341 835 m 0
 347 871 381 900 417 900 c 0
 453 900 477 871 471 835 c 0
 465 799 431 770 395 770 c 0
 359 770 335 799 341 835 c 0
561 835 m 0
 567 871 601 900 637 900 c 0
 673 900 697 871 691 835 c 0
 685 799 651 770 615 770 c 0
 579 770 555 799 561 835 c 0
EndSplineSet
EndChar

StartChar: Yacute
Encoding: 221 221 159
Width: 680
VWidth: 0
Flags: HMW
LayerCount: 2
Fore
SplineSet
343 295 m 1
 433 295 l 1
 385 0 l 1
 295 0 l 1
 343 295 l 1
144 700 m 1
 244 700 l 1
 433 295 l 1
 370 217 l 1
 144 700 l 1
664 700 m 1
 764 700 l 1
 380 217 l 1
 343 295 l 1
 664 700 l 1
493 770 m 1
 433 770 l 1
 536 910 l 1
 636 910 l 1
 493 770 l 1
EndSplineSet
EndChar

StartChar: agrave
Encoding: 224 224 160
Width: 580
VWidth: 0
Flags: HMW
LayerCount: 2
Fore
SplineSet
371 312 m 1
 521 312 l 1
 510 248 l 1
 390 248 l 1
 371 312 l 1
474 330 m 1
 487 410 468 455 362 455 c 1
 380 530 l 1
 523 530 578 449 559 330 c 1
 474 330 l 1
362 455 m 1
 288 455 246 432 190 392 c 1
 153 450 l 1
 218 499 278 530 380 530 c 1
 362 455 l 1
474 330 m 1
 559 330 l 1
 505 0 l 1
 420 0 l 1
 474 330 l 1
153 155 m 1
 144 97 178 65 281 65 c 0
 359 65 436 100 449 180 c 1
 484 180 l 1
 466 71 377 -10 238 -10 c 0
 139 -10 50 41 69 160 c 1
 153 155 l 1
371 312 m 1
 390 248 l 1
 241 248 167 240 153 155 c 1
 69 160 l 1
 91 295 234 312 371 312 c 1
360 590 m 1
 263 730 l 1
 363 730 l 1
 420 590 l 1
 360 590 l 1
EndSplineSet
EndChar

StartChar: aacute
Encoding: 225 225 161
Width: 580
VWidth: 0
Flags: HMW
LayerCount: 2
Fore
SplineSet
371 312 m 1
 521 312 l 1
 510 248 l 1
 390 248 l 1
 371 312 l 1
474 330 m 1
 487 410 468 455 362 455 c 1
 380 530 l 1
 523 530 578 449 559 330 c 1
 474 330 l 1
362 455 m 1
 288 455 246 432 190 392 c 1
 153 450 l 1
 218 499 278 530 380 530 c 1
 362 455 l 1
474 330 m 1
 559 330 l 1
 505 0 l 1
 420 0 l 1
 474 330 l 1
153 155 m 1
 144 97 178 65 281 65 c 0
 359 65 436 100 449 180 c 1
 484 180 l 1
 466 71 377 -10 238 -10 c 0
 139 -10 50 41 69 160 c 1
 153 155 l 1
371 312 m 1
 390 248 l 1
 241 248 167 240 153 155 c 1
 69 160 l 1
 91 295 234 312 371 312 c 1
420 590 m 1
 360 590 l 1
 463 730 l 1
 563 730 l 1
 420 590 l 1
EndSplineSet
EndChar

StartChar: acircumflex
Encoding: 226 226 162
Width: 580
VWidth: 0
Flags: HMW
LayerCount: 2
Fore
SplineSet
371 312 m 1
 521 312 l 1
 510 248 l 1
 390 248 l 1
 371 312 l 1
474 330 m 1
 487 410 468 455 362 455 c 1
 380 530 l 1
 523 530 578 449 559 330 c 1
 474 330 l 1
362 455 m 1
 288 455 246 432 190 392 c 1
 153 450 l 1
 218 499 278 530 380 530 c 1
 362 455 l 1
474 330 m 1
 559 330 l 1
 505 0 l 1
 420 0 l 1
 474 330 l 1
153 155 m 1
 144 97 178 65 281 65 c 0
 359 65 436 100 449 180 c 1
 484 180 l 1
 466 71 377 -10 238 -10 c 0
 139 -10 50 41 69 160 c 1
 153 155 l 1
371 312 m 1
 390 248 l 1
 241 248 167 240 153 155 c 1
 69 160 l 1
 91 295 234 312 371 312 c 1
455 590 m 1
 371 690 l 1
 441 690 l 1
 525 590 l 1
 455 590 l 1
371 690 m 1
 441 690 l 1
 325 590 l 1
 255 590 l 1
 371 690 l 1
EndSplineSet
EndChar

StartChar: atilde
Encoding: 227 227 163
Width: 580
VWidth: 0
Flags: HMW
LayerCount: 2
Fore
SplineSet
371 312 m 1
 521 312 l 1
 510 248 l 1
 390 248 l 1
 371 312 l 1
474 330 m 1
 487 410 468 455 362 455 c 1
 380 530 l 1
 523 530 578 449 559 330 c 1
 474 330 l 1
362 455 m 1
 288 455 246 432 190 392 c 1
 153 450 l 1
 218 499 278 530 380 530 c 1
 362 455 l 1
474 330 m 1
 559 330 l 1
 505 0 l 1
 420 0 l 1
 474 330 l 1
153 155 m 1
 144 97 178 65 281 65 c 0
 359 65 436 100 449 180 c 1
 484 180 l 1
 466 71 377 -10 238 -10 c 0
 139 -10 50 41 69 160 c 1
 153 155 l 1
371 312 m 1
 390 248 l 1
 241 248 167 240 153 155 c 1
 69 160 l 1
 91 295 234 312 371 312 c 1
270 590 m 1
 203 610 l 1
 220 688 275 727 326 727 c 0
 390 727 435 663 479 663 c 0
 524 663 537 693 543 730 c 1
 600 710 l 1
 581 622 529 593 479 593 c 0
 417 593 376 657 333 657 c 0
 289 657 276 627 270 590 c 1
EndSplineSet
EndChar

StartChar: adieresis
Encoding: 228 228 164
Width: 580
VWidth: 0
Flags: HMW
LayerCount: 2
Fore
SplineSet
371 312 m 1
 521 312 l 1
 510 248 l 1
 390 248 l 1
 371 312 l 1
474 330 m 1
 487 410 468 455 362 455 c 1
 380 530 l 1
 523 530 578 449 559 330 c 1
 474 330 l 1
362 455 m 1
 288 455 246 432 190 392 c 1
 153 450 l 1
 218 499 278 530 380 530 c 1
 362 455 l 1
474 330 m 1
 559 330 l 1
 505 0 l 1
 420 0 l 1
 474 330 l 1
153 155 m 1
 144 97 178 65 281 65 c 0
 359 65 436 100 449 180 c 1
 484 180 l 1
 466 71 377 -10 238 -10 c 0
 139 -10 50 41 69 160 c 1
 153 155 l 1
371 312 m 1
 390 248 l 1
 241 248 167 240 153 155 c 1
 69 160 l 1
 91 295 234 312 371 312 c 1
226 655 m 0
 232 691 265 720 301 720 c 0
 337 720 362 691 356 655 c 0
 350 619 316 590 280 590 c 0
 244 590 220 619 226 655 c 0
446 655 m 0
 452 691 485 720 521 720 c 0
 557 720 582 691 576 655 c 0
 570 619 536 590 500 590 c 0
 464 590 440 619 446 655 c 0
EndSplineSet
EndChar

StartChar: aring
Encoding: 229 229 165
Width: 580
VWidth: 0
Flags: HMW
LayerCount: 2
Fore
SplineSet
371 312 m 1
 521 312 l 1
 510 248 l 1
 390 248 l 1
 371 312 l 1
474 330 m 1
 487 410 468 455 362 455 c 1
 380 530 l 1
 523 530 578 449 559 330 c 1
 474 330 l 1
362 455 m 1
 288 455 246 432 190 392 c 1
 153 450 l 1
 218 499 278 530 380 530 c 1
 362 455 l 1
474 330 m 1
 559 330 l 1
 505 0 l 1
 420 0 l 1
 474 330 l 1
153 155 m 1
 144 97 178 65 281 65 c 0
 359 65 436 100 449 180 c 1
 484 180 l 1
 466 71 377 -10 238 -10 c 0
 139 -10 50 41 69 160 c 1
 153 155 l 1
371 312 m 1
 390 248 l 1
 241 248 167 240 153 155 c 1
 69 160 l 1
 91 295 234 312 371 312 c 1
356 690 m 0
 351 661 369 640 398 640 c 0
 427 640 451 661 456 690 c 0
 461 719 444 740 415 740 c 4
 386 740 361 719 356 690 c 0
306 690 m 0
 315 745 368 790 423 790 c 0
 478 790 515 745 506 690 c 0
 497 635 445 590 390 590 c 0
 335 590 297 635 306 690 c 0
EndSplineSet
EndChar

StartChar: ccedilla
Encoding: 231 231 166
Width: 573
VWidth: 0
Flags: HM
LayerCount: 2
Fore
SplineSet
182 260 m 4
 164 151 229 65 336 65 c 4
 400 65 459 96 504 145 c 5
 548 92 l 5
 491 28 410 -10 323 -10 c 4
 174 -10 73 111 97 260 c 4
 121 409 262 530 411 530 c 4
 498 530 565 491 602 428 c 5
 541 375 l 5
 512 424 463 455 399 455 c 4
 292 455 200 369 182 260 c 4
305 -3 m 5
 345 -3 l 5
 389 -37 447 -77 438 -135 c 4
 430 -182 403 -217 336 -217 c 4
 299 -217 263 -203 244 -188 c 5
 269 -158 l 5
 278 -161 296 -173 326 -173 c 4
 357 -173 383 -164 388 -132 c 4
 394 -97 346 -42 305 -3 c 5
EndSplineSet
EndChar

StartChar: egrave
Encoding: 232 232 167
Width: 615
VWidth: 0
Flags: HMW
LayerCount: 2
Fore
SplineSet
607 260 m 1
 602 230 l 1
 517 230 l 1
 522 260 l 1
 607 260 l 1
517 230 m 1
 151 230 l 1
 162 297 l 1
 528 297 l 1
 517 230 l 1
522 260 m 1
 541 379 491 455 384 455 c 0
 277 455 201 379 182 260 c 1
 97 260 l 1
 123 419 257 530 396 530 c 0
 535 530 633 419 607 260 c 1
 522 260 l 1
97 260 m 1
 182 260 l 1
 163 141 224 65 331 65 c 0
 395 65 462 98 507 147 c 1
 553 92 l 1
 496 28 405 -10 318 -10 c 0
 169 -10 71 101 97 260 c 1
371 590 m 1
 274 730 l 1
 374 730 l 1
 431 590 l 1
 371 590 l 1
EndSplineSet
EndChar

StartChar: eacute
Encoding: 233 233 168
Width: 615
VWidth: 0
Flags: HMW
LayerCount: 2
Fore
SplineSet
607 260 m 1
 602 230 l 1
 517 230 l 1
 522 260 l 1
 607 260 l 1
517 230 m 1
 151 230 l 1
 162 297 l 1
 528 297 l 1
 517 230 l 1
522 260 m 1
 541 379 491 455 384 455 c 0
 277 455 201 379 182 260 c 1
 97 260 l 1
 123 419 257 530 396 530 c 0
 535 530 633 419 607 260 c 1
 522 260 l 1
97 260 m 1
 182 260 l 1
 163 141 224 65 331 65 c 0
 395 65 462 98 507 147 c 1
 553 92 l 1
 496 28 405 -10 318 -10 c 0
 169 -10 71 101 97 260 c 1
431 590 m 1
 371 590 l 1
 474 730 l 1
 574 730 l 1
 431 590 l 1
EndSplineSet
EndChar

StartChar: ecircumflex
Encoding: 234 234 169
Width: 615
VWidth: 0
Flags: HMW
LayerCount: 2
Fore
SplineSet
607 260 m 1
 602 230 l 1
 517 230 l 1
 522 260 l 1
 607 260 l 1
517 230 m 1
 151 230 l 1
 162 297 l 1
 528 297 l 1
 517 230 l 1
522 260 m 1
 541 379 491 455 384 455 c 0
 277 455 201 379 182 260 c 1
 97 260 l 1
 123 419 257 530 396 530 c 0
 535 530 633 419 607 260 c 1
 522 260 l 1
97 260 m 1
 182 260 l 1
 163 141 224 65 331 65 c 0
 395 65 462 98 507 147 c 1
 553 92 l 1
 496 28 405 -10 318 -10 c 0
 169 -10 71 101 97 260 c 1
466 590 m 1
 382 690 l 1
 452 690 l 1
 536 590 l 1
 466 590 l 1
382 690 m 1
 452 690 l 1
 336 590 l 1
 266 590 l 1
 382 690 l 1
EndSplineSet
EndChar

StartChar: edieresis
Encoding: 235 235 170
Width: 615
VWidth: 0
Flags: HMW
LayerCount: 2
Fore
SplineSet
607 260 m 1
 602 230 l 1
 517 230 l 1
 522 260 l 1
 607 260 l 1
517 230 m 1
 151 230 l 1
 162 297 l 1
 528 297 l 1
 517 230 l 1
522 260 m 1
 541 379 491 455 384 455 c 0
 277 455 201 379 182 260 c 1
 97 260 l 1
 123 419 257 530 396 530 c 0
 535 530 633 419 607 260 c 1
 522 260 l 1
97 260 m 1
 182 260 l 1
 163 141 224 65 331 65 c 0
 395 65 462 98 507 147 c 1
 553 92 l 1
 496 28 405 -10 318 -10 c 0
 169 -10 71 101 97 260 c 1
237 655 m 0
 243 691 276 720 312 720 c 0
 348 720 373 691 367 655 c 0
 361 619 327 590 291 590 c 0
 255 590 231 619 237 655 c 0
457 655 m 0
 463 691 496 720 532 720 c 0
 568 720 593 691 587 655 c 0
 581 619 547 590 511 590 c 0
 475 590 451 619 457 655 c 0
EndSplineSet
EndChar

StartChar: igrave
Encoding: 236 236 171
Width: 250
VWidth: 0
Flags: HMW
LayerCount: 2
Fore
SplineSet
170 520 m 1
 250 520 l 1
 165 0 l 1
 85 0 l 1
 170 520 l 1
191 590 m 1
 94 730 l 1
 194 730 l 1
 251 590 l 1
 191 590 l 1
EndSplineSet
EndChar

StartChar: iacute
Encoding: 237 237 172
Width: 250
VWidth: 0
Flags: HMW
LayerCount: 2
Fore
SplineSet
170 520 m 1
 250 520 l 1
 165 0 l 1
 85 0 l 1
 170 520 l 1
251 590 m 1
 191 590 l 1
 294 730 l 1
 394 730 l 1
 251 590 l 1
EndSplineSet
EndChar

StartChar: icircumflex
Encoding: 238 238 173
Width: 250
VWidth: 0
Flags: HMW
LayerCount: 2
Fore
SplineSet
170 520 m 1
 250 520 l 1
 165 0 l 1
 85 0 l 1
 170 520 l 1
286 590 m 1
 202 690 l 1
 272 690 l 1
 356 590 l 1
 286 590 l 1
202 690 m 1
 272 690 l 1
 156 590 l 1
 86 590 l 1
 202 690 l 1
EndSplineSet
EndChar

StartChar: idieresis
Encoding: 239 239 174
Width: 250
VWidth: 0
Flags: HMW
LayerCount: 2
Fore
SplineSet
170 520 m 1
 250 520 l 1
 165 0 l 1
 85 0 l 1
 170 520 l 1
57 655 m 0
 63 691 96 720 132 720 c 0
 168 720 193 691 187 655 c 0
 181 619 147 590 111 590 c 0
 75 590 51 619 57 655 c 0
277 655 m 0
 283 691 316 720 352 720 c 0
 388 720 413 691 407 655 c 0
 401 619 367 590 331 590 c 0
 295 590 271 619 277 655 c 0
EndSplineSet
EndChar

StartChar: ntilde
Encoding: 241 241 175
Width: 635
VWidth: 0
Flags: HMW
LayerCount: 2
Fore
SplineSet
604 300 m 1
 555 0 l 1
 470 0 l 5
 519 300 l 5
 604 300 l 1
170 520 m 1
 255 520 l 1
 170 0 l 1
 85 0 l 1
 170 520 l 1
519 300 m 5
 534 390 514 455 404 455 c 0
 306 455 234 390 216 280 c 1
 181 280 l 1
 204 419 297 530 436 530 c 0
 565 530 625 429 604 300 c 1
 519 300 l 5
294 590 m 1
 227 610 l 1
 244 688 298 727 349 727 c 0
 413 727 458 663 502 663 c 0
 547 663 560 693 566 730 c 1
 623 710 l 1
 604 622 553 593 503 593 c 0
 441 593 400 657 357 657 c 0
 313 657 300 627 294 590 c 1
EndSplineSet
EndChar

StartChar: ograve
Encoding: 242 242 176
Width: 650
VWidth: 0
Flags: HM
LayerCount: 2
Fore
SplineSet
182 260 m 0
 164 151 229 65 336 65 c 0
 443 65 534 151 552 260 c 4
 570 369 506 455 399 455 c 0
 292 455 200 369 182 260 c 0
97 260 m 0
 121 409 262 530 411 530 c 0
 560 530 661 409 637 260 c 0
 613 111 472 -10 323 -10 c 0
 174 -10 73 111 97 260 c 0
391 590 m 1
 294 730 l 1
 394 730 l 1
 451 590 l 1
 391 590 l 1
EndSplineSet
EndChar

StartChar: oacute
Encoding: 243 243 177
Width: 650
VWidth: 0
Flags: HM
LayerCount: 2
Fore
SplineSet
182 260 m 0
 164 151 229 65 336 65 c 0
 443 65 534 151 552 260 c 4
 570 369 506 455 399 455 c 0
 292 455 200 369 182 260 c 0
97 260 m 0
 121 409 262 530 411 530 c 0
 560 530 661 409 637 260 c 0
 613 111 472 -10 323 -10 c 0
 174 -10 73 111 97 260 c 0
451 590 m 1
 391 590 l 1
 494 730 l 1
 594 730 l 1
 451 590 l 1
EndSplineSet
EndChar

StartChar: ocircumflex
Encoding: 244 244 178
Width: 650
VWidth: 0
Flags: HM
LayerCount: 2
Fore
SplineSet
182 260 m 0
 164 151 229 65 336 65 c 0
 443 65 534 151 552 260 c 4
 570 369 506 455 399 455 c 0
 292 455 200 369 182 260 c 0
97 260 m 0
 121 409 262 530 411 530 c 0
 560 530 661 409 637 260 c 0
 613 111 472 -10 323 -10 c 0
 174 -10 73 111 97 260 c 0
486 590 m 1
 402 690 l 1
 472 690 l 1
 556 590 l 1
 486 590 l 1
402 690 m 1
 472 690 l 1
 356 590 l 1
 286 590 l 1
 402 690 l 1
EndSplineSet
EndChar

StartChar: otilde
Encoding: 245 245 179
Width: 650
VWidth: 0
Flags: HM
LayerCount: 2
Fore
SplineSet
182 260 m 0
 164 151 229 65 336 65 c 0
 443 65 534 151 552 260 c 4
 570 369 506 455 399 455 c 0
 292 455 200 369 182 260 c 0
97 260 m 0
 121 409 262 530 411 530 c 0
 560 530 661 409 637 260 c 0
 613 111 472 -10 323 -10 c 0
 174 -10 73 111 97 260 c 0
301 590 m 1
 234 610 l 1
 251 688 306 727 357 727 c 0
 421 727 466 663 510 663 c 0
 555 663 568 693 574 730 c 1
 631 710 l 1
 612 622 560 593 510 593 c 0
 448 593 407 657 364 657 c 0
 320 657 307 627 301 590 c 1
EndSplineSet
EndChar

StartChar: odieresis
Encoding: 246 246 180
Width: 650
VWidth: 0
Flags: HM
LayerCount: 2
Fore
SplineSet
182 260 m 0
 164 151 229 65 336 65 c 0
 443 65 534 151 552 260 c 4
 570 369 506 455 399 455 c 0
 292 455 200 369 182 260 c 0
97 260 m 0
 121 409 262 530 411 530 c 0
 560 530 661 409 637 260 c 0
 613 111 472 -10 323 -10 c 0
 174 -10 73 111 97 260 c 0
257 655 m 0
 263 691 296 720 332 720 c 0
 368 720 393 691 387 655 c 0
 381 619 347 590 311 590 c 0
 275 590 251 619 257 655 c 0
477 655 m 0
 483 691 516 720 552 720 c 0
 588 720 613 691 607 655 c 0
 601 619 567 590 531 590 c 0
 495 590 471 619 477 655 c 0
EndSplineSet
EndChar

StartChar: ugrave
Encoding: 249 249 181
Width: 635
VWidth: 0
Flags: HMW
LayerCount: 2
Fore
SplineSet
116 220 m 1
 165 520 l 1
 250 520 l 1
 201 220 l 1
 116 220 l 1
550 0 m 1
 465 0 l 1
 550 520 l 1
 635 520 l 1
 550 0 l 1
201 220 m 1
 186 130 206 65 316 65 c 0
 414 65 486 130 504 240 c 1
 539 240 l 1
 516 101 422 -10 283 -10 c 0
 154 -10 95 91 116 220 c 1
 201 220 l 1
379 590 m 1
 281 730 l 1
 381 730 l 1
 439 590 l 1
 379 590 l 1
EndSplineSet
EndChar

StartChar: uacute
Encoding: 250 250 182
Width: 635
VWidth: 0
Flags: HMW
LayerCount: 2
Fore
SplineSet
116 220 m 1
 165 520 l 1
 250 520 l 1
 201 220 l 1
 116 220 l 1
550 0 m 1
 465 0 l 1
 550 520 l 1
 635 520 l 1
 550 0 l 1
201 220 m 1
 186 130 206 65 316 65 c 0
 414 65 486 130 504 240 c 1
 539 240 l 1
 516 101 422 -10 283 -10 c 0
 154 -10 95 91 116 220 c 1
 201 220 l 1
439 590 m 1
 379 590 l 1
 481 730 l 1
 581 730 l 1
 439 590 l 1
EndSplineSet
EndChar

StartChar: ucircumflex
Encoding: 251 251 183
Width: 635
VWidth: 0
Flags: HMW
LayerCount: 2
Fore
SplineSet
116 220 m 1
 165 520 l 1
 250 520 l 1
 201 220 l 1
 116 220 l 1
550 0 m 1
 465 0 l 1
 550 520 l 1
 635 520 l 1
 550 0 l 1
201 220 m 1
 186 130 206 65 316 65 c 0
 414 65 486 130 504 240 c 1
 539 240 l 1
 516 101 422 -10 283 -10 c 0
 154 -10 95 91 116 220 c 1
 201 220 l 1
474 590 m 1
 390 690 l 1
 460 690 l 1
 544 590 l 1
 474 590 l 1
390 690 m 1
 460 690 l 1
 344 590 l 1
 274 590 l 1
 390 690 l 1
EndSplineSet
EndChar

StartChar: udieresis
Encoding: 252 252 184
Width: 635
VWidth: 0
Flags: HMW
LayerCount: 2
Fore
SplineSet
116 220 m 1
 165 520 l 1
 250 520 l 1
 201 220 l 1
 116 220 l 1
550 0 m 1
 465 0 l 1
 550 520 l 1
 635 520 l 1
 550 0 l 1
201 220 m 1
 186 130 206 65 316 65 c 0
 414 65 486 130 504 240 c 1
 539 240 l 1
 516 101 422 -10 283 -10 c 0
 154 -10 95 91 116 220 c 1
 201 220 l 1
244 655 m 0
 250 691 284 720 320 720 c 0
 356 720 380 691 374 655 c 0
 368 619 335 590 299 590 c 0
 263 590 238 619 244 655 c 0
464 655 m 0
 470 691 504 720 540 720 c 0
 576 720 600 691 594 655 c 0
 588 619 555 590 519 590 c 0
 483 590 458 619 464 655 c 0
EndSplineSet
EndChar

StartChar: yacute
Encoding: 253 253 185
Width: 579
VWidth: 0
Flags: HMW
LayerCount: 2
Fore
SplineSet
124 520 m 1
 214 520 l 1
 355 5 l 1
 269 0 l 1
 124 520 l 1
141 -135 m 1
 135 -210 l 1
 78 -210 32 -184 11 -150 c 1
 61 -89 l 5
 75 -108 97 -135 141 -135 c 1
234 -60 m 2
 544 520 l 1
 629 520 l 1
 319 -60 l 2
 277 -140 224 -210 135 -210 c 1
 141 -135 l 1
 179 -135 213 -100 234 -60 c 2
415 590 m 1
 355 590 l 1
 458 730 l 1
 558 730 l 1
 415 590 l 1
EndSplineSet
EndChar

StartChar: ydieresis
Encoding: 255 255 186
Width: 579
VWidth: 0
Flags: HMW
LayerCount: 2
Fore
SplineSet
124 520 m 1
 214 520 l 1
 355 5 l 1
 269 0 l 1
 124 520 l 1
141 -135 m 1
 135 -210 l 1
 78 -210 32 -184 11 -150 c 1
 61 -89 l 5
 75 -108 97 -135 141 -135 c 1
234 -60 m 2
 544 520 l 1
 629 520 l 1
 319 -60 l 2
 277 -140 224 -210 135 -210 c 1
 141 -135 l 1
 179 -135 213 -100 234 -60 c 2
221 655 m 0
 227 691 260 720 296 720 c 0
 332 720 357 691 351 655 c 0
 345 619 311 590 275 590 c 0
 239 590 215 619 221 655 c 0
441 655 m 0
 447 691 480 720 516 720 c 0
 552 720 577 691 571 655 c 0
 565 619 531 590 495 590 c 0
 459 590 435 619 441 655 c 0
EndSplineSet
EndChar

StartChar: Amacron
Encoding: 256 256 187
Width: 800
VWidth: 0
Flags: HMW
LayerCount: 2
Fore
SplineSet
474 700 m 1
 554 700 l 1
 542 690 l 1
 472 690 l 1
 474 700 l 1
246 260 m 1
 638 260 l 1
 626 185 l 1
 234 185 l 1
 246 260 l 1
670 0 m 1
 472 690 l 1
 554 700 l 1
 760 0 l 1
 670 0 l 1
474 700 m 1
 552 690 l 1
 130 0 l 1
 40 0 l 1
 474 700 l 1
384 850 m 1
 688 850 l 5
 675 770 l 5
 371 770 l 1
 384 850 l 1
EndSplineSet
EndChar

StartChar: amacron
Encoding: 257 257 188
Width: 580
VWidth: 0
Flags: HMW
LayerCount: 2
Fore
SplineSet
371 312 m 1
 521 312 l 1
 510 248 l 1
 390 248 l 1
 371 312 l 1
474 330 m 1
 487 410 468 455 362 455 c 1
 380 530 l 1
 523 530 578 449 559 330 c 1
 474 330 l 1
362 455 m 1
 288 455 246 432 190 392 c 1
 153 450 l 1
 218 499 278 530 380 530 c 1
 362 455 l 1
474 330 m 1
 559 330 l 1
 505 0 l 1
 420 0 l 1
 474 330 l 1
153 155 m 1
 144 97 178 65 281 65 c 0
 359 65 436 100 449 180 c 1
 484 180 l 1
 466 71 377 -10 238 -10 c 0
 139 -10 50 41 69 160 c 1
 153 155 l 1
371 312 m 1
 390 248 l 1
 241 248 167 240 153 155 c 1
 69 160 l 1
 91 295 234 312 371 312 c 1
251 670 m 1
 555 670 l 5
 542 590 l 5
 238 590 l 1
 251 670 l 1
EndSplineSet
EndChar

StartChar: Abreve
Encoding: 258 258 189
Width: 800
VWidth: 0
Flags: HMW
LayerCount: 2
Fore
SplineSet
474 700 m 1
 554 700 l 1
 542 690 l 1
 472 690 l 1
 474 700 l 1
246 260 m 1
 638 260 l 1
 626 185 l 1
 234 185 l 1
 246 260 l 1
670 0 m 1
 472 690 l 1
 554 700 l 1
 760 0 l 1
 670 0 l 1
474 700 m 1
 552 690 l 1
 130 0 l 1
 40 0 l 1
 474 700 l 1
536 850 m 1
 476 850 445 874 453 922 c 1
 377 916 l 1
 363 827 424 770 523 770 c 1
 536 850 l 1
536 850 m 1
 523 770 l 1
 622 770 703 827 717 916 c 1
 643 922 l 1
 635 874 596 850 536 850 c 1
EndSplineSet
EndChar

StartChar: abreve
Encoding: 259 259 190
Width: 580
VWidth: 0
Flags: HMW
LayerCount: 2
Fore
SplineSet
371 312 m 1
 521 312 l 1
 510 248 l 1
 390 248 l 1
 371 312 l 1
474 330 m 1
 487 410 468 455 362 455 c 1
 380 530 l 1
 523 530 578 449 559 330 c 1
 474 330 l 1
362 455 m 1
 288 455 246 432 190 392 c 1
 153 450 l 1
 218 499 278 530 380 530 c 1
 362 455 l 1
474 330 m 1
 559 330 l 1
 505 0 l 1
 420 0 l 1
 474 330 l 1
153 155 m 1
 144 97 178 65 281 65 c 0
 359 65 436 100 449 180 c 1
 484 180 l 1
 466 71 377 -10 238 -10 c 0
 139 -10 50 41 69 160 c 1
 153 155 l 1
371 312 m 1
 390 248 l 1
 241 248 167 240 153 155 c 1
 69 160 l 1
 91 295 234 312 371 312 c 1
403 670 m 1
 343 670 312 694 320 742 c 1
 244 736 l 1
 230 647 291 590 390 590 c 1
 403 670 l 1
403 670 m 1
 390 590 l 1
 489 590 570 647 584 736 c 1
 510 742 l 1
 502 694 463 670 403 670 c 1
EndSplineSet
EndChar

StartChar: Cacute
Encoding: 262 262 191
Width: 732
VWidth: 0
Flags: HM
LayerCount: 2
Fore
SplineSet
217 350 m 0
 192 194 285 70 436 70 c 0
 519 70 599 110 662 171 c 5
 710 113 l 1
 633 38 529 -10 423 -10 c 0
 228 -10 95 151 127 350 c 0
 159 549 346 710 541 710 c 0
 647 710 735 662 788 587 c 1
 720 529 l 1
 677 590 611 630 528 630 c 0
 377 630 242 506 217 350 c 0
580 770 m 1
 520 770 l 1
 623 910 l 1
 723 910 l 1
 580 770 l 1
EndSplineSet
EndChar

StartChar: cacute
Encoding: 263 263 192
Width: 573
VWidth: 0
Flags: HM
LayerCount: 2
Fore
SplineSet
182 260 m 4
 164 151 229 65 336 65 c 4
 400 65 459 96 504 145 c 5
 548 92 l 5
 491 28 410 -10 323 -10 c 4
 174 -10 73 111 97 260 c 4
 121 409 262 530 411 530 c 4
 498 530 565 491 602 428 c 5
 541 375 l 5
 512 424 463 455 399 455 c 4
 292 455 200 369 182 260 c 4
451 590 m 1
 391 590 l 1
 494 730 l 1
 594 730 l 1
 451 590 l 1
EndSplineSet
EndChar

StartChar: Ccircumflex
Encoding: 264 264 193
Width: 732
VWidth: 0
Flags: HM
LayerCount: 2
Fore
SplineSet
217 350 m 0
 192 194 285 70 436 70 c 0
 519 70 599 110 662 171 c 5
 710 113 l 1
 633 38 529 -10 423 -10 c 0
 228 -10 95 151 127 350 c 0
 159 549 346 710 541 710 c 0
 647 710 735 662 788 587 c 1
 720 529 l 1
 677 590 611 630 528 630 c 0
 377 630 242 506 217 350 c 0
615 770 m 1
 532 870 l 1
 602 870 l 1
 685 770 l 1
 615 770 l 1
532 870 m 1
 602 870 l 1
 485 770 l 1
 415 770 l 1
 532 870 l 1
EndSplineSet
EndChar

StartChar: ccircumflex
Encoding: 265 265 194
Width: 573
VWidth: 0
Flags: HM
LayerCount: 2
Fore
SplineSet
182 260 m 4
 164 151 229 65 336 65 c 4
 400 65 459 96 504 145 c 5
 548 92 l 5
 491 28 410 -10 323 -10 c 4
 174 -10 73 111 97 260 c 4
 121 409 262 530 411 530 c 4
 498 530 565 491 602 428 c 5
 541 375 l 5
 512 424 463 455 399 455 c 4
 292 455 200 369 182 260 c 4
486 590 m 1
 402 690 l 1
 472 690 l 1
 556 590 l 1
 486 590 l 1
402 690 m 1
 472 690 l 1
 356 590 l 1
 286 590 l 1
 402 690 l 1
EndSplineSet
EndChar

StartChar: Cdotaccent
Encoding: 266 266 195
Width: 732
VWidth: 0
Flags: HM
LayerCount: 2
Fore
SplineSet
217 350 m 0
 192 194 285 70 436 70 c 0
 519 70 599 110 662 171 c 5
 710 113 l 1
 633 38 529 -10 423 -10 c 0
 228 -10 95 151 127 350 c 0
 159 549 346 710 541 710 c 0
 647 710 735 662 788 587 c 1
 720 529 l 1
 677 590 611 630 528 630 c 0
 377 630 242 506 217 350 c 0
496 835 m 0
 502 871 536 900 572 900 c 0
 608 900 632 871 626 835 c 0
 620 799 586 770 550 770 c 0
 514 770 490 799 496 835 c 0
EndSplineSet
EndChar

StartChar: cdotaccent
Encoding: 267 267 196
Width: 573
VWidth: 0
Flags: HM
LayerCount: 2
Fore
SplineSet
182 260 m 4
 164 151 229 65 336 65 c 4
 400 65 459 96 504 145 c 5
 548 92 l 5
 491 28 410 -10 323 -10 c 4
 174 -10 73 111 97 260 c 4
 121 409 262 530 411 530 c 4
 498 530 565 491 602 428 c 5
 541 375 l 5
 512 424 463 455 399 455 c 4
 292 455 200 369 182 260 c 4
367 655 m 0
 373 691 406 720 442 720 c 0
 478 720 503 691 497 655 c 0
 491 619 457 590 421 590 c 0
 385 590 361 619 367 655 c 0
EndSplineSet
EndChar

StartChar: Ccaron
Encoding: 268 268 197
Width: 732
VWidth: 0
Flags: HM
LayerCount: 2
Fore
SplineSet
217 350 m 0
 192 194 285 70 436 70 c 0
 519 70 599 110 662 171 c 5
 710 113 l 1
 633 38 529 -10 423 -10 c 0
 228 -10 95 151 127 350 c 0
 159 549 346 710 541 710 c 0
 647 710 735 662 788 587 c 1
 720 529 l 1
 677 590 611 630 528 630 c 0
 377 630 242 506 217 350 c 0
502 870 m 1
 585 770 l 1
 515 770 l 1
 432 870 l 1
 502 870 l 1
585 770 m 1
 515 770 l 1
 632 870 l 1
 702 870 l 1
 585 770 l 1
EndSplineSet
EndChar

StartChar: ccaron
Encoding: 269 269 198
Width: 573
VWidth: 0
Flags: HM
LayerCount: 2
Fore
SplineSet
182 260 m 4
 164 151 229 65 336 65 c 4
 400 65 459 96 504 145 c 5
 548 92 l 5
 491 28 410 -10 323 -10 c 4
 174 -10 73 111 97 260 c 4
 121 409 262 530 411 530 c 4
 498 530 565 491 602 428 c 5
 541 375 l 5
 512 424 463 455 399 455 c 4
 292 455 200 369 182 260 c 4
372 690 m 1
 456 590 l 1
 386 590 l 1
 302 690 l 1
 372 690 l 1
456 590 m 1
 386 590 l 1
 502 690 l 1
 572 690 l 1
 456 590 l 1
EndSplineSet
EndChar

StartChar: Dcaron
Encoding: 270 270 199
Width: 810
VWidth: 0
Flags: HMW
LayerCount: 2
Fore
SplineSet
214 700 m 1
 494 700 l 1
 481 620 l 1
 201 620 l 1
 214 700 l 1
113 80 m 1
 393 80 l 1
 380 0 l 1
 100 0 l 1
 113 80 l 1
214 700 m 1
 304 700 l 1
 190 0 l 1
 100 0 l 1
 214 700 l 1
393 80 m 1
 544 80 682 194 707 350 c 0
 732 506 632 620 481 620 c 1
 494 700 l 1
 689 700 829 549 797 350 c 0
 765 151 575 0 380 0 c 1
 393 80 l 1
494 870 m 1
 578 770 l 1
 508 770 l 1
 424 870 l 1
 494 870 l 1
578 770 m 1
 508 770 l 1
 624 870 l 1
 694 870 l 1
 578 770 l 1
EndSplineSet
EndChar

StartChar: dcaron
Encoding: 271 271 200
Width: 655
VWidth: 0
Flags: HMW
LayerCount: 2
Fore
SplineSet
527 260 m 0
 546 379 481 455 384 455 c 0
 287 455 201 379 182 260 c 0
 163 141 224 65 321 65 c 0
 418 65 508 141 527 260 c 0
562 260 m 0
 538 111 447 -10 298 -10 c 0
 169 -10 71 101 97 260 c 0
 123 419 257 530 386 530 c 0
 535 530 586 409 562 260 c 0
689 730 m 5
 570 0 l 5
 485 0 l 1
 604 730 l 1
 689 730 l 5
803 665 m 4
 809 701 843 730 881 730 c 4
 919 730 943 701 937 665 c 4
 935 653 929 634 917 620 c 6
 803 480 l 5
 753 480 l 5
 834 605 l 5
 814 613 798 637 803 665 c 4
EndSplineSet
EndChar

StartChar: Emacron
Encoding: 274 274 201
Width: 670
VWidth: 0
Flags: HM
LayerCount: 2
Fore
SplineSet
165 398 m 1
 625 398 l 1
 612 318 l 1
 152 318 l 1
 165 398 l 1
214 700 m 1
 724 700 l 1
 711 620 l 1
 201 620 l 1
 214 700 l 1
113 80 m 1
 623 80 l 1
 610 0 l 1
 100 0 l 1
 113 80 l 1
214 700 m 1
 304 700 l 5
 190 0 l 5
 100 0 l 1
 214 700 l 1
341 850 m 1
 645 850 l 5
 632 770 l 5
 328 770 l 1
 341 850 l 1
EndSplineSet
EndChar

StartChar: emacron
Encoding: 275 275 202
Width: 615
VWidth: 0
Flags: HMW
LayerCount: 2
Fore
SplineSet
607 260 m 1
 602 230 l 1
 517 230 l 1
 522 260 l 1
 607 260 l 1
517 230 m 1
 151 230 l 1
 162 297 l 1
 528 297 l 1
 517 230 l 1
522 260 m 1
 541 379 491 455 384 455 c 0
 277 455 201 379 182 260 c 1
 97 260 l 1
 123 419 257 530 396 530 c 0
 535 530 633 419 607 260 c 1
 522 260 l 1
97 260 m 1
 182 260 l 1
 163 141 224 65 331 65 c 0
 395 65 462 98 507 147 c 1
 553 92 l 1
 496 28 405 -10 318 -10 c 0
 169 -10 71 101 97 260 c 1
262 670 m 1
 566 670 l 5
 553 590 l 5
 249 590 l 1
 262 670 l 1
EndSplineSet
EndChar

StartChar: Ebreve
Encoding: 276 276 203
Width: 670
VWidth: 0
Flags: HM
LayerCount: 2
Fore
SplineSet
165 398 m 1
 625 398 l 1
 612 318 l 1
 152 318 l 1
 165 398 l 1
214 700 m 1
 724 700 l 1
 711 620 l 1
 201 620 l 1
 214 700 l 1
113 80 m 1
 623 80 l 1
 610 0 l 1
 100 0 l 1
 113 80 l 1
214 700 m 1
 304 700 l 5
 190 0 l 5
 100 0 l 1
 214 700 l 1
493 850 m 1
 433 850 402 874 410 922 c 1
 334 916 l 1
 320 827 381 770 480 770 c 1
 493 850 l 1
493 850 m 1
 480 770 l 1
 579 770 660 827 674 916 c 1
 600 922 l 1
 592 874 553 850 493 850 c 1
EndSplineSet
EndChar

StartChar: ebreve
Encoding: 277 277 204
Width: 615
VWidth: 0
Flags: HMW
LayerCount: 2
Fore
SplineSet
607 260 m 1
 602 230 l 1
 517 230 l 1
 522 260 l 1
 607 260 l 1
517 230 m 1
 151 230 l 1
 162 297 l 1
 528 297 l 1
 517 230 l 1
522 260 m 1
 541 379 491 455 384 455 c 0
 277 455 201 379 182 260 c 1
 97 260 l 1
 123 419 257 530 396 530 c 0
 535 530 633 419 607 260 c 1
 522 260 l 1
97 260 m 1
 182 260 l 1
 163 141 224 65 331 65 c 0
 395 65 462 98 507 147 c 1
 553 92 l 1
 496 28 405 -10 318 -10 c 0
 169 -10 71 101 97 260 c 1
414 670 m 1
 354 670 323 694 331 742 c 1
 255 736 l 1
 241 647 302 590 401 590 c 1
 414 670 l 1
414 670 m 1
 401 590 l 1
 500 590 581 647 595 736 c 1
 521 742 l 1
 513 694 474 670 414 670 c 1
EndSplineSet
EndChar

StartChar: Edotaccent
Encoding: 278 278 205
Width: 670
VWidth: 0
Flags: HM
LayerCount: 2
Fore
SplineSet
165 398 m 1
 625 398 l 1
 612 318 l 1
 152 318 l 1
 165 398 l 1
214 700 m 1
 724 700 l 1
 711 620 l 1
 201 620 l 1
 214 700 l 1
113 80 m 1
 623 80 l 1
 610 0 l 1
 100 0 l 1
 113 80 l 1
214 700 m 1
 304 700 l 5
 190 0 l 5
 100 0 l 1
 214 700 l 1
426 835 m 0
 432 871 466 900 502 900 c 0
 538 900 562 871 556 835 c 0
 550 799 516 770 480 770 c 0
 444 770 420 799 426 835 c 0
EndSplineSet
EndChar

StartChar: edotaccent
Encoding: 279 279 206
Width: 615
VWidth: 0
Flags: HMW
LayerCount: 2
Fore
SplineSet
607 260 m 1
 602 230 l 1
 517 230 l 1
 522 260 l 1
 607 260 l 1
517 230 m 1
 151 230 l 1
 162 297 l 1
 528 297 l 1
 517 230 l 1
522 260 m 1
 541 379 491 455 384 455 c 0
 277 455 201 379 182 260 c 1
 97 260 l 1
 123 419 257 530 396 530 c 0
 535 530 633 419 607 260 c 1
 522 260 l 1
97 260 m 1
 182 260 l 1
 163 141 224 65 331 65 c 0
 395 65 462 98 507 147 c 1
 553 92 l 1
 496 28 405 -10 318 -10 c 0
 169 -10 71 101 97 260 c 1
347 655 m 0
 353 691 386 720 422 720 c 0
 458 720 483 691 477 655 c 0
 471 619 437 590 401 590 c 0
 365 590 341 619 347 655 c 0
EndSplineSet
EndChar

StartChar: Ecaron
Encoding: 282 282 207
Width: 670
VWidth: 0
Flags: HM
LayerCount: 2
Fore
SplineSet
165 398 m 1
 625 398 l 1
 612 318 l 1
 152 318 l 1
 165 398 l 1
214 700 m 1
 724 700 l 1
 711 620 l 1
 201 620 l 1
 214 700 l 1
113 80 m 1
 623 80 l 1
 610 0 l 1
 100 0 l 1
 113 80 l 1
214 700 m 1
 304 700 l 5
 190 0 l 5
 100 0 l 1
 214 700 l 1
432 870 m 1
 515 770 l 1
 445 770 l 1
 362 870 l 1
 432 870 l 1
515 770 m 1
 445 770 l 1
 562 870 l 1
 632 870 l 1
 515 770 l 1
EndSplineSet
EndChar

StartChar: ecaron
Encoding: 283 283 208
Width: 615
VWidth: 0
Flags: HMW
LayerCount: 2
Fore
SplineSet
607 260 m 1
 602 230 l 1
 517 230 l 1
 522 260 l 1
 607 260 l 1
517 230 m 1
 151 230 l 1
 162 297 l 1
 528 297 l 1
 517 230 l 1
522 260 m 1
 541 379 491 455 384 455 c 0
 277 455 201 379 182 260 c 1
 97 260 l 1
 123 419 257 530 396 530 c 0
 535 530 633 419 607 260 c 1
 522 260 l 1
97 260 m 1
 182 260 l 1
 163 141 224 65 331 65 c 0
 395 65 462 98 507 147 c 1
 553 92 l 1
 496 28 405 -10 318 -10 c 0
 169 -10 71 101 97 260 c 1
352 690 m 1
 436 590 l 1
 366 590 l 1
 282 690 l 1
 352 690 l 1
436 590 m 1
 366 590 l 1
 482 690 l 1
 552 690 l 1
 436 590 l 1
EndSplineSet
EndChar

StartChar: Gcircumflex
Encoding: 284 284 209
Width: 782
VWidth: 0
Flags: HMW
LayerCount: 2
Fore
SplineSet
762 370 m 1
 749 290 l 1
 472 290 l 1
 485 370 l 1
 762 370 l 1
720 113 m 1
 630 113 l 1
 672 370 l 1
 762 370 l 1
 720 113 l 1
217 350 m 0
 192 194 285 70 436 70 c 0
 519 70 609 110 672 171 c 1
 720 113 l 1
 643 38 529 -10 423 -10 c 0
 228 -10 95 151 127 350 c 0
 159 549 346 710 541 710 c 0
 647 710 735 662 788 587 c 1
 720 529 l 1
 677 590 611 630 528 630 c 0
 377 630 242 506 217 350 c 0
615 770 m 1
 532 870 l 1
 602 870 l 1
 685 770 l 1
 615 770 l 1
532 870 m 1
 602 870 l 1
 485 770 l 1
 415 770 l 1
 532 870 l 1
EndSplineSet
EndChar

StartChar: gcircumflex
Encoding: 285 285 210
Width: 655
VWidth: 0
Flags: HMW
LayerCount: 2
Fore
SplineSet
299 -145 m 1
 287 -220 l 1
 150 -220 76 -172 39 -108 c 1
 105 -52 l 5
 134 -101 186 -145 299 -145 c 1
573 20 m 1
 488 20 l 1
 570 520 l 1
 655 520 l 1
 573 20 l 1
562 260 m 0
 538 111 447 -10 298 -10 c 0
 169 -10 71 101 97 260 c 0
 123 419 257 530 386 530 c 0
 535 530 586 409 562 260 c 0
527 260 m 0
 546 379 481 455 384 455 c 0
 287 455 201 379 182 260 c 0
 163 141 224 65 321 65 c 0
 418 65 508 141 527 260 c 0
488 20 m 1
 573 20 l 1
 550 -119 416 -220 287 -220 c 1
 299 -145 l 1
 376 -145 472 -79 488 20 c 1
461 590 m 1
 377 690 l 1
 447 690 l 1
 531 590 l 1
 461 590 l 1
377 690 m 1
 447 690 l 1
 331 590 l 1
 261 590 l 1
 377 690 l 1
EndSplineSet
EndChar

StartChar: Gbreve
Encoding: 286 286 211
Width: 782
VWidth: 0
Flags: HMW
LayerCount: 2
Fore
SplineSet
762 370 m 1
 749 290 l 1
 472 290 l 1
 485 370 l 1
 762 370 l 1
720 113 m 1
 630 113 l 1
 672 370 l 1
 762 370 l 1
 720 113 l 1
217 350 m 0
 192 194 285 70 436 70 c 0
 519 70 609 110 672 171 c 1
 720 113 l 1
 643 38 529 -10 423 -10 c 0
 228 -10 95 151 127 350 c 0
 159 549 346 710 541 710 c 0
 647 710 735 662 788 587 c 1
 720 529 l 1
 677 590 611 630 528 630 c 0
 377 630 242 506 217 350 c 0
563 850 m 1
 503 850 472 874 480 922 c 1
 404 916 l 1
 390 827 451 770 550 770 c 1
 563 850 l 1
563 850 m 1
 550 770 l 1
 649 770 730 827 744 916 c 1
 670 922 l 1
 662 874 623 850 563 850 c 1
EndSplineSet
EndChar

StartChar: gbreve
Encoding: 287 287 212
Width: 655
VWidth: 0
Flags: HMW
LayerCount: 2
Fore
SplineSet
299 -145 m 1
 287 -220 l 1
 150 -220 76 -172 39 -108 c 1
 105 -52 l 5
 134 -101 186 -145 299 -145 c 1
573 20 m 1
 488 20 l 1
 570 520 l 1
 655 520 l 1
 573 20 l 1
562 260 m 0
 538 111 447 -10 298 -10 c 0
 169 -10 71 101 97 260 c 0
 123 419 257 530 386 530 c 0
 535 530 586 409 562 260 c 0
527 260 m 0
 546 379 481 455 384 455 c 0
 287 455 201 379 182 260 c 0
 163 141 224 65 321 65 c 0
 418 65 508 141 527 260 c 0
488 20 m 1
 573 20 l 1
 550 -119 416 -220 287 -220 c 1
 299 -145 l 1
 376 -145 472 -79 488 20 c 1
409 670 m 1
 349 670 318 694 326 742 c 1
 250 736 l 1
 236 647 297 590 396 590 c 1
 409 670 l 1
409 670 m 1
 396 590 l 1
 495 590 576 647 590 736 c 1
 516 742 l 1
 508 694 469 670 409 670 c 1
EndSplineSet
EndChar

StartChar: Gdotaccent
Encoding: 288 288 213
Width: 782
VWidth: 0
Flags: HMW
LayerCount: 2
Fore
SplineSet
762 370 m 1
 749 290 l 1
 472 290 l 1
 485 370 l 1
 762 370 l 1
720 113 m 1
 630 113 l 1
 672 370 l 1
 762 370 l 1
 720 113 l 1
217 350 m 0
 192 194 285 70 436 70 c 0
 519 70 609 110 672 171 c 1
 720 113 l 1
 643 38 529 -10 423 -10 c 0
 228 -10 95 151 127 350 c 0
 159 549 346 710 541 710 c 0
 647 710 735 662 788 587 c 1
 720 529 l 1
 677 590 611 630 528 630 c 0
 377 630 242 506 217 350 c 0
496 835 m 0
 502 871 536 900 572 900 c 0
 608 900 632 871 626 835 c 0
 620 799 586 770 550 770 c 0
 514 770 490 799 496 835 c 0
EndSplineSet
EndChar

StartChar: gdotaccent
Encoding: 289 289 214
Width: 655
VWidth: 0
Flags: HMW
LayerCount: 2
Fore
SplineSet
299 -145 m 1
 287 -220 l 1
 150 -220 76 -172 39 -108 c 1
 105 -52 l 5
 134 -101 186 -145 299 -145 c 1
573 20 m 1
 488 20 l 1
 570 520 l 1
 655 520 l 1
 573 20 l 1
562 260 m 0
 538 111 447 -10 298 -10 c 0
 169 -10 71 101 97 260 c 0
 123 419 257 530 386 530 c 0
 535 530 586 409 562 260 c 0
527 260 m 0
 546 379 481 455 384 455 c 0
 287 455 201 379 182 260 c 0
 163 141 224 65 321 65 c 0
 418 65 508 141 527 260 c 0
488 20 m 1
 573 20 l 1
 550 -119 416 -220 287 -220 c 1
 299 -145 l 1
 376 -145 472 -79 488 20 c 1
342 655 m 0
 348 691 381 720 417 720 c 0
 453 720 478 691 472 655 c 0
 466 619 432 590 396 590 c 0
 360 590 336 619 342 655 c 0
EndSplineSet
EndChar

StartChar: uni0122
Encoding: 290 290 215
Width: 782
VWidth: 0
Flags: HMW
LayerCount: 2
Fore
SplineSet
762 370 m 1
 749 290 l 1
 472 290 l 1
 485 370 l 1
 762 370 l 1
720 113 m 1
 630 113 l 1
 672 370 l 1
 762 370 l 1
 720 113 l 1
217 350 m 0
 192 194 285 70 436 70 c 0
 519 70 609 110 672 171 c 1
 720 113 l 1
 643 38 529 -10 423 -10 c 0
 228 -10 95 151 127 350 c 0
 159 549 346 710 541 710 c 0
 647 710 735 662 788 587 c 1
 720 529 l 1
 677 590 611 630 528 630 c 0
 377 630 242 506 217 350 c 0
366 -135 m 4
 372 -99 406 -70 444 -70 c 4
 482 -70 506 -99 500 -135 c 4
 498 -147 492 -166 480 -180 c 6
 366 -320 l 5
 316 -320 l 5
 396 -195 l 5
 376 -187 361 -163 366 -135 c 4
EndSplineSet
EndChar

StartChar: Hcircumflex
Encoding: 292 292 216
Width: 765
VWidth: 0
Flags: HMW
LayerCount: 2
Fore
SplineSet
689 700 m 1
 779 700 l 1
 665 0 l 1
 575 0 l 1
 689 700 l 1
165 398 m 1
 675 398 l 1
 662 318 l 1
 152 318 l 1
 165 398 l 1
214 700 m 1
 304 700 l 1
 190 0 l 1
 100 0 l 1
 214 700 l 1
570 770 m 1
 487 870 l 1
 557 870 l 1
 640 770 l 1
 570 770 l 1
487 870 m 1
 557 870 l 1
 440 770 l 1
 370 770 l 1
 487 870 l 1
EndSplineSet
EndChar

StartChar: hcircumflex
Encoding: 293 293 217
Width: 635
VWidth: 0
Flags: HMW
LayerCount: 2
Fore
SplineSet
604 300 m 1
 555 0 l 1
 470 0 l 5
 519 300 l 5
 604 300 l 1
204 730 m 1
 289 730 l 1
 170 0 l 1
 85 0 l 1
 204 730 l 1
519 300 m 5
 533 389 514 455 404 455 c 0
 305 455 234 390 216 280 c 1
 181 280 l 1
 204 419 297 530 436 530 c 0
 565 530 625 429 604 300 c 1
 519 300 l 5
511 790 m 1
 427 890 l 1
 497 890 l 1
 581 790 l 1
 511 790 l 1
427 890 m 1
 497 890 l 1
 381 790 l 1
 311 790 l 1
 427 890 l 1
EndSplineSet
EndChar

StartChar: Itilde
Encoding: 296 296 218
Width: 300
VWidth: 0
Flags: HMW
LayerCount: 2
Fore
SplineSet
219 700 m 1
 309 700 l 1
 195 0 l 1
 105 0 l 1
 219 700 l 1
153 770 m 1
 86 790 l 1
 103 868 157 907 208 907 c 0
 272 907 317 843 361 843 c 0
 406 843 420 873 426 910 c 1
 482 890 l 1
 463 802 412 773 362 773 c 0
 300 773 259 837 216 837 c 0
 172 837 159 807 153 770 c 1
EndSplineSet
EndChar

StartChar: itilde
Encoding: 297 297 219
Width: 250
VWidth: 0
Flags: HMW
LayerCount: 2
Fore
SplineSet
170 520 m 1
 250 520 l 1
 165 0 l 1
 85 0 l 1
 170 520 l 1
101 590 m 1
 34 610 l 1
 51 688 106 727 157 727 c 0
 221 727 266 663 310 663 c 0
 355 663 368 693 374 730 c 1
 431 710 l 1
 412 622 360 593 310 593 c 0
 248 593 207 657 164 657 c 0
 120 657 107 627 101 590 c 1
EndSplineSet
EndChar

StartChar: Imacron
Encoding: 298 298 220
Width: 300
VWidth: 0
Flags: HMW
LayerCount: 2
Fore
SplineSet
219 700 m 1
 309 700 l 1
 195 0 l 1
 105 0 l 1
 219 700 l 1
134 850 m 1
 438 850 l 5
 425 770 l 5
 121 770 l 1
 134 850 l 1
EndSplineSet
EndChar

StartChar: imacron
Encoding: 299 299 221
Width: 250
VWidth: 0
Flags: HMW
LayerCount: 2
Fore
SplineSet
170 520 m 1
 250 520 l 1
 165 0 l 1
 85 0 l 1
 170 520 l 1
82 670 m 1
 386 670 l 5
 373 590 l 5
 69 590 l 1
 82 670 l 1
EndSplineSet
EndChar

StartChar: Ibreve
Encoding: 300 300 222
Width: 300
VWidth: 0
Flags: HMW
LayerCount: 2
Fore
SplineSet
219 700 m 1
 309 700 l 1
 195 0 l 1
 105 0 l 1
 219 700 l 1
286 850 m 1
 226 850 195 874 203 922 c 1
 127 916 l 1
 113 827 174 770 273 770 c 1
 286 850 l 1
286 850 m 1
 273 770 l 1
 372 770 453 827 467 916 c 1
 393 922 l 1
 385 874 346 850 286 850 c 1
EndSplineSet
EndChar

StartChar: ibreve
Encoding: 301 301 223
Width: 250
VWidth: 0
Flags: HMW
LayerCount: 2
Fore
SplineSet
170 520 m 1
 250 520 l 1
 165 0 l 1
 85 0 l 1
 170 520 l 1
234 670 m 1
 174 670 143 694 151 742 c 1
 75 736 l 1
 61 647 122 590 221 590 c 1
 234 670 l 1
234 670 m 1
 221 590 l 1
 320 590 401 647 415 736 c 1
 341 742 l 1
 333 694 294 670 234 670 c 1
EndSplineSet
EndChar

StartChar: Idotaccent
Encoding: 304 304 224
Width: 300
VWidth: 0
Flags: HMW
LayerCount: 2
Fore
SplineSet
219 700 m 1
 309 700 l 1
 195 0 l 1
 105 0 l 1
 219 700 l 1
218 835 m 0
 224 871 258 900 294 900 c 0
 330 900 354 871 348 835 c 0
 342 799 309 770 273 770 c 0
 237 770 212 799 218 835 c 0
EndSplineSet
EndChar

StartChar: dotlessi
Encoding: 305 305 225
Width: 250
VWidth: 0
Flags: HMW
AnchorPoint: "ced" 125 0 basechar 0
LayerCount: 2
Fore
SplineSet
170 520 m 1
 250 520 l 1
 165 0 l 1
 85 0 l 1
 170 520 l 1
EndSplineSet
EndChar

StartChar: Jcircumflex
Encoding: 308 308 226
Width: 599
VWidth: 0
Flags: HMW
LayerCount: 2
Fore
SplineSet
456 260 m 1
 528 700 l 1
 613 700 l 1
 541 260 l 1
 456 260 l 1
456 260 m 1
 541 260 l 1
 513 91 402 -10 263 -10 c 0
 155 -10 81 51 56 157 c 1
 130 194 l 5
 151 111 197 65 276 65 c 0
 373 65 437 141 456 260 c 1
644 770 m 1
 561 870 l 1
 631 870 l 1
 714 770 l 1
 644 770 l 1
561 870 m 1
 631 870 l 1
 514 770 l 1
 444 770 l 1
 561 870 l 1
EndSplineSet
EndChar

StartChar: jcircumflex
Encoding: 309 309 227
Width: 250
VWidth: 0
Flags: HM
LayerCount: 2
Fore
SplineSet
174 520 m 1
 254 520 l 1
 159 -60 l 1
 79 -60 l 1
 174 520 l 1
6 -135 m 1
 -0 -210 l 1
 -57 -210 -105 -194 -126 -160 c 1
 -78 -101 l 1
 -64 -120 -37 -135 6 -135 c 1
79 -60 m 1
 159 -60 l 1
 146 -139 89 -210 -0 -210 c 1
 6 -135 l 1
 43 -135 72 -100 79 -60 c 1
290 590 m 1
 206 690 l 1
 276 690 l 1
 360 590 l 1
 290 590 l 1
206 690 m 1
 276 690 l 1
 160 590 l 1
 90 590 l 1
 206 690 l 1
EndSplineSet
EndChar

StartChar: uni0136
Encoding: 310 310 228
Width: 745
VWidth: 0
Flags: HMW
LayerCount: 2
Fore
SplineSet
353 413 m 1
 457 413 l 5
 720 0 l 5
 616 0 l 1
 353 413 l 1
679 700 m 1
 784 700 l 5
 224 207 l 5
 142 230 l 1
 679 700 l 1
214 700 m 1
 304 700 l 1
 190 0 l 1
 100 0 l 1
 214 700 l 1
350 -125 m 4
 356 -89 390 -60 428 -60 c 4
 466 -60 490 -89 484 -125 c 4
 482 -137 476 -156 464 -170 c 6
 350 -310 l 5
 300 -310 l 5
 380 -185 l 5
 360 -177 345 -153 350 -125 c 4
EndSplineSet
EndChar

StartChar: uni0137
Encoding: 311 311 229
Width: 615
VWidth: 0
Flags: HMW
LayerCount: 2
Fore
SplineSet
292 291 m 1
 381 311 l 1
 590 0 l 1
 492 0 l 1
 292 291 l 1
549 520 m 1
 655 520 l 1
 188 110 l 1
 135 154 l 1
 549 520 l 1
204 730 m 1
 289 730 l 1
 170 0 l 1
 85 0 l 1
 204 730 l 1
258 -125 m 4
 264 -89 297 -60 335 -60 c 4
 373 -60 398 -89 392 -125 c 4
 390 -137 383 -156 371 -170 c 6
 258 -310 l 5
 208 -310 l 5
 288 -185 l 5
 268 -177 253 -153 258 -125 c 4
EndSplineSet
EndChar

StartChar: Lacute
Encoding: 313 313 230
Width: 655
VWidth: 0
Flags: HM
LayerCount: 2
Fore
SplineSet
113 80 m 1
 623 80 l 1
 610 0 l 1
 100 0 l 1
 113 80 l 1
214 700 m 1
 304 700 l 5
 190 0 l 5
 100 0 l 1
 214 700 l 1
297 770 m 1
 237 770 l 1
 340 910 l 1
 440 910 l 1
 297 770 l 1
EndSplineSet
EndChar

StartChar: lacute
Encoding: 314 314 231
Width: 265
VWidth: 0
Flags: HMW
LayerCount: 2
Fore
SplineSet
209 730 m 1
 294 730 l 1
 175 0 l 1
 90 0 l 1
 209 730 l 1
289 790 m 1
 229 790 l 1
 331 930 l 1
 431 930 l 1
 289 790 l 1
EndSplineSet
EndChar

StartChar: uni013B
Encoding: 315 315 232
Width: 655
VWidth: 0
Flags: HM
LayerCount: 2
Fore
SplineSet
113 80 m 1
 623 80 l 1
 610 0 l 1
 100 0 l 1
 113 80 l 1
214 700 m 1
 304 700 l 5
 190 0 l 5
 100 0 l 1
 214 700 l 1
298 -125 m 4
 304 -89 337 -60 375 -60 c 4
 413 -60 438 -89 432 -125 c 4
 430 -137 423 -156 411 -170 c 6
 298 -310 l 5
 248 -310 l 5
 328 -185 l 5
 308 -177 293 -153 298 -125 c 4
EndSplineSet
EndChar

StartChar: uni013C
Encoding: 316 316 233
Width: 265
VWidth: 0
Flags: HMW
LayerCount: 2
Fore
SplineSet
209 730 m 1
 294 730 l 1
 175 0 l 1
 90 0 l 1
 209 730 l 1
73 -125 m 4
 79 -89 112 -60 150 -60 c 4
 188 -60 213 -89 207 -125 c 4
 205 -137 198 -156 186 -170 c 6
 73 -310 l 5
 23 -310 l 5
 103 -185 l 5
 83 -177 68 -153 73 -125 c 4
EndSplineSet
EndChar

StartChar: Lcaron
Encoding: 317 317 234
Width: 655
VWidth: 0
Flags: HMW
LayerCount: 2
Fore
SplineSet
113 80 m 1
 623 80 l 1
 610 0 l 1
 100 0 l 1
 113 80 l 1
214 700 m 1
 304 700 l 5
 190 0 l 5
 100 0 l 1
 214 700 l 1
485 645 m 4
 491 681 525 710 563 710 c 4
 601 710 625 681 619 645 c 4
 617 633 611 614 599 600 c 6
 485 460 l 5
 435 460 l 5
 515 585 l 5
 495 593 480 617 485 645 c 4
EndSplineSet
EndChar

StartChar: lcaron
Encoding: 318 318 235
Width: 265
VWidth: 0
Flags: HMW
LayerCount: 2
Fore
SplineSet
209 730 m 1
 294 730 l 1
 175 0 l 1
 90 0 l 1
 209 730 l 1
368 665 m 4
 374 701 408 730 446 730 c 4
 484 730 508 701 502 665 c 4
 500 653 494 634 482 620 c 6
 368 480 l 5
 318 480 l 5
 399 605 l 5
 379 613 363 637 368 665 c 4
EndSplineSet
EndChar

StartChar: Ldot
Encoding: 319 319 236
Width: 655
VWidth: 0
Flags: HM
LayerCount: 2
Fore
SplineSet
113 80 m 1
 623 80 l 1
 610 0 l 1
 100 0 l 1
 113 80 l 1
214 700 m 1
 304 700 l 5
 190 0 l 5
 100 0 l 1
 214 700 l 1
368 355 m 4
 374 391 407 420 443 420 c 4
 479 420 504 391 498 355 c 4
 492 319 458 290 422 290 c 4
 386 290 362 319 368 355 c 4
EndSplineSet
EndChar

StartChar: ldot
Encoding: 320 320 237
Width: 450
VWidth: 0
Flags: HM
LayerCount: 2
Fore
SplineSet
209 730 m 1
 294 730 l 1
 175 0 l 1
 90 0 l 1
 209 730 l 1
360 305 m 4
 366 341 399 370 435 370 c 4
 471 370 496 341 490 305 c 4
 484 269 450 240 414 240 c 4
 378 240 354 269 360 305 c 4
EndSplineSet
EndChar

StartChar: Nacute
Encoding: 323 323 238
Width: 790
VWidth: 0
Flags: HMW
LayerCount: 2
Fore
SplineSet
690 0 m 1
 610 0 l 1
 614 24 l 1
 692 14 l 1
 690 0 l 1
294 700 m 1
 291 680 l 1
 211 680 l 1
 214 700 l 1
 294 700 l 1
208 665 m 1
 294 700 l 1
 696 35 l 1
 610 0 l 1
 208 665 l 1
714 700 m 1
 804 700 l 1
 690 0 l 1
 603 20 l 1
 714 700 l 1
214 700 m 1
 301 680 l 1
 190 0 l 1
 100 0 l 1
 214 700 l 1
545 770 m 1
 485 770 l 1
 588 910 l 1
 688 910 l 1
 545 770 l 1
EndSplineSet
EndChar

StartChar: nacute
Encoding: 324 324 239
Width: 635
VWidth: 0
Flags: HMW
LayerCount: 2
Fore
SplineSet
604 300 m 1
 555 0 l 1
 470 0 l 5
 519 300 l 5
 604 300 l 1
170 520 m 1
 255 520 l 1
 170 0 l 1
 85 0 l 1
 170 520 l 1
519 300 m 5
 534 390 514 455 404 455 c 0
 306 455 234 390 216 280 c 1
 181 280 l 1
 204 419 297 530 436 530 c 0
 565 530 625 429 604 300 c 1
 519 300 l 5
444 590 m 1
 384 590 l 1
 486 730 l 1
 586 730 l 1
 444 590 l 1
EndSplineSet
EndChar

StartChar: uni0145
Encoding: 325 325 240
Width: 790
VWidth: 0
Flags: HMW
LayerCount: 2
Fore
SplineSet
690 0 m 1
 610 0 l 1
 614 24 l 1
 692 14 l 1
 690 0 l 1
294 700 m 1
 291 680 l 1
 211 680 l 1
 214 700 l 1
 294 700 l 1
208 665 m 1
 294 700 l 1
 696 35 l 1
 610 0 l 1
 208 665 l 1
714 700 m 1
 804 700 l 1
 690 0 l 1
 603 20 l 1
 714 700 l 1
214 700 m 1
 301 680 l 1
 190 0 l 1
 100 0 l 1
 214 700 l 1
333 -125 m 4
 339 -89 372 -60 410 -60 c 4
 448 -60 473 -89 467 -125 c 4
 465 -137 458 -156 446 -170 c 6
 333 -310 l 5
 283 -310 l 5
 363 -185 l 5
 343 -177 328 -153 333 -125 c 4
EndSplineSet
EndChar

StartChar: uni0146
Encoding: 326 326 241
Width: 635
VWidth: 0
Flags: HMW
LayerCount: 2
Fore
SplineSet
604 300 m 1
 555 0 l 1
 470 0 l 5
 519 300 l 5
 604 300 l 1
170 520 m 1
 255 520 l 1
 170 0 l 1
 85 0 l 1
 170 520 l 1
519 300 m 5
 534 390 514 455 404 455 c 0
 306 455 234 390 216 280 c 1
 181 280 l 1
 204 419 297 530 436 530 c 0
 565 530 625 429 604 300 c 1
 519 300 l 5
260 -125 m 4
 266 -89 300 -60 338 -60 c 4
 376 -60 400 -89 394 -125 c 4
 392 -137 386 -156 374 -170 c 6
 260 -310 l 5
 210 -310 l 5
 290 -185 l 5
 270 -177 255 -153 260 -125 c 4
EndSplineSet
EndChar

StartChar: Ncaron
Encoding: 327 327 242
Width: 790
VWidth: 0
Flags: HMW
LayerCount: 2
Fore
SplineSet
690 0 m 1
 610 0 l 1
 614 24 l 1
 692 14 l 1
 690 0 l 1
294 700 m 1
 291 680 l 1
 211 680 l 1
 214 700 l 1
 294 700 l 1
208 665 m 1
 294 700 l 1
 696 35 l 1
 610 0 l 1
 208 665 l 1
714 700 m 1
 804 700 l 1
 690 0 l 1
 603 20 l 1
 714 700 l 1
214 700 m 1
 301 680 l 1
 190 0 l 1
 100 0 l 1
 214 700 l 1
467 870 m 1
 550 770 l 1
 480 770 l 1
 397 870 l 1
 467 870 l 1
550 770 m 1
 480 770 l 1
 597 870 l 1
 667 870 l 1
 550 770 l 1
EndSplineSet
EndChar

StartChar: ncaron
Encoding: 328 328 243
Width: 635
VWidth: 0
Flags: HMW
LayerCount: 2
Fore
SplineSet
604 300 m 1
 555 0 l 1
 470 0 l 5
 519 300 l 5
 604 300 l 1
170 520 m 1
 255 520 l 1
 170 0 l 1
 85 0 l 1
 170 520 l 1
519 300 m 5
 534 390 514 455 404 455 c 0
 306 455 234 390 216 280 c 1
 181 280 l 1
 204 419 297 530 436 530 c 0
 565 530 625 429 604 300 c 1
 519 300 l 5
365 690 m 1
 449 590 l 1
 379 590 l 1
 295 690 l 1
 365 690 l 1
449 590 m 1
 379 590 l 1
 495 690 l 1
 565 690 l 1
 449 590 l 1
EndSplineSet
EndChar

StartChar: Omacron
Encoding: 332 332 244
Width: 850
VWidth: 0
Flags: HM
LayerCount: 2
Fore
SplineSet
217 350 m 0
 192 194 285 70 436 70 c 0
 587 70 722 194 747 350 c 4
 772 506 679 630 528 630 c 0
 377 630 242 506 217 350 c 0
127 350 m 0
 159 549 346 710 541 710 c 0
 736 710 869 549 837 350 c 4
 805 151 618 -10 423 -10 c 0
 228 -10 95 151 127 350 c 0
411 850 m 1
 715 850 l 5
 702 770 l 5
 398 770 l 1
 411 850 l 1
EndSplineSet
EndChar

StartChar: omacron
Encoding: 333 333 245
Width: 650
VWidth: 0
Flags: HM
LayerCount: 2
Fore
SplineSet
182 260 m 0
 164 151 229 65 336 65 c 0
 443 65 534 151 552 260 c 4
 570 369 506 455 399 455 c 0
 292 455 200 369 182 260 c 0
97 260 m 0
 121 409 262 530 411 530 c 0
 560 530 661 409 637 260 c 0
 613 111 472 -10 323 -10 c 0
 174 -10 73 111 97 260 c 0
282 670 m 1
 586 670 l 5
 573 590 l 5
 269 590 l 1
 282 670 l 1
EndSplineSet
EndChar

StartChar: Obreve
Encoding: 334 334 246
Width: 850
VWidth: 0
Flags: HM
LayerCount: 2
Fore
SplineSet
217 350 m 0
 192 194 285 70 436 70 c 0
 587 70 722 194 747 350 c 4
 772 506 679 630 528 630 c 0
 377 630 242 506 217 350 c 0
127 350 m 0
 159 549 346 710 541 710 c 0
 736 710 869 549 837 350 c 4
 805 151 618 -10 423 -10 c 0
 228 -10 95 151 127 350 c 0
563 850 m 1
 503 850 472 874 480 922 c 1
 404 916 l 1
 390 827 451 770 550 770 c 1
 563 850 l 1
563 850 m 1
 550 770 l 1
 649 770 730 827 744 916 c 1
 670 922 l 1
 662 874 623 850 563 850 c 1
EndSplineSet
EndChar

StartChar: obreve
Encoding: 335 335 247
Width: 650
VWidth: 0
Flags: HM
LayerCount: 2
Fore
SplineSet
182 260 m 0
 164 151 229 65 336 65 c 0
 443 65 534 151 552 260 c 4
 570 369 506 455 399 455 c 0
 292 455 200 369 182 260 c 0
97 260 m 0
 121 409 262 530 411 530 c 0
 560 530 661 409 637 260 c 0
 613 111 472 -10 323 -10 c 0
 174 -10 73 111 97 260 c 0
434 670 m 1
 374 670 343 694 351 742 c 1
 275 736 l 1
 261 647 322 590 421 590 c 1
 434 670 l 1
434 670 m 1
 421 590 l 1
 520 590 601 647 615 736 c 1
 541 742 l 1
 533 694 494 670 434 670 c 1
EndSplineSet
EndChar

StartChar: Racute
Encoding: 340 340 248
Width: 718
VWidth: 0
Flags: HMW
LayerCount: 2
Fore
SplineSet
380 320 m 1
 485 320 l 1
 673 0 l 1
 568 0 l 1
 380 320 l 1
455 338 m 1
 542 338 612 392 626 477 c 0
 640 562 588 620 501 620 c 1
 514 700 l 1
 643 700 736 602 716 477 c 0
 696 353 571 258 442 258 c 1
 455 338 l 1
214 700 m 1
 304 700 l 1
 190 0 l 1
 100 0 l 1
 214 700 l 1
219 700 m 1
 514 700 l 1
 501 620 l 1
 206 620 l 1
 219 700 l 1
160 338 m 1
 455 338 l 1
 442 258 l 1
 147 258 l 1
 160 338 l 1
453 770 m 1
 393 770 l 1
 496 910 l 1
 596 910 l 1
 453 770 l 1
EndSplineSet
EndChar

StartChar: racute
Encoding: 341 341 249
Width: 410
VWidth: 0
Flags: HMW
LayerCount: 2
Fore
SplineSet
170 520 m 1
 255 520 l 1
 170 0 l 1
 85 0 l 1
 170 520 l 1
452 445 m 1
 432 445 l 2
 308 445 232 380 214 270 c 1
 179 270 l 1
 202 409 296 520 465 520 c 1
 452 445 l 1
356 590 m 1
 296 590 l 1
 399 730 l 1
 499 730 l 1
 356 590 l 1
EndSplineSet
EndChar

StartChar: uni0156
Encoding: 342 342 250
Width: 718
VWidth: 0
Flags: HMW
LayerCount: 2
Fore
SplineSet
380 320 m 1
 485 320 l 1
 673 0 l 1
 568 0 l 1
 380 320 l 1
455 338 m 1
 542 338 612 392 626 477 c 0
 640 562 588 620 501 620 c 1
 514 700 l 1
 643 700 736 602 716 477 c 0
 696 353 571 258 442 258 c 1
 455 338 l 1
214 700 m 1
 304 700 l 1
 190 0 l 1
 100 0 l 1
 214 700 l 1
219 700 m 1
 514 700 l 1
 501 620 l 1
 206 620 l 1
 219 700 l 1
160 338 m 1
 455 338 l 1
 442 258 l 1
 147 258 l 1
 160 338 l 1
327 -125 m 4
 333 -89 366 -60 404 -60 c 4
 442 -60 467 -89 461 -125 c 4
 459 -137 452 -156 440 -170 c 6
 327 -310 l 5
 277 -310 l 5
 357 -185 l 5
 337 -177 322 -153 327 -125 c 4
EndSplineSet
EndChar

StartChar: uni0157
Encoding: 343 343 251
Width: 410
VWidth: 0
Flags: HMW
LayerCount: 2
Fore
SplineSet
170 520 m 1
 255 520 l 1
 170 0 l 1
 85 0 l 1
 170 520 l 1
452 445 m 1
 432 445 l 2
 308 445 232 380 214 270 c 1
 179 270 l 1
 202 409 296 520 465 520 c 1
 452 445 l 1
68 -125 m 4
 74 -89 107 -60 145 -60 c 4
 183 -60 208 -89 202 -125 c 4
 200 -137 193 -156 181 -170 c 6
 68 -310 l 5
 18 -310 l 5
 98 -185 l 5
 78 -177 63 -153 68 -125 c 4
EndSplineSet
EndChar

StartChar: Rcaron
Encoding: 344 344 252
Width: 718
VWidth: 0
Flags: HMW
LayerCount: 2
Fore
SplineSet
380 320 m 1
 485 320 l 1
 673 0 l 1
 568 0 l 1
 380 320 l 1
455 338 m 1
 542 338 612 392 626 477 c 0
 640 562 588 620 501 620 c 1
 514 700 l 1
 643 700 736 602 716 477 c 0
 696 353 571 258 442 258 c 1
 455 338 l 1
214 700 m 1
 304 700 l 1
 190 0 l 1
 100 0 l 1
 214 700 l 1
219 700 m 1
 514 700 l 1
 501 620 l 1
 206 620 l 1
 219 700 l 1
160 338 m 1
 455 338 l 1
 442 258 l 1
 147 258 l 1
 160 338 l 1
324 870 m 1
 408 770 l 1
 338 770 l 1
 254 870 l 1
 324 870 l 1
408 770 m 1
 338 770 l 1
 454 870 l 1
 524 870 l 1
 408 770 l 1
EndSplineSet
EndChar

StartChar: rcaron
Encoding: 345 345 253
Width: 410
VWidth: 0
Flags: HMW
LayerCount: 2
Fore
SplineSet
170 520 m 1
 255 520 l 1
 170 0 l 1
 85 0 l 1
 170 520 l 1
452 445 m 1
 432 445 l 2
 308 445 232 380 214 270 c 1
 179 270 l 1
 202 409 296 520 465 520 c 1
 452 445 l 1
277 690 m 1
 361 590 l 1
 291 590 l 1
 207 690 l 1
 277 690 l 1
361 590 m 1
 291 590 l 1
 407 690 l 1
 477 690 l 1
 361 590 l 1
EndSplineSet
EndChar

StartChar: Sacute
Encoding: 346 346 254
Width: 625
VWidth: 0
Flags: HM
LayerCount: 2
Fore
SplineSet
512 195 m 1
 597 195 l 1
 576 66 475 -10 326 -10 c 0
 197 -10 121 56 68 113 c 1
 133 176 l 5
 174 132 241 65 339 65 c 0
 432 65 497 105 512 195 c 1
260 524 m 1
 175 519 l 1
 193 630 312 710 431 710 c 0
 530 710 605 674 649 622 c 1
 590 566 l 1
 552 610 486 635 428 635 c 0
 325 635 269 581 260 524 c 1
396 404 m 0
 519 382 618 325 597 195 c 1
 512 195 l 1
 524 266 469 312 373 326 c 0
 252 343 156 404 175 519 c 1
 260 524 l 1
 249 459 301 421 396 404 c 0
460 770 m 1
 400 770 l 1
 503 910 l 1
 603 910 l 1
 460 770 l 1
EndSplineSet
EndChar

StartChar: sacute
Encoding: 347 347 255
Width: 520
VWidth: 0
Flags: HM
LayerCount: 2
Fore
SplineSet
414 150 m 1
 499 150 l 1
 486 71 412 -10 273 -10 c 0
 164 -10 106 37 62 104 c 1
 129 158 l 1
 167 108 208 65 286 65 c 0
 359 65 404 90 414 150 c 1
218 388 m 1
 133 388 l 1
 145 464 232 530 341 530 c 0
 450 530 497 496 531 448 c 1
 470 390 l 5
 443 422 417 455 329 455 c 4
 251 455 223 420 218 388 c 1
330 307 m 0
 444 288 517 260 499 150 c 1
 414 150 l 1
 422 200 394 221 288 236 c 0
 187 251 118 293 133 388 c 1
 218 388 l 1
 211 348 235 323 330 307 c 0
381 590 m 1
 321 590 l 1
 424 730 l 1
 524 730 l 1
 381 590 l 1
EndSplineSet
EndChar

StartChar: Scircumflex
Encoding: 348 348 256
Width: 625
VWidth: 0
Flags: HM
LayerCount: 2
Fore
SplineSet
512 195 m 1
 597 195 l 1
 576 66 475 -10 326 -10 c 0
 197 -10 121 56 68 113 c 1
 133 176 l 5
 174 132 241 65 339 65 c 0
 432 65 497 105 512 195 c 1
260 524 m 1
 175 519 l 1
 193 630 312 710 431 710 c 0
 530 710 605 674 649 622 c 1
 590 566 l 1
 552 610 486 635 428 635 c 0
 325 635 269 581 260 524 c 1
396 404 m 0
 519 382 618 325 597 195 c 1
 512 195 l 1
 524 266 469 312 373 326 c 0
 252 343 156 404 175 519 c 1
 260 524 l 1
 249 459 301 421 396 404 c 0
495 770 m 1
 412 870 l 1
 482 870 l 1
 565 770 l 1
 495 770 l 1
412 870 m 1
 482 870 l 1
 365 770 l 1
 295 770 l 1
 412 870 l 1
EndSplineSet
EndChar

StartChar: scircumflex
Encoding: 349 349 257
Width: 520
VWidth: 0
Flags: HM
LayerCount: 2
Fore
SplineSet
414 150 m 1
 499 150 l 1
 486 71 412 -10 273 -10 c 0
 164 -10 106 37 62 104 c 1
 129 158 l 1
 167 108 208 65 286 65 c 0
 359 65 404 90 414 150 c 1
218 388 m 1
 133 388 l 1
 145 464 232 530 341 530 c 0
 450 530 497 496 531 448 c 1
 470 390 l 5
 443 422 417 455 329 455 c 4
 251 455 223 420 218 388 c 1
330 307 m 0
 444 288 517 260 499 150 c 1
 414 150 l 1
 422 200 394 221 288 236 c 0
 187 251 118 293 133 388 c 1
 218 388 l 1
 211 348 235 323 330 307 c 0
416 590 m 1
 332 690 l 1
 402 690 l 1
 486 590 l 1
 416 590 l 1
332 690 m 1
 402 690 l 1
 286 590 l 1
 216 590 l 1
 332 690 l 1
EndSplineSet
EndChar

StartChar: Scedilla
Encoding: 350 350 258
Width: 625
VWidth: 0
Flags: HM
LayerCount: 2
Fore
SplineSet
512 195 m 1
 597 195 l 1
 576 66 475 -10 326 -10 c 0
 197 -10 121 56 68 113 c 1
 133 176 l 5
 174 132 241 65 339 65 c 0
 432 65 497 105 512 195 c 1
260 524 m 1
 175 519 l 1
 193 630 312 710 431 710 c 0
 530 710 605 674 649 622 c 1
 590 566 l 1
 552 610 486 635 428 635 c 0
 325 635 269 581 260 524 c 1
396 404 m 0
 519 382 618 325 597 195 c 1
 512 195 l 1
 524 266 469 312 373 326 c 0
 252 343 156 404 175 519 c 1
 260 524 l 1
 249 459 301 421 396 404 c 0
308 -3 m 5
 348 -3 l 5
 392 -37 450 -77 441 -135 c 4
 433 -182 406 -217 339 -217 c 4
 302 -217 266 -203 247 -188 c 5
 272 -158 l 5
 281 -161 299 -173 329 -173 c 4
 360 -173 386 -164 391 -132 c 4
 397 -97 349 -42 308 -3 c 5
EndSplineSet
EndChar

StartChar: scedilla
Encoding: 351 351 259
Width: 520
VWidth: 0
Flags: HM
LayerCount: 2
Fore
SplineSet
414 150 m 1
 499 150 l 1
 486 71 412 -10 273 -10 c 0
 164 -10 106 37 62 104 c 1
 129 158 l 1
 167 108 208 65 286 65 c 0
 359 65 404 90 414 150 c 1
218 388 m 1
 133 388 l 1
 145 464 232 530 341 530 c 0
 450 530 497 496 531 448 c 1
 470 390 l 5
 443 422 417 455 329 455 c 4
 251 455 223 420 218 388 c 1
330 307 m 0
 444 288 517 260 499 150 c 1
 414 150 l 1
 422 200 394 221 288 236 c 0
 187 251 118 293 133 388 c 1
 218 388 l 1
 211 348 235 323 330 307 c 0
255 -3 m 5
 295 -3 l 5
 339 -37 397 -77 388 -135 c 4
 380 -182 353 -217 286 -217 c 4
 249 -217 213 -203 194 -188 c 5
 219 -158 l 5
 228 -161 246 -173 276 -173 c 4
 307 -173 333 -164 338 -132 c 4
 344 -97 296 -42 255 -3 c 5
EndSplineSet
EndChar

StartChar: Scaron
Encoding: 352 352 260
Width: 625
VWidth: 0
Flags: HM
LayerCount: 2
Fore
SplineSet
512 195 m 1
 597 195 l 1
 576 66 475 -10 326 -10 c 0
 197 -10 121 56 68 113 c 1
 133 176 l 5
 174 132 241 65 339 65 c 0
 432 65 497 105 512 195 c 1
260 524 m 1
 175 519 l 1
 193 630 312 710 431 710 c 0
 530 710 605 674 649 622 c 1
 590 566 l 1
 552 610 486 635 428 635 c 0
 325 635 269 581 260 524 c 1
396 404 m 0
 519 382 618 325 597 195 c 1
 512 195 l 1
 524 266 469 312 373 326 c 0
 252 343 156 404 175 519 c 1
 260 524 l 1
 249 459 301 421 396 404 c 0
382 870 m 1
 465 770 l 1
 395 770 l 1
 312 870 l 1
 382 870 l 1
465 770 m 1
 395 770 l 1
 512 870 l 1
 582 870 l 1
 465 770 l 1
EndSplineSet
EndChar

StartChar: scaron
Encoding: 353 353 261
Width: 520
VWidth: 0
Flags: HM
LayerCount: 2
Fore
SplineSet
414 150 m 1
 499 150 l 1
 486 71 412 -10 273 -10 c 0
 164 -10 106 37 62 104 c 1
 129 158 l 1
 167 108 208 65 286 65 c 0
 359 65 404 90 414 150 c 1
218 388 m 1
 133 388 l 1
 145 464 232 530 341 530 c 0
 450 530 497 496 531 448 c 1
 470 390 l 5
 443 422 417 455 329 455 c 4
 251 455 223 420 218 388 c 1
330 307 m 0
 444 288 517 260 499 150 c 1
 414 150 l 1
 422 200 394 221 288 236 c 0
 187 251 118 293 133 388 c 1
 218 388 l 1
 211 348 235 323 330 307 c 0
302 690 m 1
 386 590 l 1
 316 590 l 1
 232 690 l 1
 302 690 l 1
386 590 m 1
 316 590 l 1
 432 690 l 1
 502 690 l 1
 386 590 l 1
EndSplineSet
EndChar

StartChar: uni0162
Encoding: 354 354 262
Width: 690
VWidth: 0
Flags: HMW
LayerCount: 2
Fore
SplineSet
164 700 m 1
 754 700 l 1
 741 620 l 1
 151 620 l 1
 164 700 l 1
414 700 m 1
 504 700 l 1
 390 0 l 1
 300 0 l 1
 414 700 l 1
324 7 m 5
 364 7 l 5
 408 -27 466 -67 457 -125 c 4
 449 -172 422 -207 355 -207 c 4
 318 -207 283 -193 264 -178 c 5
 288 -148 l 5
 297 -151 315 -163 345 -163 c 4
 376 -163 402 -154 407 -122 c 4
 413 -87 365 -32 324 7 c 5
EndSplineSet
EndChar

StartChar: uni0163
Encoding: 355 355 263
Width: 420
VWidth: 0
Flags: HM
LayerCount: 2
Fore
SplineSet
125 520 m 1
 455 520 l 1
 442 445 l 1
 112 445 l 1
 125 520 l 1
218 140 m 1
 133 140 l 1
 220 673 l 1
 305 673 l 1
 218 140 l 1
275 65 m 1
 319 65 349 84 369 103 c 5
 399 42 l 1
 367 13 318 -10 256 -10 c 1
 275 65 l 1
218 140 m 1
 211 100 227 65 275 65 c 1
 256 -10 l 1
 167 -10 120 61 133 140 c 1
 218 140 l 1
236 -3 m 5
 276 -3 l 5
 320 -37 378 -77 369 -135 c 4
 361 -182 334 -217 267 -217 c 4
 230 -217 194 -203 175 -188 c 5
 200 -158 l 5
 209 -161 227 -173 257 -173 c 4
 288 -173 314 -164 319 -132 c 4
 325 -97 277 -42 236 -3 c 5
EndSplineSet
EndChar

StartChar: Tcaron
Encoding: 356 356 264
Width: 690
VWidth: 0
Flags: HMW
LayerCount: 2
Fore
SplineSet
164 700 m 1
 754 700 l 1
 741 620 l 1
 151 620 l 1
 164 700 l 1
414 700 m 1
 504 700 l 1
 390 0 l 1
 300 0 l 1
 414 700 l 1
419 870 m 1
 503 770 l 1
 433 770 l 1
 349 870 l 1
 419 870 l 1
503 770 m 1
 433 770 l 1
 549 870 l 1
 619 870 l 1
 503 770 l 1
EndSplineSet
EndChar

StartChar: tcaron
Encoding: 357 357 265
Width: 420
VWidth: 0
Flags: HMW
LayerCount: 2
Fore
SplineSet
125 520 m 1
 455 520 l 1
 442 445 l 1
 112 445 l 1
 125 520 l 1
218 140 m 1
 133 140 l 1
 220 673 l 1
 305 673 l 1
 218 140 l 1
275 65 m 1
 319 65 349 84 369 103 c 5
 399 42 l 1
 367 13 318 -10 256 -10 c 1
 275 65 l 1
218 140 m 1
 211 100 227 65 275 65 c 1
 256 -10 l 1
 167 -10 120 61 133 140 c 1
 218 140 l 1
392 738 m 4
 398 774 432 803 470 803 c 4
 508 803 532 774 526 738 c 4
 524 726 518 707 506 693 c 6
 392 553 l 5
 342 553 l 5
 422 678 l 5
 402 686 387 710 392 738 c 4
EndSplineSet
EndChar

StartChar: Utilde
Encoding: 360 360 266
Width: 760
VWidth: 0
Flags: HM
LayerCount: 2
Fore
SplineSet
631 280 m 5
 699 700 l 5
 784 700 l 1
 716 280 l 1
 631 280 l 5
136 280 m 1
 204 700 l 1
 289 700 l 1
 221 280 l 1
 136 280 l 1
631 280 m 5
 716 280 l 1
 688 111 537 -10 378 -10 c 0
 219 -10 108 111 136 280 c 1
 221 280 l 1
 202 161 274 65 391 65 c 0
 508 65 612 161 631 280 c 5
385 770 m 1
 319 790 l 1
 336 868 390 907 441 907 c 0
 505 907 550 843 594 843 c 0
 639 843 652 873 658 910 c 1
 715 890 l 1
 696 802 645 773 595 773 c 0
 533 773 492 837 449 837 c 0
 405 837 391 807 385 770 c 1
EndSplineSet
EndChar

StartChar: utilde
Encoding: 361 361 267
Width: 635
VWidth: 0
Flags: HMW
LayerCount: 2
Fore
SplineSet
116 220 m 1
 165 520 l 1
 250 520 l 1
 201 220 l 1
 116 220 l 1
550 0 m 1
 465 0 l 1
 550 520 l 1
 635 520 l 1
 550 0 l 1
201 220 m 1
 186 130 206 65 316 65 c 0
 414 65 486 130 504 240 c 1
 539 240 l 1
 516 101 422 -10 283 -10 c 0
 154 -10 95 91 116 220 c 1
 201 220 l 1
289 590 m 1
 222 610 l 1
 239 688 293 727 344 727 c 0
 408 727 453 663 497 663 c 0
 542 663 555 693 561 730 c 1
 618 710 l 1
 599 622 548 593 498 593 c 0
 436 593 395 657 352 657 c 0
 308 657 295 627 289 590 c 1
EndSplineSet
EndChar

StartChar: Umacron
Encoding: 362 362 268
Width: 760
VWidth: 0
Flags: HM
LayerCount: 2
Fore
SplineSet
631 280 m 5
 699 700 l 5
 784 700 l 1
 716 280 l 1
 631 280 l 5
136 280 m 1
 204 700 l 1
 289 700 l 1
 221 280 l 1
 136 280 l 1
631 280 m 5
 716 280 l 1
 688 111 537 -10 378 -10 c 0
 219 -10 108 111 136 280 c 1
 221 280 l 1
 202 161 274 65 391 65 c 0
 508 65 612 161 631 280 c 5
366 850 m 1
 670 850 l 5
 657 770 l 5
 353 770 l 1
 366 850 l 1
EndSplineSet
EndChar

StartChar: umacron
Encoding: 363 363 269
Width: 635
VWidth: 0
Flags: HMW
LayerCount: 2
Fore
SplineSet
116 220 m 1
 165 520 l 1
 250 520 l 1
 201 220 l 1
 116 220 l 1
550 0 m 1
 465 0 l 1
 550 520 l 1
 635 520 l 1
 550 0 l 1
201 220 m 1
 186 130 206 65 316 65 c 0
 414 65 486 130 504 240 c 1
 539 240 l 1
 516 101 422 -10 283 -10 c 0
 154 -10 95 91 116 220 c 1
 201 220 l 1
270 670 m 1
 574 670 l 5
 561 590 l 5
 257 590 l 1
 270 670 l 1
EndSplineSet
EndChar

StartChar: Ubreve
Encoding: 364 364 270
Width: 760
VWidth: 0
Flags: HM
LayerCount: 2
Fore
SplineSet
631 280 m 5
 699 700 l 5
 784 700 l 1
 716 280 l 1
 631 280 l 5
136 280 m 1
 204 700 l 1
 289 700 l 1
 221 280 l 1
 136 280 l 1
631 280 m 5
 716 280 l 1
 688 111 537 -10 378 -10 c 0
 219 -10 108 111 136 280 c 1
 221 280 l 1
 202 161 274 65 391 65 c 0
 508 65 612 161 631 280 c 5
518 850 m 1
 458 850 427 874 435 922 c 1
 359 916 l 1
 345 827 406 770 505 770 c 1
 518 850 l 1
518 850 m 1
 505 770 l 1
 604 770 685 827 699 916 c 1
 625 922 l 1
 617 874 578 850 518 850 c 1
EndSplineSet
EndChar

StartChar: ubreve
Encoding: 365 365 271
Width: 635
VWidth: 0
Flags: HMW
LayerCount: 2
Fore
SplineSet
116 220 m 1
 165 520 l 1
 250 520 l 1
 201 220 l 1
 116 220 l 1
550 0 m 1
 465 0 l 1
 550 520 l 1
 635 520 l 1
 550 0 l 1
201 220 m 1
 186 130 206 65 316 65 c 0
 414 65 486 130 504 240 c 1
 539 240 l 1
 516 101 422 -10 283 -10 c 0
 154 -10 95 91 116 220 c 1
 201 220 l 1
422 670 m 1
 362 670 330 694 338 742 c 1
 262 736 l 1
 248 647 310 590 409 590 c 1
 422 670 l 1
422 670 m 1
 409 590 l 1
 508 590 588 647 602 736 c 1
 528 742 l 1
 520 694 482 670 422 670 c 1
EndSplineSet
EndChar

StartChar: Uring
Encoding: 366 366 272
Width: 760
VWidth: 0
Flags: HM
LayerCount: 2
Fore
SplineSet
631 280 m 5
 699 700 l 5
 784 700 l 1
 716 280 l 1
 631 280 l 5
136 280 m 1
 204 700 l 1
 289 700 l 1
 221 280 l 1
 136 280 l 1
631 280 m 5
 716 280 l 1
 688 111 537 -10 378 -10 c 0
 219 -10 108 111 136 280 c 1
 221 280 l 1
 202 161 274 65 391 65 c 0
 508 65 612 161 631 280 c 5
472 870 m 0
 467 841 485 820 514 820 c 0
 543 820 567 841 572 870 c 0
 577 899 559 920 530 920 c 4
 501 920 477 899 472 870 c 0
422 870 m 0
 431 925 483 970 538 970 c 0
 593 970 631 925 622 870 c 0
 613 815 560 770 505 770 c 0
 450 770 413 815 422 870 c 0
EndSplineSet
EndChar

StartChar: uring
Encoding: 367 367 273
Width: 635
VWidth: 0
Flags: HMW
LayerCount: 2
Fore
SplineSet
116 220 m 1
 165 520 l 1
 250 520 l 1
 201 220 l 1
 116 220 l 1
550 0 m 1
 465 0 l 1
 550 520 l 1
 635 520 l 1
 550 0 l 1
201 220 m 1
 186 130 206 65 316 65 c 0
 414 65 486 130 504 240 c 1
 539 240 l 1
 516 101 422 -10 283 -10 c 0
 154 -10 95 91 116 220 c 1
 201 220 l 1
375 690 m 0
 370 661 388 640 417 640 c 0
 446 640 470 661 475 690 c 0
 480 719 462 740 433 740 c 4
 404 740 380 719 375 690 c 0
325 690 m 0
 334 745 386 790 441 790 c 0
 496 790 534 745 525 690 c 0
 516 635 464 590 409 590 c 0
 354 590 316 635 325 690 c 0
EndSplineSet
EndChar

StartChar: Wcircumflex
Encoding: 372 372 274
Width: 1065
VWidth: 0
Flags: HMW
LayerCount: 2
Fore
SplineSet
604 700 m 1
 689 700 l 1
 683 690 l 1
 606 690 l 1
 604 700 l 1
790 0 m 1
 710 0 l 1
 712 10 l 1
 792 10 l 1
 790 0 l 1
689 700 m 1
 792 10 l 1
 710 0 l 1
 606 690 l 1
 689 700 l 1
790 0 m 1
 712 10 l 1
 1044 700 l 1
 1134 700 l 1
 790 0 l 1
355 0 m 1
 275 0 l 1
 277 10 l 1
 357 10 l 1
 355 0 l 1
249 700 m 1
 357 10 l 1
 275 0 l 1
 159 700 l 1
 249 700 l 1
355 0 m 1
 277 10 l 1
 604 700 l 1
 683 690 l 1
 355 0 l 1
720 770 m 1
 637 870 l 1
 707 870 l 1
 790 770 l 1
 720 770 l 1
637 870 m 1
 707 870 l 1
 590 770 l 1
 520 770 l 1
 637 870 l 1
EndSplineSet
EndChar

StartChar: wcircumflex
Encoding: 373 373 275
Width: 795
VWidth: 0
Flags: HM
LayerCount: 2
Fore
SplineSet
450 520 m 1
 515 520 l 1
 507 470 l 5
 442 470 l 5
 450 520 l 1
605 0 m 1
 530 0 l 1
 531 5 l 1
 609 25 l 1
 605 0 l 1
531 5 m 1
 755 520 l 1
 840 520 l 1
 605 0 l 1
 531 5 l 1
452 470 m 5
 515 520 l 1
 599 25 l 1
 530 0 l 1
 452 470 l 5
265 0 m 1
 190 0 l 1
 194 25 l 1
 266 5 l 1
 265 0 l 1
204 25 m 1
 450 520 l 1
 497 470 l 5
 265 0 l 1
 204 25 l 1
125 520 m 1
 210 520 l 1
 266 5 l 1
 190 0 l 1
 125 520 l 1
559 590 m 1
 475 690 l 1
 545 690 l 1
 629 590 l 1
 559 590 l 1
475 690 m 1
 545 690 l 1
 429 590 l 1
 359 590 l 1
 475 690 l 1
EndSplineSet
EndChar

StartChar: Ycircumflex
Encoding: 374 374 276
Width: 680
VWidth: 0
Flags: HMW
LayerCount: 2
Fore
SplineSet
343 295 m 1
 433 295 l 1
 385 0 l 1
 295 0 l 1
 343 295 l 1
144 700 m 1
 244 700 l 1
 433 295 l 1
 370 217 l 1
 144 700 l 1
664 700 m 1
 764 700 l 1
 380 217 l 1
 343 295 l 1
 664 700 l 1
528 770 m 1
 444 870 l 1
 514 870 l 1
 598 770 l 1
 528 770 l 1
444 870 m 1
 514 870 l 1
 398 770 l 1
 328 770 l 1
 444 870 l 1
EndSplineSet
EndChar

StartChar: ycircumflex
Encoding: 375 375 277
Width: 579
VWidth: 0
Flags: HMW
LayerCount: 2
Fore
SplineSet
124 520 m 1
 214 520 l 1
 355 5 l 1
 269 0 l 1
 124 520 l 1
141 -135 m 1
 135 -210 l 1
 78 -210 32 -184 11 -150 c 1
 61 -89 l 5
 75 -108 97 -135 141 -135 c 1
234 -60 m 2
 544 520 l 1
 629 520 l 1
 319 -60 l 2
 277 -140 224 -210 135 -210 c 1
 141 -135 l 1
 179 -135 213 -100 234 -60 c 2
450 590 m 1
 366 690 l 1
 436 690 l 1
 520 590 l 1
 450 590 l 1
366 690 m 1
 436 690 l 1
 320 590 l 1
 250 590 l 1
 366 690 l 1
EndSplineSet
EndChar

StartChar: Ydieresis
Encoding: 376 376 278
Width: 680
VWidth: 0
Flags: HMW
LayerCount: 2
Fore
SplineSet
343 295 m 1
 433 295 l 1
 385 0 l 1
 295 0 l 1
 343 295 l 1
144 700 m 1
 244 700 l 1
 433 295 l 1
 370 217 l 1
 144 700 l 1
664 700 m 1
 764 700 l 1
 380 217 l 1
 343 295 l 1
 664 700 l 1
298 835 m 0
 304 871 338 900 374 900 c 0
 410 900 434 871 428 835 c 0
 422 799 389 770 353 770 c 0
 317 770 292 799 298 835 c 0
518 835 m 0
 524 871 558 900 594 900 c 0
 630 900 654 871 648 835 c 0
 642 799 609 770 573 770 c 0
 537 770 512 799 518 835 c 0
EndSplineSet
EndChar

StartChar: Zacute
Encoding: 377 377 279
Width: 680
VWidth: 0
Flags: HM
LayerCount: 2
Fore
SplineSet
698 630 m 1
 688 630 l 1
 699 700 l 1
 709 700 l 1
 698 630 l 1
76 70 m 1
 86 70 l 1
 75 0 l 1
 65 0 l 1
 76 70 l 1
199 700 m 1
 699 700 l 1
 686 620 l 1
 186 620 l 1
 199 700 l 1
88 80 m 1
 628 80 l 1
 615 0 l 1
 75 0 l 1
 88 80 l 1
598 630 m 1
 698 630 l 1
 176 70 l 5
 76 70 l 1
 598 630 l 1
495 770 m 1
 435 770 l 1
 538 910 l 1
 638 910 l 1
 495 770 l 1
EndSplineSet
EndChar

StartChar: zacute
Encoding: 378 378 280
Width: 570
VWidth: 0
Flags: HM
LayerCount: 2
Fore
SplineSet
66 65 m 1
 86 65 l 1
 75 0 l 1
 55 0 l 1
 66 65 l 1
87 75 m 1
 527 75 l 1
 515 0 l 1
 75 0 l 1
 87 75 l 1
570 520 m 1
 590 520 l 1
 579 455 l 1
 559 455 l 1
 570 520 l 1
160 520 m 1
 570 520 l 1
 557 445 l 1
 147 445 l 1
 160 520 l 1
479 455 m 1
 579 455 l 1
 166 65 l 5
 66 65 l 1
 479 455 l 1
416 590 m 1
 356 590 l 1
 459 730 l 1
 559 730 l 1
 416 590 l 1
EndSplineSet
EndChar

StartChar: Zdotaccent
Encoding: 379 379 281
Width: 680
VWidth: 0
Flags: HM
LayerCount: 2
Fore
SplineSet
698 630 m 1
 688 630 l 1
 699 700 l 1
 709 700 l 1
 698 630 l 1
76 70 m 1
 86 70 l 1
 75 0 l 1
 65 0 l 1
 76 70 l 1
199 700 m 1
 699 700 l 1
 686 620 l 1
 186 620 l 1
 199 700 l 1
88 80 m 1
 628 80 l 1
 615 0 l 1
 75 0 l 1
 88 80 l 1
598 630 m 1
 698 630 l 1
 176 70 l 5
 76 70 l 1
 598 630 l 1
411 835 m 0
 417 871 451 900 487 900 c 0
 523 900 547 871 541 835 c 0
 535 799 501 770 465 770 c 0
 429 770 405 799 411 835 c 0
EndSplineSet
EndChar

StartChar: zdotaccent
Encoding: 380 380 282
Width: 570
VWidth: 0
Flags: HM
LayerCount: 2
Fore
SplineSet
66 65 m 1
 86 65 l 1
 75 0 l 1
 55 0 l 1
 66 65 l 1
87 75 m 1
 527 75 l 1
 515 0 l 1
 75 0 l 1
 87 75 l 1
570 520 m 1
 590 520 l 1
 579 455 l 1
 559 455 l 1
 570 520 l 1
160 520 m 1
 570 520 l 1
 557 445 l 1
 147 445 l 1
 160 520 l 1
479 455 m 1
 579 455 l 1
 166 65 l 5
 66 65 l 1
 479 455 l 1
332 655 m 0
 338 691 371 720 407 720 c 0
 443 720 468 691 462 655 c 0
 456 619 422 590 386 590 c 0
 350 590 326 619 332 655 c 0
EndSplineSet
EndChar

StartChar: Zcaron
Encoding: 381 381 283
Width: 680
VWidth: 0
Flags: HM
LayerCount: 2
Fore
SplineSet
698 630 m 1
 688 630 l 1
 699 700 l 1
 709 700 l 1
 698 630 l 1
76 70 m 1
 86 70 l 1
 75 0 l 1
 65 0 l 1
 76 70 l 1
199 700 m 1
 699 700 l 1
 686 620 l 1
 186 620 l 1
 199 700 l 1
88 80 m 1
 628 80 l 1
 615 0 l 1
 75 0 l 1
 88 80 l 1
598 630 m 1
 698 630 l 1
 176 70 l 5
 76 70 l 1
 598 630 l 1
417 870 m 1
 500 770 l 1
 430 770 l 1
 347 870 l 1
 417 870 l 1
500 770 m 1
 430 770 l 1
 547 870 l 1
 617 870 l 1
 500 770 l 1
EndSplineSet
EndChar

StartChar: zcaron
Encoding: 382 382 284
Width: 570
VWidth: 0
Flags: HM
LayerCount: 2
Fore
SplineSet
66 65 m 1
 86 65 l 1
 75 0 l 1
 55 0 l 1
 66 65 l 1
87 75 m 1
 527 75 l 1
 515 0 l 1
 75 0 l 1
 87 75 l 1
570 520 m 1
 590 520 l 1
 579 455 l 1
 559 455 l 1
 570 520 l 1
160 520 m 1
 570 520 l 1
 557 445 l 1
 147 445 l 1
 160 520 l 1
479 455 m 1
 579 455 l 1
 166 65 l 5
 66 65 l 1
 479 455 l 1
337 690 m 1
 421 590 l 1
 351 590 l 1
 267 690 l 1
 337 690 l 1
421 590 m 1
 351 590 l 1
 467 690 l 1
 537 690 l 1
 421 590 l 1
EndSplineSet
EndChar

StartChar: Ohorn
Encoding: 416 416 285
Width: 850
VWidth: 0
Flags: HMW
LayerCount: 2
Fore
SplineSet
217 350 m 0
 192 194 285 70 436 70 c 0
 587 70 722 194 747 350 c 4
 772 506 679 630 528 630 c 0
 377 630 242 506 217 350 c 0
127 350 m 0
 159 549 346 710 541 710 c 0
 736 710 869 549 837 350 c 4
 805 151 618 -10 423 -10 c 0
 228 -10 95 151 127 350 c 0
830 645 m 4
 836 681 870 710 908 710 c 4
 946 710 970 681 964 645 c 4
 962 633 956 614 944 600 c 6
 830 460 l 5
 780 460 l 5
 860 585 l 5
 840 593 825 617 830 645 c 4
EndSplineSet
EndChar

StartChar: ohorn
Encoding: 417 417 286
Width: 650
VWidth: 0
Flags: HMW
LayerCount: 2
Fore
SplineSet
182 260 m 0
 164 151 229 65 336 65 c 0
 443 65 534 151 552 260 c 4
 570 369 506 455 399 455 c 0
 292 455 200 369 182 260 c 0
97 260 m 0
 121 409 262 530 411 530 c 0
 560 530 661 409 637 260 c 0
 613 111 472 -10 323 -10 c 0
 174 -10 73 111 97 260 c 0
647 517 m 4
 653 553 687 582 725 582 c 4
 763 582 787 553 781 517 c 4
 779 505 773 486 761 472 c 6
 647 332 l 5
 597 332 l 5
 677 457 l 5
 657 465 642 489 647 517 c 4
EndSplineSet
EndChar

StartChar: Uhorn
Encoding: 431 431 287
Width: 760
VWidth: 0
Flags: HMW
LayerCount: 2
Fore
SplineSet
631 280 m 5
 699 700 l 5
 784 700 l 1
 716 280 l 1
 631 280 l 5
136 280 m 1
 204 700 l 1
 289 700 l 1
 221 280 l 1
 136 280 l 1
631 280 m 5
 716 280 l 1
 688 111 537 -10 378 -10 c 0
 219 -10 108 111 136 280 c 1
 221 280 l 1
 202 161 274 65 391 65 c 0
 508 65 612 161 631 280 c 5
845 645 m 4
 851 681 885 710 923 710 c 4
 961 710 985 681 979 645 c 4
 977 633 971 614 959 600 c 6
 845 460 l 5
 795 460 l 5
 875 585 l 5
 855 593 840 617 845 645 c 4
EndSplineSet
EndChar

StartChar: uhorn
Encoding: 432 432 288
Width: 635
VWidth: 0
Flags: HMW
LayerCount: 2
Fore
SplineSet
116 220 m 1
 165 520 l 1
 250 520 l 1
 201 220 l 1
 116 220 l 1
550 0 m 1
 465 0 l 1
 550 520 l 1
 635 520 l 1
 550 0 l 1
201 220 m 1
 186 130 206 65 316 65 c 0
 414 65 486 130 504 240 c 1
 539 240 l 1
 516 101 422 -10 283 -10 c 0
 154 -10 95 91 116 220 c 1
 201 220 l 1
691 465 m 4
 697 501 730 530 768 530 c 4
 806 530 831 501 825 465 c 4
 823 453 816 434 804 420 c 6
 691 280 l 5
 641 280 l 5
 721 405 l 5
 701 413 686 437 691 465 c 4
EndSplineSet
EndChar

StartChar: uni01CD
Encoding: 461 461 289
Width: 800
VWidth: 0
Flags: HMW
LayerCount: 2
Fore
SplineSet
474 700 m 1
 554 700 l 1
 542 690 l 1
 472 690 l 1
 474 700 l 1
246 260 m 1
 638 260 l 1
 626 185 l 1
 234 185 l 1
 246 260 l 1
670 0 m 1
 472 690 l 1
 554 700 l 1
 760 0 l 1
 670 0 l 1
474 700 m 1
 552 690 l 1
 130 0 l 1
 40 0 l 1
 474 700 l 1
474 870 m 1
 558 770 l 1
 488 770 l 1
 404 870 l 1
 474 870 l 1
558 770 m 1
 488 770 l 1
 604 870 l 1
 674 870 l 1
 558 770 l 1
EndSplineSet
EndChar

StartChar: uni01CE
Encoding: 462 462 290
Width: 580
VWidth: 0
Flags: HMW
LayerCount: 2
Fore
SplineSet
371 312 m 1
 521 312 l 1
 510 248 l 1
 390 248 l 1
 371 312 l 1
474 330 m 1
 487 410 468 455 362 455 c 1
 380 530 l 1
 523 530 578 449 559 330 c 1
 474 330 l 1
362 455 m 1
 288 455 246 432 190 392 c 1
 153 450 l 1
 218 499 278 530 380 530 c 1
 362 455 l 1
474 330 m 1
 559 330 l 1
 505 0 l 1
 420 0 l 1
 474 330 l 1
153 155 m 1
 144 97 178 65 281 65 c 0
 359 65 436 100 449 180 c 1
 484 180 l 1
 466 71 377 -10 238 -10 c 0
 139 -10 50 41 69 160 c 1
 153 155 l 1
371 312 m 1
 390 248 l 1
 241 248 167 240 153 155 c 1
 69 160 l 1
 91 295 234 312 371 312 c 1
341 690 m 1
 425 590 l 1
 355 590 l 1
 271 690 l 1
 341 690 l 1
425 590 m 1
 355 590 l 1
 471 690 l 1
 541 690 l 1
 425 590 l 1
EndSplineSet
EndChar

StartChar: uni01CF
Encoding: 463 463 291
Width: 300
VWidth: 0
Flags: HMW
LayerCount: 2
Fore
SplineSet
219 700 m 1
 309 700 l 1
 195 0 l 1
 105 0 l 1
 219 700 l 1
224 870 m 1
 308 770 l 1
 238 770 l 1
 154 870 l 1
 224 870 l 1
308 770 m 1
 238 770 l 1
 354 870 l 1
 424 870 l 1
 308 770 l 1
EndSplineSet
EndChar

StartChar: uni01D0
Encoding: 464 464 292
Width: 250
VWidth: 0
Flags: HMW
LayerCount: 2
Fore
SplineSet
170 520 m 1
 250 520 l 1
 165 0 l 1
 85 0 l 1
 170 520 l 1
172 690 m 1
 256 590 l 1
 186 590 l 1
 102 690 l 1
 172 690 l 1
256 590 m 1
 186 590 l 1
 302 690 l 1
 372 690 l 1
 256 590 l 1
EndSplineSet
EndChar

StartChar: uni01D1
Encoding: 465 465 293
Width: 850
VWidth: 0
Flags: HM
LayerCount: 2
Fore
SplineSet
217 350 m 0
 192 194 285 70 436 70 c 0
 587 70 722 194 747 350 c 4
 772 506 679 630 528 630 c 0
 377 630 242 506 217 350 c 0
127 350 m 0
 159 549 346 710 541 710 c 0
 736 710 869 549 837 350 c 4
 805 151 618 -10 423 -10 c 0
 228 -10 95 151 127 350 c 0
502 870 m 1
 585 770 l 1
 515 770 l 1
 432 870 l 1
 502 870 l 1
585 770 m 1
 515 770 l 1
 632 870 l 1
 702 870 l 1
 585 770 l 1
EndSplineSet
EndChar

StartChar: uni01D2
Encoding: 466 466 294
Width: 650
VWidth: 0
Flags: HM
LayerCount: 2
Fore
SplineSet
182 260 m 0
 164 151 229 65 336 65 c 0
 443 65 534 151 552 260 c 4
 570 369 506 455 399 455 c 0
 292 455 200 369 182 260 c 0
97 260 m 0
 121 409 262 530 411 530 c 0
 560 530 661 409 637 260 c 0
 613 111 472 -10 323 -10 c 0
 174 -10 73 111 97 260 c 0
372 690 m 1
 456 590 l 1
 386 590 l 1
 302 690 l 1
 372 690 l 1
456 590 m 1
 386 590 l 1
 502 690 l 1
 572 690 l 1
 456 590 l 1
EndSplineSet
EndChar

StartChar: uni01D3
Encoding: 467 467 295
Width: 760
VWidth: 0
Flags: HM
LayerCount: 2
Fore
SplineSet
631 280 m 5
 699 700 l 5
 784 700 l 1
 716 280 l 1
 631 280 l 5
136 280 m 1
 204 700 l 1
 289 700 l 1
 221 280 l 1
 136 280 l 1
631 280 m 5
 716 280 l 1
 688 111 537 -10 378 -10 c 0
 219 -10 108 111 136 280 c 1
 221 280 l 1
 202 161 274 65 391 65 c 0
 508 65 612 161 631 280 c 5
457 870 m 1
 540 770 l 1
 470 770 l 1
 387 870 l 1
 457 870 l 1
540 770 m 1
 470 770 l 1
 587 870 l 1
 657 870 l 1
 540 770 l 1
EndSplineSet
EndChar

StartChar: uni01D4
Encoding: 468 468 296
Width: 635
VWidth: 0
Flags: HMW
LayerCount: 2
Fore
SplineSet
116 220 m 1
 165 520 l 1
 250 520 l 1
 201 220 l 1
 116 220 l 1
550 0 m 1
 465 0 l 1
 550 520 l 1
 635 520 l 1
 550 0 l 1
201 220 m 1
 186 130 206 65 316 65 c 0
 414 65 486 130 504 240 c 1
 539 240 l 1
 516 101 422 -10 283 -10 c 0
 154 -10 95 91 116 220 c 1
 201 220 l 1
360 690 m 1
 444 590 l 1
 374 590 l 1
 290 690 l 1
 360 690 l 1
444 590 m 1
 374 590 l 1
 490 690 l 1
 560 690 l 1
 444 590 l 1
EndSplineSet
EndChar

StartChar: uni01D5
Encoding: 469 469 297
Width: 760
VWidth: 0
Flags: HM
LayerCount: 2
Fore
SplineSet
631 280 m 5
 699 700 l 5
 784 700 l 1
 716 280 l 1
 631 280 l 5
136 280 m 1
 204 700 l 1
 289 700 l 1
 221 280 l 1
 136 280 l 1
631 280 m 5
 716 280 l 1
 688 111 537 -10 378 -10 c 0
 219 -10 108 111 136 280 c 1
 221 280 l 1
 202 161 274 65 391 65 c 0
 508 65 612 161 631 280 c 5
341 835 m 0
 347 871 381 900 417 900 c 0
 453 900 477 871 471 835 c 0
 465 799 431 770 395 770 c 0
 359 770 335 799 341 835 c 0
561 835 m 0
 567 871 601 900 637 900 c 0
 673 900 697 871 691 835 c 0
 685 799 651 770 615 770 c 0
 579 770 555 799 561 835 c 0
397 1040 m 1
 701 1040 l 5
 688 960 l 5
 384 960 l 1
 397 1040 l 1
EndSplineSet
EndChar

StartChar: uni01D6
Encoding: 470 470 298
Width: 635
VWidth: 0
Flags: HMW
LayerCount: 2
Fore
SplineSet
116 220 m 1
 165 520 l 1
 250 520 l 1
 201 220 l 1
 116 220 l 1
550 0 m 1
 465 0 l 1
 550 520 l 1
 635 520 l 1
 550 0 l 1
201 220 m 1
 186 130 206 65 316 65 c 0
 414 65 486 130 504 240 c 1
 539 240 l 1
 516 101 422 -10 283 -10 c 0
 154 -10 95 91 116 220 c 1
 201 220 l 1
244 655 m 0
 250 691 284 720 320 720 c 0
 356 720 380 691 374 655 c 0
 368 619 335 590 299 590 c 0
 263 590 238 619 244 655 c 0
464 655 m 0
 470 691 504 720 540 720 c 0
 576 720 600 691 594 655 c 0
 588 619 555 590 519 590 c 0
 483 590 458 619 464 655 c 0
301 860 m 1
 605 860 l 5
 592 780 l 5
 288 780 l 1
 301 860 l 1
EndSplineSet
EndChar

StartChar: uni01D7
Encoding: 471 471 299
Width: 760
VWidth: 0
Flags: HM
LayerCount: 2
Fore
SplineSet
631 280 m 5
 699 700 l 5
 784 700 l 1
 716 280 l 1
 631 280 l 5
136 280 m 1
 204 700 l 1
 289 700 l 1
 221 280 l 1
 136 280 l 1
631 280 m 5
 716 280 l 1
 688 111 537 -10 378 -10 c 0
 219 -10 108 111 136 280 c 1
 221 280 l 1
 202 161 274 65 391 65 c 0
 508 65 612 161 631 280 c 5
341 835 m 0
 347 871 381 900 417 900 c 0
 453 900 477 871 471 835 c 0
 465 799 431 770 395 770 c 0
 359 770 335 799 341 835 c 0
561 835 m 0
 567 871 601 900 637 900 c 0
 673 900 697 871 691 835 c 0
 685 799 651 770 615 770 c 0
 579 770 555 799 561 835 c 0
566 960 m 1
 506 960 l 1
 609 1100 l 1
 709 1100 l 1
 566 960 l 1
EndSplineSet
EndChar

StartChar: uni01D8
Encoding: 472 472 300
Width: 635
VWidth: 0
Flags: HMW
LayerCount: 2
Fore
SplineSet
116 220 m 1
 165 520 l 1
 250 520 l 1
 201 220 l 1
 116 220 l 1
550 0 m 1
 465 0 l 1
 550 520 l 1
 635 520 l 1
 550 0 l 1
201 220 m 1
 186 130 206 65 316 65 c 0
 414 65 486 130 504 240 c 1
 539 240 l 1
 516 101 422 -10 283 -10 c 0
 154 -10 95 91 116 220 c 1
 201 220 l 1
244 655 m 0
 250 691 284 720 320 720 c 0
 356 720 380 691 374 655 c 0
 368 619 335 590 299 590 c 0
 263 590 238 619 244 655 c 0
464 655 m 0
 470 691 504 720 540 720 c 0
 576 720 600 691 594 655 c 0
 588 619 555 590 519 590 c 0
 483 590 458 619 464 655 c 0
470 780 m 1
 410 780 l 1
 512 920 l 1
 612 920 l 1
 470 780 l 1
EndSplineSet
EndChar

StartChar: uni01D9
Encoding: 473 473 301
Width: 760
VWidth: 0
Flags: HM
LayerCount: 2
Fore
SplineSet
631 280 m 5
 699 700 l 5
 784 700 l 1
 716 280 l 1
 631 280 l 5
136 280 m 1
 204 700 l 1
 289 700 l 1
 221 280 l 1
 136 280 l 1
631 280 m 5
 716 280 l 1
 688 111 537 -10 378 -10 c 0
 219 -10 108 111 136 280 c 1
 221 280 l 1
 202 161 274 65 391 65 c 0
 508 65 612 161 631 280 c 5
341 835 m 0
 347 871 381 900 417 900 c 0
 453 900 477 871 471 835 c 0
 465 799 431 770 395 770 c 0
 359 770 335 799 341 835 c 0
561 835 m 0
 567 871 601 900 637 900 c 0
 673 900 697 871 691 835 c 0
 685 799 651 770 615 770 c 0
 579 770 555 799 561 835 c 0
488 1060 m 1
 571 960 l 1
 501 960 l 1
 418 1060 l 1
 488 1060 l 1
571 960 m 1
 501 960 l 1
 618 1060 l 1
 688 1060 l 1
 571 960 l 1
EndSplineSet
EndChar

StartChar: uni01DA
Encoding: 474 474 302
Width: 635
VWidth: 0
Flags: HMW
LayerCount: 2
Fore
SplineSet
116 220 m 1
 165 520 l 1
 250 520 l 1
 201 220 l 1
 116 220 l 1
550 0 m 1
 465 0 l 1
 550 520 l 1
 635 520 l 1
 550 0 l 1
201 220 m 1
 186 130 206 65 316 65 c 0
 414 65 486 130 504 240 c 1
 539 240 l 1
 516 101 422 -10 283 -10 c 0
 154 -10 95 91 116 220 c 1
 201 220 l 1
244 655 m 0
 250 691 284 720 320 720 c 0
 356 720 380 691 374 655 c 0
 368 619 335 590 299 590 c 0
 263 590 238 619 244 655 c 0
464 655 m 0
 470 691 504 720 540 720 c 0
 576 720 600 691 594 655 c 0
 588 619 555 590 519 590 c 0
 483 590 458 619 464 655 c 0
391 880 m 1
 475 780 l 1
 405 780 l 1
 321 880 l 1
 391 880 l 1
475 780 m 1
 405 780 l 1
 521 880 l 1
 591 880 l 1
 475 780 l 1
EndSplineSet
EndChar

StartChar: uni01DB
Encoding: 475 475 303
Width: 760
VWidth: 0
Flags: HM
LayerCount: 2
Fore
SplineSet
631 280 m 5
 699 700 l 5
 784 700 l 1
 716 280 l 1
 631 280 l 5
136 280 m 1
 204 700 l 1
 289 700 l 1
 221 280 l 1
 136 280 l 1
631 280 m 5
 716 280 l 1
 688 111 537 -10 378 -10 c 0
 219 -10 108 111 136 280 c 1
 221 280 l 1
 202 161 274 65 391 65 c 0
 508 65 612 161 631 280 c 5
341 835 m 0
 347 871 381 900 417 900 c 0
 453 900 477 871 471 835 c 0
 465 799 431 770 395 770 c 0
 359 770 335 799 341 835 c 0
561 835 m 0
 567 871 601 900 637 900 c 0
 673 900 697 871 691 835 c 0
 685 799 651 770 615 770 c 0
 579 770 555 799 561 835 c 0
506 960 m 1
 409 1100 l 1
 509 1100 l 1
 566 960 l 1
 506 960 l 1
EndSplineSet
EndChar

StartChar: uni01DC
Encoding: 476 476 304
Width: 635
VWidth: 0
Flags: HMW
LayerCount: 2
Fore
SplineSet
116 220 m 1
 165 520 l 1
 250 520 l 1
 201 220 l 1
 116 220 l 1
550 0 m 1
 465 0 l 1
 550 520 l 1
 635 520 l 1
 550 0 l 1
201 220 m 1
 186 130 206 65 316 65 c 0
 414 65 486 130 504 240 c 1
 539 240 l 1
 516 101 422 -10 283 -10 c 0
 154 -10 95 91 116 220 c 1
 201 220 l 1
244 655 m 0
 250 691 284 720 320 720 c 0
 356 720 380 691 374 655 c 0
 368 619 335 590 299 590 c 0
 263 590 238 619 244 655 c 0
464 655 m 0
 470 691 504 720 540 720 c 0
 576 720 600 691 594 655 c 0
 588 619 555 590 519 590 c 0
 483 590 458 619 464 655 c 0
410 780 m 1
 312 920 l 1
 412 920 l 1
 470 780 l 1
 410 780 l 1
EndSplineSet
EndChar

StartChar: uni01DE
Encoding: 478 478 305
Width: 800
VWidth: 0
Flags: HMW
LayerCount: 2
Fore
SplineSet
474 700 m 1
 554 700 l 1
 542 690 l 1
 472 690 l 1
 474 700 l 1
246 260 m 1
 638 260 l 1
 626 185 l 1
 234 185 l 1
 246 260 l 1
670 0 m 1
 472 690 l 1
 554 700 l 1
 760 0 l 1
 670 0 l 1
474 700 m 1
 552 690 l 1
 130 0 l 1
 40 0 l 1
 474 700 l 1
358 835 m 0
 364 871 398 900 434 900 c 0
 470 900 494 871 488 835 c 0
 482 799 449 770 413 770 c 0
 377 770 352 799 358 835 c 0
578 835 m 0
 584 871 618 900 654 900 c 0
 690 900 714 871 708 835 c 0
 702 799 669 770 633 770 c 0
 597 770 572 799 578 835 c 0
415 1040 m 1
 719 1040 l 5
 706 960 l 5
 402 960 l 1
 415 1040 l 1
EndSplineSet
EndChar

StartChar: uni01DF
Encoding: 479 479 306
Width: 580
VWidth: 0
Flags: HMW
LayerCount: 2
Fore
SplineSet
371 312 m 1
 521 312 l 1
 510 248 l 1
 390 248 l 1
 371 312 l 1
474 330 m 1
 487 410 468 455 362 455 c 1
 380 530 l 1
 523 530 578 449 559 330 c 1
 474 330 l 1
362 455 m 1
 288 455 246 432 190 392 c 1
 153 450 l 1
 218 499 278 530 380 530 c 1
 362 455 l 1
474 330 m 1
 559 330 l 1
 505 0 l 1
 420 0 l 1
 474 330 l 1
153 155 m 1
 144 97 178 65 281 65 c 0
 359 65 436 100 449 180 c 1
 484 180 l 1
 466 71 377 -10 238 -10 c 0
 139 -10 50 41 69 160 c 1
 153 155 l 1
371 312 m 1
 390 248 l 1
 241 248 167 240 153 155 c 1
 69 160 l 1
 91 295 234 312 371 312 c 1
226 655 m 0
 232 691 265 720 301 720 c 0
 337 720 362 691 356 655 c 0
 350 619 316 590 280 590 c 0
 244 590 220 619 226 655 c 0
446 655 m 0
 452 691 485 720 521 720 c 0
 557 720 582 691 576 655 c 0
 570 619 536 590 500 590 c 0
 464 590 440 619 446 655 c 0
282 860 m 1
 586 860 l 5
 573 780 l 5
 269 780 l 1
 282 860 l 1
EndSplineSet
EndChar

StartChar: Gcaron
Encoding: 486 486 307
Width: 782
VWidth: 0
Flags: HMW
LayerCount: 2
Fore
SplineSet
762 370 m 1
 749 290 l 1
 472 290 l 1
 485 370 l 1
 762 370 l 1
720 113 m 1
 630 113 l 1
 672 370 l 1
 762 370 l 1
 720 113 l 1
217 350 m 0
 192 194 285 70 436 70 c 0
 519 70 609 110 672 171 c 1
 720 113 l 1
 643 38 529 -10 423 -10 c 0
 228 -10 95 151 127 350 c 0
 159 549 346 710 541 710 c 0
 647 710 735 662 788 587 c 1
 720 529 l 1
 677 590 611 630 528 630 c 0
 377 630 242 506 217 350 c 0
502 870 m 1
 585 770 l 1
 515 770 l 1
 432 870 l 1
 502 870 l 1
585 770 m 1
 515 770 l 1
 632 870 l 1
 702 870 l 1
 585 770 l 1
EndSplineSet
EndChar

StartChar: gcaron
Encoding: 487 487 308
Width: 655
VWidth: 0
Flags: HMW
LayerCount: 2
Fore
SplineSet
299 -145 m 1
 287 -220 l 1
 150 -220 76 -172 39 -108 c 1
 105 -52 l 5
 134 -101 186 -145 299 -145 c 1
573 20 m 1
 488 20 l 1
 570 520 l 1
 655 520 l 1
 573 20 l 1
562 260 m 0
 538 111 447 -10 298 -10 c 0
 169 -10 71 101 97 260 c 0
 123 419 257 530 386 530 c 0
 535 530 586 409 562 260 c 0
527 260 m 0
 546 379 481 455 384 455 c 0
 287 455 201 379 182 260 c 0
 163 141 224 65 321 65 c 0
 418 65 508 141 527 260 c 0
488 20 m 1
 573 20 l 1
 550 -119 416 -220 287 -220 c 1
 299 -145 l 1
 376 -145 472 -79 488 20 c 1
347 690 m 1
 431 590 l 1
 361 590 l 1
 277 690 l 1
 347 690 l 1
431 590 m 1
 361 590 l 1
 477 690 l 1
 547 690 l 1
 431 590 l 1
EndSplineSet
EndChar

StartChar: uni01E8
Encoding: 488 488 309
Width: 745
VWidth: 0
Flags: HMW
LayerCount: 2
Fore
SplineSet
353 413 m 1
 457 413 l 5
 720 0 l 5
 616 0 l 1
 353 413 l 1
679 700 m 1
 784 700 l 5
 224 207 l 5
 142 230 l 1
 679 700 l 1
214 700 m 1
 304 700 l 1
 190 0 l 1
 100 0 l 1
 214 700 l 1
459 870 m 1
 543 770 l 1
 473 770 l 1
 389 870 l 1
 459 870 l 1
543 770 m 1
 473 770 l 1
 589 870 l 1
 659 870 l 1
 543 770 l 1
EndSplineSet
EndChar

StartChar: uni01E9
Encoding: 489 489 310
Width: 615
VWidth: 0
Flags: HMW
LayerCount: 2
Fore
SplineSet
292 291 m 1
 381 311 l 1
 590 0 l 1
 492 0 l 1
 292 291 l 1
549 520 m 1
 655 520 l 1
 188 110 l 1
 135 154 l 1
 549 520 l 1
204 730 m 1
 289 730 l 1
 170 0 l 1
 85 0 l 1
 204 730 l 1
205 890 m 1
 289 790 l 1
 219 790 l 1
 135 890 l 1
 205 890 l 1
289 790 m 1
 219 790 l 1
 335 890 l 1
 405 890 l 1
 289 790 l 1
EndSplineSet
EndChar

StartChar: uni01F0
Encoding: 496 496 311
Width: 250
VWidth: 0
Flags: HM
LayerCount: 2
Fore
SplineSet
174 520 m 1
 254 520 l 1
 159 -60 l 1
 79 -60 l 1
 174 520 l 1
6 -135 m 1
 -0 -210 l 1
 -57 -210 -105 -194 -126 -160 c 1
 -78 -101 l 1
 -64 -120 -37 -135 6 -135 c 1
79 -60 m 1
 159 -60 l 1
 146 -139 89 -210 -0 -210 c 1
 6 -135 l 1
 43 -135 72 -100 79 -60 c 1
176 690 m 1
 260 590 l 1
 190 590 l 1
 106 690 l 1
 176 690 l 1
260 590 m 1
 190 590 l 1
 306 690 l 1
 376 690 l 1
 260 590 l 1
EndSplineSet
EndChar

StartChar: uni01F4
Encoding: 500 500 312
Width: 782
VWidth: 0
Flags: HMW
LayerCount: 2
Fore
SplineSet
762 370 m 1
 749 290 l 1
 472 290 l 1
 485 370 l 1
 762 370 l 1
720 113 m 1
 630 113 l 1
 672 370 l 1
 762 370 l 1
 720 113 l 1
217 350 m 0
 192 194 285 70 436 70 c 0
 519 70 609 110 672 171 c 1
 720 113 l 1
 643 38 529 -10 423 -10 c 0
 228 -10 95 151 127 350 c 0
 159 549 346 710 541 710 c 0
 647 710 735 662 788 587 c 1
 720 529 l 1
 677 590 611 630 528 630 c 0
 377 630 242 506 217 350 c 0
580 770 m 1
 520 770 l 1
 623 910 l 1
 723 910 l 1
 580 770 l 1
EndSplineSet
EndChar

StartChar: uni01F5
Encoding: 501 501 313
Width: 655
VWidth: 0
Flags: HMW
LayerCount: 2
Fore
SplineSet
299 -145 m 1
 287 -220 l 1
 150 -220 76 -172 39 -108 c 1
 105 -52 l 5
 134 -101 186 -145 299 -145 c 1
573 20 m 1
 488 20 l 1
 570 520 l 1
 655 520 l 1
 573 20 l 1
562 260 m 0
 538 111 447 -10 298 -10 c 0
 169 -10 71 101 97 260 c 0
 123 419 257 530 386 530 c 0
 535 530 586 409 562 260 c 0
527 260 m 0
 546 379 481 455 384 455 c 0
 287 455 201 379 182 260 c 0
 163 141 224 65 321 65 c 0
 418 65 508 141 527 260 c 0
488 20 m 1
 573 20 l 1
 550 -119 416 -220 287 -220 c 1
 299 -145 l 1
 376 -145 472 -79 488 20 c 1
426 590 m 1
 366 590 l 1
 469 730 l 1
 569 730 l 1
 426 590 l 1
EndSplineSet
EndChar

StartChar: uni01F8
Encoding: 504 504 314
Width: 790
VWidth: 0
Flags: HMW
LayerCount: 2
Fore
SplineSet
690 0 m 1
 610 0 l 1
 614 24 l 1
 692 14 l 1
 690 0 l 1
294 700 m 1
 291 680 l 1
 211 680 l 1
 214 700 l 1
 294 700 l 1
208 665 m 1
 294 700 l 1
 696 35 l 1
 610 0 l 1
 208 665 l 1
714 700 m 1
 804 700 l 1
 690 0 l 1
 603 20 l 1
 714 700 l 1
214 700 m 1
 301 680 l 1
 190 0 l 1
 100 0 l 1
 214 700 l 1
485 770 m 1
 388 910 l 1
 488 910 l 1
 545 770 l 1
 485 770 l 1
EndSplineSet
EndChar

StartChar: uni01F9
Encoding: 505 505 315
Width: 635
VWidth: 0
Flags: HMW
LayerCount: 2
Fore
SplineSet
604 300 m 1
 555 0 l 1
 470 0 l 5
 519 300 l 5
 604 300 l 1
170 520 m 1
 255 520 l 1
 170 0 l 1
 85 0 l 1
 170 520 l 1
519 300 m 5
 534 390 514 455 404 455 c 0
 306 455 234 390 216 280 c 1
 181 280 l 1
 204 419 297 530 436 530 c 0
 565 530 625 429 604 300 c 1
 519 300 l 5
384 590 m 1
 286 730 l 1
 386 730 l 1
 444 590 l 1
 384 590 l 1
EndSplineSet
EndChar

StartChar: Aringacute
Encoding: 506 506 316
Width: 800
VWidth: 0
Flags: HMW
LayerCount: 2
Fore
SplineSet
474 700 m 1
 554 700 l 1
 542 690 l 1
 472 690 l 1
 474 700 l 1
246 260 m 1
 638 260 l 1
 626 185 l 1
 234 185 l 1
 246 260 l 1
670 0 m 1
 472 690 l 1
 554 700 l 1
 760 0 l 1
 670 0 l 1
474 700 m 1
 552 690 l 1
 130 0 l 1
 40 0 l 1
 474 700 l 1
471 760 m 0
 466 731 484 710 513 710 c 0
 542 710 566 731 571 760 c 0
 576 789 558 810 529 810 c 4
 500 810 476 789 471 760 c 0
421 760 m 0
 430 815 483 860 538 860 c 0
 593 860 630 815 621 760 c 0
 612 705 560 660 505 660 c 0
 450 660 412 705 421 760 c 0
584 963 m 1
 524 963 l 1
 627 1103 l 1
 727 1103 l 1
 584 963 l 1
EndSplineSet
EndChar

StartChar: aringacute
Encoding: 507 507 317
Width: 580
VWidth: 0
Flags: HMW
LayerCount: 2
Fore
SplineSet
371 312 m 1
 521 312 l 1
 510 248 l 1
 390 248 l 1
 371 312 l 1
474 330 m 1
 487 410 468 455 362 455 c 1
 380 530 l 1
 523 530 578 449 559 330 c 1
 474 330 l 1
362 455 m 1
 288 455 246 432 190 392 c 1
 153 450 l 1
 218 499 278 530 380 530 c 1
 362 455 l 1
474 330 m 1
 559 330 l 1
 505 0 l 1
 420 0 l 1
 474 330 l 1
153 155 m 1
 144 97 178 65 281 65 c 0
 359 65 436 100 449 180 c 1
 484 180 l 1
 466 71 377 -10 238 -10 c 0
 139 -10 50 41 69 160 c 1
 153 155 l 1
371 312 m 1
 390 248 l 1
 241 248 167 240 153 155 c 1
 69 160 l 1
 91 295 234 312 371 312 c 1
356 690 m 0
 351 661 369 640 398 640 c 0
 427 640 451 661 456 690 c 0
 461 719 444 740 415 740 c 4
 386 740 361 719 356 690 c 0
306 690 m 0
 315 745 368 790 423 790 c 0
 478 790 515 745 506 690 c 0
 497 635 445 590 390 590 c 0
 335 590 297 635 306 690 c 0
462 850 m 1
 402 850 l 1
 505 990 l 1
 605 990 l 1
 462 850 l 1
EndSplineSet
EndChar

StartChar: uni0202
Encoding: 514 514 318
Width: 800
VWidth: 0
Flags: HMW
LayerCount: 2
Fore
SplineSet
474 700 m 1
 554 700 l 1
 542 690 l 1
 472 690 l 1
 474 700 l 1
246 260 m 1
 638 260 l 1
 626 185 l 1
 234 185 l 1
 246 260 l 1
670 0 m 1
 472 690 l 1
 554 700 l 1
 760 0 l 1
 670 0 l 1
474 700 m 1
 552 690 l 1
 130 0 l 1
 40 0 l 1
 474 700 l 1
535 842 m 1
 475 842 436 818 428 770 c 1
 354 776 l 1
 368 865 449 922 548 922 c 1
 535 842 l 1
535 842 m 1
 548 922 l 1
 647 922 708 865 694 776 c 1
 618 770 l 1
 626 818 595 842 535 842 c 1
EndSplineSet
EndChar

StartChar: uni0206
Encoding: 518 518 319
Width: 670
VWidth: 0
Flags: HM
LayerCount: 2
Fore
SplineSet
165 398 m 1
 625 398 l 1
 612 318 l 1
 152 318 l 1
 165 398 l 1
214 700 m 1
 724 700 l 1
 711 620 l 1
 201 620 l 1
 214 700 l 1
113 80 m 1
 623 80 l 1
 610 0 l 1
 100 0 l 1
 113 80 l 1
214 700 m 1
 304 700 l 5
 190 0 l 5
 100 0 l 1
 214 700 l 1
492 842 m 1
 432 842 393 818 385 770 c 1
 311 776 l 1
 325 865 406 922 505 922 c 1
 492 842 l 1
492 842 m 1
 505 922 l 1
 604 922 665 865 651 776 c 1
 575 770 l 1
 583 818 552 842 492 842 c 1
EndSplineSet
EndChar

StartChar: uni0207
Encoding: 519 519 320
Width: 615
VWidth: 0
Flags: HMW
LayerCount: 2
Fore
SplineSet
607 260 m 1
 602 230 l 1
 517 230 l 1
 522 260 l 1
 607 260 l 1
517 230 m 1
 151 230 l 1
 162 297 l 1
 528 297 l 1
 517 230 l 1
522 260 m 1
 541 379 491 455 384 455 c 0
 277 455 201 379 182 260 c 1
 97 260 l 1
 123 419 257 530 396 530 c 0
 535 530 633 419 607 260 c 1
 522 260 l 1
97 260 m 1
 182 260 l 1
 163 141 224 65 331 65 c 0
 395 65 462 98 507 147 c 1
 553 92 l 1
 496 28 405 -10 318 -10 c 0
 169 -10 71 101 97 260 c 1
413 662 m 1
 353 662 314 638 306 590 c 1
 232 596 l 1
 246 685 327 742 426 742 c 1
 413 662 l 1
413 662 m 1
 426 742 l 1
 525 742 586 685 572 596 c 1
 496 590 l 1
 504 638 473 662 413 662 c 1
EndSplineSet
EndChar

StartChar: uni020A
Encoding: 522 522 321
Width: 300
VWidth: 0
Flags: HMW
LayerCount: 2
Fore
SplineSet
219 700 m 1
 309 700 l 1
 195 0 l 1
 105 0 l 1
 219 700 l 1
285 842 m 1
 225 842 186 818 178 770 c 1
 104 776 l 1
 118 865 199 922 298 922 c 1
 285 842 l 1
285 842 m 1
 298 922 l 1
 397 922 458 865 444 776 c 1
 368 770 l 1
 376 818 345 842 285 842 c 1
EndSplineSet
EndChar

StartChar: uni020B
Encoding: 523 523 322
Width: 250
VWidth: 0
Flags: HMW
LayerCount: 2
Fore
SplineSet
170 520 m 1
 250 520 l 1
 165 0 l 1
 85 0 l 1
 170 520 l 1
233 662 m 1
 173 662 134 638 126 590 c 1
 52 596 l 1
 66 685 147 742 246 742 c 1
 233 662 l 1
233 662 m 1
 246 742 l 1
 345 742 406 685 392 596 c 1
 316 590 l 1
 324 638 293 662 233 662 c 1
EndSplineSet
EndChar

StartChar: uni020E
Encoding: 526 526 323
Width: 850
VWidth: 0
Flags: HM
LayerCount: 2
Fore
SplineSet
217 350 m 0
 192 194 285 70 436 70 c 0
 587 70 722 194 747 350 c 4
 772 506 679 630 528 630 c 0
 377 630 242 506 217 350 c 0
127 350 m 0
 159 549 346 710 541 710 c 0
 736 710 869 549 837 350 c 4
 805 151 618 -10 423 -10 c 0
 228 -10 95 151 127 350 c 0
562 842 m 1
 502 842 463 818 455 770 c 1
 381 776 l 1
 395 865 476 922 575 922 c 1
 562 842 l 1
562 842 m 1
 575 922 l 1
 674 922 735 865 721 776 c 1
 645 770 l 1
 653 818 622 842 562 842 c 1
EndSplineSet
EndChar

StartChar: uni020F
Encoding: 527 527 324
Width: 650
VWidth: 0
Flags: HM
LayerCount: 2
Fore
SplineSet
182 260 m 0
 164 151 229 65 336 65 c 0
 443 65 534 151 552 260 c 4
 570 369 506 455 399 455 c 0
 292 455 200 369 182 260 c 0
97 260 m 0
 121 409 262 530 411 530 c 0
 560 530 661 409 637 260 c 0
 613 111 472 -10 323 -10 c 0
 174 -10 73 111 97 260 c 0
433 662 m 1
 373 662 334 638 326 590 c 1
 252 596 l 1
 266 685 347 742 446 742 c 1
 433 662 l 1
433 662 m 1
 446 742 l 1
 545 742 606 685 592 596 c 1
 516 590 l 1
 524 638 493 662 433 662 c 1
EndSplineSet
EndChar

StartChar: uni0212
Encoding: 530 530 325
Width: 718
VWidth: 0
Flags: HMW
LayerCount: 2
Fore
SplineSet
380 320 m 1
 485 320 l 1
 673 0 l 1
 568 0 l 1
 380 320 l 1
455 338 m 1
 542 338 612 392 626 477 c 0
 640 562 588 620 501 620 c 1
 514 700 l 1
 643 700 736 602 716 477 c 0
 696 353 571 258 442 258 c 1
 455 338 l 1
214 700 m 1
 304 700 l 1
 190 0 l 1
 100 0 l 1
 214 700 l 1
219 700 m 1
 514 700 l 1
 501 620 l 1
 206 620 l 1
 219 700 l 1
160 338 m 1
 455 338 l 1
 442 258 l 1
 147 258 l 1
 160 338 l 1
475 842 m 1
 415 842 376 818 368 770 c 1
 294 776 l 1
 308 865 389 922 488 922 c 1
 475 842 l 1
475 842 m 1
 488 922 l 1
 587 922 648 865 634 776 c 1
 558 770 l 1
 566 818 535 842 475 842 c 1
EndSplineSet
EndChar

StartChar: uni0213
Encoding: 531 531 326
Width: 410
VWidth: 0
Flags: HMW
LayerCount: 2
Fore
SplineSet
170 520 m 1
 255 520 l 1
 170 0 l 1
 85 0 l 1
 170 520 l 1
452 445 m 1
 432 445 l 2
 308 445 232 380 214 270 c 1
 179 270 l 1
 202 409 296 520 465 520 c 1
 452 445 l 1
338 662 m 1
 278 662 239 638 231 590 c 1
 157 596 l 1
 171 685 252 742 351 742 c 1
 338 662 l 1
338 662 m 1
 351 742 l 1
 450 742 511 685 497 596 c 1
 421 590 l 1
 429 638 398 662 338 662 c 1
EndSplineSet
EndChar

StartChar: uni0216
Encoding: 534 534 327
Width: 760
VWidth: 0
Flags: HM
LayerCount: 2
Fore
SplineSet
631 280 m 5
 699 700 l 5
 784 700 l 1
 716 280 l 1
 631 280 l 5
136 280 m 1
 204 700 l 1
 289 700 l 1
 221 280 l 1
 136 280 l 1
631 280 m 5
 716 280 l 1
 688 111 537 -10 378 -10 c 0
 219 -10 108 111 136 280 c 1
 221 280 l 1
 202 161 274 65 391 65 c 0
 508 65 612 161 631 280 c 5
517 842 m 1
 457 842 418 818 410 770 c 1
 336 776 l 1
 350 865 431 922 530 922 c 1
 517 842 l 1
517 842 m 1
 530 922 l 1
 629 922 690 865 676 776 c 1
 600 770 l 1
 608 818 577 842 517 842 c 1
EndSplineSet
EndChar

StartChar: uni0217
Encoding: 535 535 328
Width: 635
VWidth: 0
Flags: HMW
LayerCount: 2
Fore
SplineSet
116 220 m 1
 165 520 l 1
 250 520 l 1
 201 220 l 1
 116 220 l 1
550 0 m 1
 465 0 l 1
 550 520 l 1
 635 520 l 1
 550 0 l 1
201 220 m 1
 186 130 206 65 316 65 c 0
 414 65 486 130 504 240 c 1
 539 240 l 1
 516 101 422 -10 283 -10 c 0
 154 -10 95 91 116 220 c 1
 201 220 l 1
420 662 m 1
 360 662 322 638 314 590 c 1
 240 596 l 1
 254 685 334 742 433 742 c 1
 420 662 l 1
420 662 m 1
 433 742 l 1
 532 742 594 685 580 596 c 1
 504 590 l 1
 512 638 480 662 420 662 c 1
EndSplineSet
EndChar

StartChar: uni0218
Encoding: 536 536 329
Width: 625
VWidth: 0
Flags: HM
LayerCount: 2
Fore
SplineSet
512 195 m 1
 597 195 l 1
 576 66 475 -10 326 -10 c 0
 197 -10 121 56 68 113 c 1
 133 176 l 5
 174 132 241 65 339 65 c 0
 432 65 497 105 512 195 c 1
260 524 m 1
 175 519 l 1
 193 630 312 710 431 710 c 0
 530 710 605 674 649 622 c 1
 590 566 l 1
 552 610 486 635 428 635 c 0
 325 635 269 581 260 524 c 1
396 404 m 0
 519 382 618 325 597 195 c 1
 512 195 l 1
 524 266 469 312 373 326 c 0
 252 343 156 404 175 519 c 1
 260 524 l 1
 249 459 301 421 396 404 c 0
269 -135 m 4
 275 -99 309 -70 347 -70 c 4
 385 -70 409 -99 403 -135 c 4
 401 -147 395 -166 383 -180 c 6
 269 -320 l 5
 219 -320 l 5
 299 -195 l 5
 279 -187 264 -163 269 -135 c 4
EndSplineSet
EndChar

StartChar: uni0219
Encoding: 537 537 330
Width: 520
VWidth: 0
Flags: HM
LayerCount: 2
Fore
SplineSet
414 150 m 1
 499 150 l 1
 486 71 412 -10 273 -10 c 0
 164 -10 106 37 62 104 c 1
 129 158 l 1
 167 108 208 65 286 65 c 0
 359 65 404 90 414 150 c 1
218 388 m 1
 133 388 l 1
 145 464 232 530 341 530 c 0
 450 530 497 496 531 448 c 1
 470 390 l 5
 443 422 417 455 329 455 c 4
 251 455 223 420 218 388 c 1
330 307 m 0
 444 288 517 260 499 150 c 1
 414 150 l 1
 422 200 394 221 288 236 c 0
 187 251 118 293 133 388 c 1
 218 388 l 1
 211 348 235 323 330 307 c 0
216 -135 m 4
 222 -99 256 -70 294 -70 c 4
 332 -70 356 -99 350 -135 c 4
 348 -147 342 -166 330 -180 c 6
 216 -320 l 5
 166 -320 l 5
 246 -195 l 5
 226 -187 211 -163 216 -135 c 4
EndSplineSet
EndChar

StartChar: uni021A
Encoding: 538 538 331
Width: 690
VWidth: 0
Flags: HMW
LayerCount: 2
Fore
SplineSet
164 700 m 1
 754 700 l 1
 741 620 l 1
 151 620 l 1
 164 700 l 1
414 700 m 1
 504 700 l 1
 390 0 l 1
 300 0 l 1
 414 700 l 1
285 -125 m 4
 291 -89 325 -60 363 -60 c 4
 401 -60 425 -89 419 -125 c 4
 417 -137 411 -156 399 -170 c 6
 285 -310 l 5
 235 -310 l 5
 315 -185 l 5
 295 -177 280 -153 285 -125 c 4
EndSplineSet
EndChar

StartChar: uni021B
Encoding: 539 539 332
Width: 420
VWidth: 0
Flags: HM
LayerCount: 2
Fore
SplineSet
125 520 m 1
 455 520 l 1
 442 445 l 1
 112 445 l 1
 125 520 l 1
218 140 m 1
 133 140 l 1
 220 673 l 1
 305 673 l 1
 218 140 l 1
275 65 m 1
 319 65 349 84 369 103 c 5
 399 42 l 1
 367 13 318 -10 256 -10 c 1
 275 65 l 1
218 140 m 1
 211 100 227 65 275 65 c 1
 256 -10 l 1
 167 -10 120 61 133 140 c 1
 218 140 l 1
197 -135 m 4
 203 -99 237 -70 275 -70 c 4
 313 -70 337 -99 331 -135 c 4
 329 -147 323 -166 311 -180 c 6
 197 -320 l 5
 147 -320 l 5
 227 -195 l 5
 207 -187 192 -163 197 -135 c 4
EndSplineSet
EndChar

StartChar: uni021E
Encoding: 542 542 333
Width: 765
VWidth: 0
Flags: HMW
LayerCount: 2
Fore
SplineSet
689 700 m 1
 779 700 l 1
 665 0 l 1
 575 0 l 1
 689 700 l 1
165 398 m 1
 675 398 l 1
 662 318 l 1
 152 318 l 1
 165 398 l 1
214 700 m 1
 304 700 l 1
 190 0 l 1
 100 0 l 1
 214 700 l 1
457 870 m 1
 540 770 l 1
 470 770 l 1
 387 870 l 1
 457 870 l 1
540 770 m 1
 470 770 l 1
 587 870 l 1
 657 870 l 1
 540 770 l 1
EndSplineSet
EndChar

StartChar: uni021F
Encoding: 543 543 334
Width: 635
VWidth: 0
Flags: HMW
LayerCount: 2
Fore
SplineSet
604 300 m 1
 555 0 l 1
 470 0 l 5
 519 300 l 5
 604 300 l 1
204 730 m 1
 289 730 l 1
 170 0 l 1
 85 0 l 1
 204 730 l 1
519 300 m 5
 533 389 514 455 404 455 c 0
 305 455 234 390 216 280 c 1
 181 280 l 1
 204 419 297 530 436 530 c 0
 565 530 625 429 604 300 c 1
 519 300 l 5
397 890 m 1
 481 790 l 1
 411 790 l 1
 327 890 l 1
 397 890 l 1
481 790 m 1
 411 790 l 1
 527 890 l 1
 597 890 l 1
 481 790 l 1
EndSplineSet
EndChar

StartChar: uni0226
Encoding: 550 550 335
Width: 800
VWidth: 0
Flags: HMW
LayerCount: 2
Fore
SplineSet
474 700 m 1
 554 700 l 1
 542 690 l 1
 472 690 l 1
 474 700 l 1
246 260 m 1
 638 260 l 1
 626 185 l 1
 234 185 l 1
 246 260 l 1
670 0 m 1
 472 690 l 1
 554 700 l 1
 760 0 l 1
 670 0 l 1
474 700 m 1
 552 690 l 1
 130 0 l 1
 40 0 l 1
 474 700 l 1
468 835 m 0
 474 871 508 900 544 900 c 0
 580 900 604 871 598 835 c 0
 592 799 559 770 523 770 c 0
 487 770 462 799 468 835 c 0
EndSplineSet
EndChar

StartChar: uni0227
Encoding: 551 551 336
Width: 580
VWidth: 0
Flags: HMW
LayerCount: 2
Fore
SplineSet
371 312 m 1
 521 312 l 1
 510 248 l 1
 390 248 l 1
 371 312 l 1
474 330 m 1
 487 410 468 455 362 455 c 1
 380 530 l 1
 523 530 578 449 559 330 c 1
 474 330 l 1
362 455 m 1
 288 455 246 432 190 392 c 1
 153 450 l 1
 218 499 278 530 380 530 c 1
 362 455 l 1
474 330 m 1
 559 330 l 1
 505 0 l 1
 420 0 l 1
 474 330 l 1
153 155 m 1
 144 97 178 65 281 65 c 0
 359 65 436 100 449 180 c 1
 484 180 l 1
 466 71 377 -10 238 -10 c 0
 139 -10 50 41 69 160 c 1
 153 155 l 1
371 312 m 1
 390 248 l 1
 241 248 167 240 153 155 c 1
 69 160 l 1
 91 295 234 312 371 312 c 1
336 655 m 0
 342 691 375 720 411 720 c 0
 447 720 472 691 466 655 c 0
 460 619 426 590 390 590 c 0
 354 590 330 619 336 655 c 0
EndSplineSet
EndChar

StartChar: uni0228
Encoding: 552 552 337
Width: 670
VWidth: 0
Flags: HM
LayerCount: 2
Fore
SplineSet
165 398 m 1
 625 398 l 1
 612 318 l 1
 152 318 l 1
 165 398 l 1
214 700 m 1
 724 700 l 1
 711 620 l 1
 201 620 l 1
 214 700 l 1
113 80 m 1
 623 80 l 1
 610 0 l 1
 100 0 l 1
 113 80 l 1
214 700 m 1
 304 700 l 5
 190 0 l 5
 100 0 l 1
 214 700 l 1
336 7 m 5
 376 7 l 5
 420 -27 479 -67 470 -125 c 4
 462 -172 434 -207 367 -207 c 4
 330 -207 295 -193 276 -178 c 5
 301 -148 l 5
 310 -151 327 -163 357 -163 c 4
 388 -163 414 -154 419 -122 c 4
 425 -87 377 -32 336 7 c 5
EndSplineSet
EndChar

StartChar: uni0229
Encoding: 553 553 338
Width: 615
VWidth: 0
Flags: HMW
LayerCount: 2
Fore
SplineSet
607 260 m 1
 602 230 l 1
 517 230 l 1
 522 260 l 1
 607 260 l 1
517 230 m 1
 151 230 l 1
 162 297 l 1
 528 297 l 1
 517 230 l 1
522 260 m 1
 541 379 491 455 384 455 c 0
 277 455 201 379 182 260 c 1
 97 260 l 1
 123 419 257 530 396 530 c 0
 535 530 633 419 607 260 c 1
 522 260 l 1
97 260 m 1
 182 260 l 1
 163 141 224 65 331 65 c 0
 395 65 462 98 507 147 c 1
 553 92 l 1
 496 28 405 -10 318 -10 c 0
 169 -10 71 101 97 260 c 1
295 -3 m 5
 335 -3 l 5
 379 -37 437 -77 428 -135 c 4
 420 -182 393 -217 326 -217 c 4
 289 -217 253 -203 234 -188 c 5
 259 -158 l 5
 268 -161 286 -173 316 -173 c 4
 347 -173 373 -164 378 -132 c 4
 384 -97 336 -42 295 -3 c 5
EndSplineSet
EndChar

StartChar: uni022A
Encoding: 554 554 339
Width: 850
VWidth: 0
Flags: HM
LayerCount: 2
Fore
SplineSet
217 350 m 0
 192 194 285 70 436 70 c 0
 587 70 722 194 747 350 c 4
 772 506 679 630 528 630 c 0
 377 630 242 506 217 350 c 0
127 350 m 0
 159 549 346 710 541 710 c 0
 736 710 869 549 837 350 c 4
 805 151 618 -10 423 -10 c 0
 228 -10 95 151 127 350 c 0
386 835 m 0
 392 871 426 900 462 900 c 0
 498 900 522 871 516 835 c 0
 510 799 476 770 440 770 c 0
 404 770 380 799 386 835 c 0
606 835 m 0
 612 871 646 900 682 900 c 0
 718 900 742 871 736 835 c 0
 730 799 696 770 660 770 c 0
 624 770 600 799 606 835 c 0
442 1040 m 1
 746 1040 l 5
 733 960 l 5
 429 960 l 1
 442 1040 l 1
EndSplineSet
EndChar

StartChar: uni022B
Encoding: 555 555 340
Width: 650
VWidth: 0
Flags: HM
LayerCount: 2
Fore
SplineSet
182 260 m 0
 164 151 229 65 336 65 c 0
 443 65 534 151 552 260 c 4
 570 369 506 455 399 455 c 0
 292 455 200 369 182 260 c 0
97 260 m 0
 121 409 262 530 411 530 c 0
 560 530 661 409 637 260 c 0
 613 111 472 -10 323 -10 c 0
 174 -10 73 111 97 260 c 0
257 655 m 0
 263 691 296 720 332 720 c 0
 368 720 393 691 387 655 c 0
 381 619 347 590 311 590 c 0
 275 590 251 619 257 655 c 0
477 655 m 0
 483 691 516 720 552 720 c 0
 588 720 613 691 607 655 c 0
 601 619 567 590 531 590 c 0
 495 590 471 619 477 655 c 0
313 860 m 1
 617 860 l 5
 604 780 l 5
 300 780 l 1
 313 860 l 1
EndSplineSet
EndChar

StartChar: uni022C
Encoding: 556 556 341
Width: 850
VWidth: 0
Flags: HM
LayerCount: 2
Fore
SplineSet
217 350 m 0
 192 194 285 70 436 70 c 0
 587 70 722 194 747 350 c 4
 772 506 679 630 528 630 c 0
 377 630 242 506 217 350 c 0
127 350 m 0
 159 549 346 710 541 710 c 0
 736 710 869 549 837 350 c 4
 805 151 618 -10 423 -10 c 0
 228 -10 95 151 127 350 c 0
430 770 m 1
 364 790 l 1
 381 868 435 907 486 907 c 0
 550 907 595 843 639 843 c 0
 684 843 697 873 703 910 c 1
 760 890 l 1
 741 802 690 773 640 773 c 0
 578 773 537 837 494 837 c 0
 450 837 436 807 430 770 c 1
574 1050 m 1
 878 1050 l 5
 865 970 l 5
 561 970 l 1
 574 1050 l 1
EndSplineSet
EndChar

StartChar: uni022D
Encoding: 557 557 342
Width: 650
VWidth: 0
Flags: HM
LayerCount: 2
Fore
SplineSet
182 260 m 0
 164 151 229 65 336 65 c 0
 443 65 534 151 552 260 c 4
 570 369 506 455 399 455 c 0
 292 455 200 369 182 260 c 0
97 260 m 0
 121 409 262 530 411 530 c 0
 560 530 661 409 637 260 c 0
 613 111 472 -10 323 -10 c 0
 174 -10 73 111 97 260 c 0
301 590 m 1
 234 610 l 1
 251 688 306 727 357 727 c 0
 421 727 466 663 510 663 c 0
 555 663 568 693 574 730 c 1
 631 710 l 1
 612 622 560 593 510 593 c 0
 448 593 407 657 364 657 c 0
 320 657 307 627 301 590 c 1
315 870 m 1
 619 870 l 5
 606 790 l 5
 302 790 l 1
 315 870 l 1
EndSplineSet
EndChar

StartChar: uni022E
Encoding: 558 558 343
Width: 850
VWidth: 0
Flags: HM
LayerCount: 2
Fore
SplineSet
217 350 m 0
 192 194 285 70 436 70 c 0
 587 70 722 194 747 350 c 4
 772 506 679 630 528 630 c 0
 377 630 242 506 217 350 c 0
127 350 m 0
 159 549 346 710 541 710 c 0
 736 710 869 549 837 350 c 4
 805 151 618 -10 423 -10 c 0
 228 -10 95 151 127 350 c 0
496 835 m 0
 502 871 536 900 572 900 c 0
 608 900 632 871 626 835 c 0
 620 799 586 770 550 770 c 0
 514 770 490 799 496 835 c 0
EndSplineSet
EndChar

StartChar: uni022F
Encoding: 559 559 344
Width: 650
VWidth: 0
Flags: HM
LayerCount: 2
Fore
SplineSet
182 260 m 0
 164 151 229 65 336 65 c 0
 443 65 534 151 552 260 c 4
 570 369 506 455 399 455 c 0
 292 455 200 369 182 260 c 0
97 260 m 0
 121 409 262 530 411 530 c 0
 560 530 661 409 637 260 c 0
 613 111 472 -10 323 -10 c 0
 174 -10 73 111 97 260 c 0
367 655 m 0
 373 691 406 720 442 720 c 0
 478 720 503 691 497 655 c 0
 491 619 457 590 421 590 c 0
 385 590 361 619 367 655 c 0
EndSplineSet
EndChar

StartChar: uni0230
Encoding: 560 560 345
Width: 850
VWidth: 0
Flags: HM
LayerCount: 2
Fore
SplineSet
217 350 m 0
 192 194 285 70 436 70 c 0
 587 70 722 194 747 350 c 4
 772 506 679 630 528 630 c 0
 377 630 242 506 217 350 c 0
127 350 m 0
 159 549 346 710 541 710 c 0
 736 710 869 549 837 350 c 4
 805 151 618 -10 423 -10 c 0
 228 -10 95 151 127 350 c 0
496 835 m 0
 502 871 536 900 572 900 c 0
 608 900 632 871 626 835 c 0
 620 799 586 770 550 770 c 0
 514 770 490 799 496 835 c 0
442 1040 m 1
 746 1040 l 5
 733 960 l 5
 429 960 l 1
 442 1040 l 1
EndSplineSet
EndChar

StartChar: uni0231
Encoding: 561 561 346
Width: 650
VWidth: 0
Flags: HM
LayerCount: 2
Fore
SplineSet
182 260 m 0
 164 151 229 65 336 65 c 0
 443 65 534 151 552 260 c 4
 570 369 506 455 399 455 c 0
 292 455 200 369 182 260 c 0
97 260 m 0
 121 409 262 530 411 530 c 0
 560 530 661 409 637 260 c 0
 613 111 472 -10 323 -10 c 0
 174 -10 73 111 97 260 c 0
367 655 m 0
 373 691 406 720 442 720 c 0
 478 720 503 691 497 655 c 0
 491 619 457 590 421 590 c 0
 385 590 361 619 367 655 c 0
313 860 m 1
 617 860 l 5
 604 780 l 5
 300 780 l 1
 313 860 l 1
EndSplineSet
EndChar

StartChar: uni0232
Encoding: 562 562 347
Width: 680
VWidth: 0
Flags: HMW
LayerCount: 2
Fore
SplineSet
343 295 m 1
 433 295 l 1
 385 0 l 1
 295 0 l 1
 343 295 l 1
144 700 m 1
 244 700 l 1
 433 295 l 1
 370 217 l 1
 144 700 l 1
664 700 m 1
 764 700 l 1
 380 217 l 1
 343 295 l 1
 664 700 l 1
324 850 m 1
 628 850 l 5
 615 770 l 5
 311 770 l 1
 324 850 l 1
EndSplineSet
EndChar

StartChar: uni0233
Encoding: 563 563 348
Width: 579
VWidth: 0
Flags: HMW
LayerCount: 2
Fore
SplineSet
124 520 m 1
 214 520 l 1
 355 5 l 1
 269 0 l 1
 124 520 l 1
141 -135 m 1
 135 -210 l 1
 78 -210 32 -184 11 -150 c 1
 61 -89 l 5
 75 -108 97 -135 141 -135 c 1
234 -60 m 2
 544 520 l 1
 629 520 l 1
 319 -60 l 2
 277 -140 224 -210 135 -210 c 1
 141 -135 l 1
 179 -135 213 -100 234 -60 c 2
246 670 m 1
 550 670 l 5
 537 590 l 5
 233 590 l 1
 246 670 l 1
EndSplineSet
EndChar

StartChar: uni0237
Encoding: 567 567 349
Width: 250
VWidth: 0
Flags: HW
LayerCount: 2
Fore
SplineSet
174 520 m 1
 254 520 l 1
 159 -60 l 1
 79 -60 l 1
 174 520 l 1
6 -135 m 1
 -0 -210 l 1
 -57 -210 -105 -194 -126 -160 c 1
 -78 -101 l 1
 -64 -120 -37 -135 6 -135 c 1
79 -60 m 1
 159 -60 l 1
 146 -139 89 -210 -0 -210 c 1
 6 -135 l 1
 43 -135 72 -100 79 -60 c 1
EndSplineSet
EndChar

StartChar: uni1E00
Encoding: 7680 7680 350
Width: 800
VWidth: 0
Flags: HMW
LayerCount: 2
Fore
SplineSet
474 700 m 1
 554 700 l 1
 542 690 l 1
 472 690 l 1
 474 700 l 1
246 260 m 1
 638 260 l 1
 626 185 l 1
 234 185 l 1
 246 260 l 1
670 0 m 1
 472 690 l 1
 554 700 l 1
 760 0 l 1
 670 0 l 1
474 700 m 1
 552 690 l 1
 130 0 l 1
 40 0 l 1
 474 700 l 1
321 -160 m 0
 316 -189 334 -210 363 -210 c 0
 392 -210 416 -189 421 -160 c 0
 426 -131 409 -110 380 -110 c 4
 351 -110 326 -131 321 -160 c 0
271 -160 m 0
 280 -105 333 -60 388 -60 c 0
 443 -60 480 -105 471 -160 c 0
 462 -215 410 -260 355 -260 c 0
 300 -260 262 -215 271 -160 c 0
EndSplineSet
EndChar

StartChar: uni1E01
Encoding: 7681 7681 351
Width: 580
VWidth: 0
Flags: HMW
LayerCount: 2
Fore
SplineSet
371 312 m 1
 521 312 l 1
 510 248 l 1
 390 248 l 1
 371 312 l 1
474 330 m 1
 487 410 468 455 362 455 c 1
 380 530 l 1
 523 530 578 449 559 330 c 1
 474 330 l 1
362 455 m 1
 288 455 246 432 190 392 c 1
 153 450 l 1
 218 499 278 530 380 530 c 1
 362 455 l 1
474 330 m 1
 559 330 l 1
 505 0 l 1
 420 0 l 1
 474 330 l 1
153 155 m 1
 144 97 178 65 281 65 c 0
 359 65 436 100 449 180 c 1
 484 180 l 1
 466 71 377 -10 238 -10 c 0
 139 -10 50 41 69 160 c 1
 153 155 l 1
371 312 m 1
 390 248 l 1
 241 248 167 240 153 155 c 1
 69 160 l 1
 91 295 234 312 371 312 c 1
172 -170 m 0
 167 -199 185 -220 214 -220 c 0
 243 -220 267 -199 272 -170 c 0
 277 -141 259 -120 230 -120 c 4
 201 -120 177 -141 172 -170 c 0
122 -170 m 0
 131 -115 184 -70 239 -70 c 0
 294 -70 331 -115 322 -170 c 0
 313 -225 261 -270 206 -270 c 0
 151 -270 113 -225 122 -170 c 0
EndSplineSet
EndChar

StartChar: uni1E02
Encoding: 7682 7682 352
Width: 695
VWidth: 0
Flags: HM
LayerCount: 2
Fore
SplineSet
425 398 m 5
 508 398 577 422 591 507 c 4
 605 592 544 620 461 620 c 5
 474 700 l 1
 603 700 701 631 681 507 c 0
 661 384 544 340 415 340 c 1
 425 398 l 5
214 700 m 1
 304 700 l 1
 190 0 l 1
 100 0 l 1
 214 700 l 1
113 80 m 1
 413 80 l 1
 400 0 l 1
 100 0 l 1
 113 80 l 1
214 700 m 1
 474 700 l 1
 461 620 l 1
 201 620 l 1
 214 700 l 1
165 398 m 1
 465 398 l 1
 452 318 l 1
 152 318 l 1
 165 398 l 1
413 80 m 5
 496 80 572 105 587 195 c 4
 602 285 535 318 452 318 c 5
 461 375 l 1
 590 375 698 324 677 195 c 0
 656 66 529 0 400 0 c 1
 413 80 l 5
441 835 m 0
 447 871 481 900 517 900 c 0
 553 900 577 871 571 835 c 0
 565 799 531 770 495 770 c 0
 459 770 435 799 441 835 c 0
EndSplineSet
EndChar

StartChar: uni1E03
Encoding: 7683 7683 353
Width: 655
VWidth: 0
Flags: HMW
LayerCount: 2
Fore
SplineSet
212 260 m 0
 193 141 259 65 356 65 c 0
 453 65 538 141 557 260 c 4
 576 379 516 455 419 455 c 0
 322 455 231 379 212 260 c 0
177 260 m 0
 201 409 292 530 441 530 c 0
 570 530 668 419 642 260 c 0
 616 101 482 -10 353 -10 c 0
 204 -10 153 111 177 260 c 0
204 730 m 1
 289 730 l 1
 170 0 l 1
 85 0 l 1
 204 730 l 1
204 855 m 0
 210 891 244 920 280 920 c 0
 316 920 340 891 334 855 c 0
 328 819 295 790 259 790 c 0
 223 790 198 819 204 855 c 0
EndSplineSet
EndChar

StartChar: uni1E04
Encoding: 7684 7684 354
Width: 695
VWidth: 0
Flags: HM
LayerCount: 2
Fore
SplineSet
425 398 m 5
 508 398 577 422 591 507 c 4
 605 592 544 620 461 620 c 5
 474 700 l 1
 603 700 701 631 681 507 c 0
 661 384 544 340 415 340 c 1
 425 398 l 5
214 700 m 1
 304 700 l 1
 190 0 l 1
 100 0 l 1
 214 700 l 1
113 80 m 1
 413 80 l 1
 400 0 l 1
 100 0 l 1
 113 80 l 1
214 700 m 1
 474 700 l 1
 461 620 l 1
 201 620 l 1
 214 700 l 1
165 398 m 1
 465 398 l 1
 452 318 l 1
 152 318 l 1
 165 398 l 1
413 80 m 5
 496 80 572 105 587 195 c 4
 602 285 535 318 452 318 c 5
 461 375 l 1
 590 375 698 324 677 195 c 0
 656 66 529 0 400 0 c 1
 413 80 l 5
242 -125 m 0
 248 -89 282 -60 318 -60 c 0
 354 -60 378 -89 372 -125 c 0
 366 -161 333 -190 297 -190 c 0
 261 -190 236 -161 242 -125 c 0
EndSplineSet
EndChar

StartChar: uni1E05
Encoding: 7685 7685 355
Width: 655
VWidth: 0
Flags: HMW
LayerCount: 2
Fore
SplineSet
212 260 m 0
 193 141 259 65 356 65 c 0
 453 65 538 141 557 260 c 4
 576 379 516 455 419 455 c 0
 322 455 231 379 212 260 c 0
177 260 m 0
 201 409 292 530 441 530 c 0
 570 530 668 419 642 260 c 0
 616 101 482 -10 353 -10 c 0
 204 -10 153 111 177 260 c 0
204 730 m 1
 289 730 l 1
 170 0 l 1
 85 0 l 1
 204 730 l 1
263 -135 m 0
 269 -99 303 -70 339 -70 c 0
 375 -70 399 -99 393 -135 c 0
 387 -171 353 -200 317 -200 c 0
 281 -200 257 -171 263 -135 c 0
EndSplineSet
EndChar

StartChar: uni1E06
Encoding: 7686 7686 356
Width: 695
VWidth: 0
Flags: HM
LayerCount: 2
Fore
SplineSet
425 398 m 5
 508 398 577 422 591 507 c 4
 605 592 544 620 461 620 c 5
 474 700 l 1
 603 700 701 631 681 507 c 0
 661 384 544 340 415 340 c 1
 425 398 l 5
214 700 m 1
 304 700 l 1
 190 0 l 1
 100 0 l 1
 214 700 l 1
113 80 m 1
 413 80 l 1
 400 0 l 1
 100 0 l 1
 113 80 l 1
214 700 m 1
 474 700 l 1
 461 620 l 1
 201 620 l 1
 214 700 l 1
165 398 m 1
 465 398 l 1
 452 318 l 1
 152 318 l 1
 165 398 l 1
413 80 m 5
 496 80 572 105 587 195 c 4
 602 285 535 318 452 318 c 5
 461 375 l 1
 590 375 698 324 677 195 c 0
 656 66 529 0 400 0 c 1
 413 80 l 5
86 -60 m 1
 390 -60 l 5
 377 -140 l 5
 73 -140 l 1
 86 -60 l 1
EndSplineSet
EndChar

StartChar: uni1E07
Encoding: 7687 7687 357
Width: 655
VWidth: 0
Flags: HMW
LayerCount: 2
Fore
SplineSet
212 260 m 0
 193 141 259 65 356 65 c 0
 453 65 538 141 557 260 c 4
 576 379 516 455 419 455 c 0
 322 455 231 379 212 260 c 0
177 260 m 0
 201 409 292 530 441 530 c 0
 570 530 668 419 642 260 c 0
 616 101 482 -10 353 -10 c 0
 204 -10 153 111 177 260 c 0
204 730 m 1
 289 730 l 1
 170 0 l 1
 85 0 l 1
 204 730 l 1
187 -70 m 1
 491 -70 l 5
 478 -150 l 5
 174 -150 l 1
 187 -70 l 1
EndSplineSet
EndChar

StartChar: uni1E08
Encoding: 7688 7688 358
Width: 732
VWidth: 0
Flags: HM
LayerCount: 2
Fore
SplineSet
217 350 m 0
 192 194 285 70 436 70 c 0
 519 70 599 110 662 171 c 5
 710 113 l 1
 633 38 529 -10 423 -10 c 0
 228 -10 95 151 127 350 c 0
 159 549 346 710 541 710 c 0
 647 710 735 662 788 587 c 1
 720 529 l 1
 677 590 611 630 528 630 c 0
 377 630 242 506 217 350 c 0
405 -3 m 5
 445 -3 l 5
 489 -37 547 -77 538 -135 c 4
 530 -182 503 -217 436 -217 c 4
 399 -217 363 -203 344 -188 c 5
 369 -158 l 5
 378 -161 396 -173 426 -173 c 4
 457 -173 483 -164 488 -132 c 4
 494 -97 446 -42 405 -3 c 5
580 770 m 1
 520 770 l 1
 623 910 l 1
 723 910 l 1
 580 770 l 1
EndSplineSet
EndChar

StartChar: uni1E09
Encoding: 7689 7689 359
Width: 573
VWidth: 0
Flags: HM
LayerCount: 2
Fore
SplineSet
182 260 m 4
 164 151 229 65 336 65 c 4
 400 65 459 96 504 145 c 5
 548 92 l 5
 491 28 410 -10 323 -10 c 4
 174 -10 73 111 97 260 c 4
 121 409 262 530 411 530 c 4
 498 530 565 491 602 428 c 5
 541 375 l 5
 512 424 463 455 399 455 c 4
 292 455 200 369 182 260 c 4
305 -3 m 5
 345 -3 l 5
 389 -37 447 -77 438 -135 c 4
 430 -182 403 -217 336 -217 c 4
 299 -217 263 -203 244 -188 c 5
 269 -158 l 5
 278 -161 296 -173 326 -173 c 4
 357 -173 383 -164 388 -132 c 4
 394 -97 346 -42 305 -3 c 5
451 590 m 1
 391 590 l 1
 494 730 l 1
 594 730 l 1
 451 590 l 1
EndSplineSet
EndChar

StartChar: uni1E0A
Encoding: 7690 7690 360
Width: 810
VWidth: 0
Flags: HMW
LayerCount: 2
Fore
SplineSet
214 700 m 1
 494 700 l 1
 481 620 l 1
 201 620 l 1
 214 700 l 1
113 80 m 1
 393 80 l 1
 380 0 l 1
 100 0 l 1
 113 80 l 1
214 700 m 1
 304 700 l 1
 190 0 l 1
 100 0 l 1
 214 700 l 1
393 80 m 1
 544 80 682 194 707 350 c 0
 732 506 632 620 481 620 c 1
 494 700 l 1
 689 700 829 549 797 350 c 0
 765 151 575 0 380 0 c 1
 393 80 l 1
488 835 m 0
 494 871 528 900 564 900 c 0
 600 900 624 871 618 835 c 0
 612 799 579 770 543 770 c 0
 507 770 482 799 488 835 c 0
EndSplineSet
EndChar

StartChar: uni1E0B
Encoding: 7691 7691 361
Width: 655
VWidth: 0
Flags: HMW
LayerCount: 2
Fore
SplineSet
527 260 m 0
 546 379 481 455 384 455 c 0
 287 455 201 379 182 260 c 0
 163 141 224 65 321 65 c 0
 418 65 508 141 527 260 c 0
562 260 m 0
 538 111 447 -10 298 -10 c 0
 169 -10 71 101 97 260 c 0
 123 419 257 530 386 530 c 0
 535 530 586 409 562 260 c 0
689 730 m 5
 570 0 l 5
 485 0 l 1
 604 730 l 1
 689 730 l 5
594 855 m 0
 600 891 634 920 670 920 c 0
 706 920 730 891 724 855 c 0
 718 819 685 790 649 790 c 0
 613 790 588 819 594 855 c 0
EndSplineSet
EndChar

StartChar: uni1E0C
Encoding: 7692 7692 362
Width: 810
VWidth: 0
Flags: HMW
LayerCount: 2
Fore
SplineSet
214 700 m 1
 494 700 l 1
 481 620 l 1
 201 620 l 1
 214 700 l 1
113 80 m 1
 393 80 l 1
 380 0 l 1
 100 0 l 1
 113 80 l 1
214 700 m 1
 304 700 l 1
 190 0 l 1
 100 0 l 1
 214 700 l 1
393 80 m 1
 544 80 682 194 707 350 c 0
 732 506 632 620 481 620 c 1
 494 700 l 1
 689 700 829 549 797 350 c 0
 765 151 575 0 380 0 c 1
 393 80 l 1
335 -125 m 0
 341 -89 374 -60 410 -60 c 0
 446 -60 471 -89 465 -125 c 0
 459 -161 425 -190 389 -190 c 0
 353 -190 329 -161 335 -125 c 0
EndSplineSet
EndChar

StartChar: uni1E0D
Encoding: 7693 7693 363
Width: 655
VWidth: 0
Flags: HMW
LayerCount: 2
Fore
SplineSet
527 260 m 0
 546 379 481 455 384 455 c 0
 287 455 201 379 182 260 c 0
 163 141 224 65 321 65 c 0
 418 65 508 141 527 260 c 0
562 260 m 0
 538 111 447 -10 298 -10 c 0
 169 -10 71 101 97 260 c 0
 123 419 257 530 386 530 c 0
 535 530 586 409 562 260 c 0
689 730 m 5
 570 0 l 5
 485 0 l 1
 604 730 l 1
 689 730 l 5
213 -135 m 0
 219 -99 253 -70 289 -70 c 0
 325 -70 349 -99 343 -135 c 0
 337 -171 303 -200 267 -200 c 0
 231 -200 207 -171 213 -135 c 0
EndSplineSet
EndChar

StartChar: uni1E0E
Encoding: 7694 7694 364
Width: 810
VWidth: 0
Flags: HMW
LayerCount: 2
Fore
SplineSet
214 700 m 1
 494 700 l 1
 481 620 l 1
 201 620 l 1
 214 700 l 1
113 80 m 1
 393 80 l 1
 380 0 l 1
 100 0 l 1
 113 80 l 1
214 700 m 1
 304 700 l 1
 190 0 l 1
 100 0 l 1
 214 700 l 1
393 80 m 1
 544 80 682 194 707 350 c 0
 732 506 632 620 481 620 c 1
 494 700 l 1
 689 700 829 549 797 350 c 0
 765 151 575 0 380 0 c 1
 393 80 l 1
228 -60 m 1
 532 -60 l 5
 519 -140 l 5
 215 -140 l 1
 228 -60 l 1
EndSplineSet
EndChar

StartChar: uni1E0F
Encoding: 7695 7695 365
Width: 655
VWidth: 0
Flags: HMW
LayerCount: 2
Fore
SplineSet
527 260 m 0
 546 379 481 455 384 455 c 0
 287 455 201 379 182 260 c 0
 163 141 224 65 321 65 c 0
 418 65 508 141 527 260 c 0
562 260 m 0
 538 111 447 -10 298 -10 c 0
 169 -10 71 101 97 260 c 0
 123 419 257 530 386 530 c 0
 535 530 586 409 562 260 c 0
689 730 m 5
 570 0 l 5
 485 0 l 1
 604 730 l 1
 689 730 l 5
137 -70 m 1
 441 -70 l 5
 428 -150 l 5
 124 -150 l 1
 137 -70 l 1
EndSplineSet
EndChar

StartChar: uni1E10
Encoding: 7696 7696 366
Width: 810
VWidth: 0
Flags: HMW
LayerCount: 2
Fore
SplineSet
214 700 m 1
 494 700 l 1
 481 620 l 1
 201 620 l 1
 214 700 l 1
113 80 m 1
 393 80 l 1
 380 0 l 1
 100 0 l 1
 113 80 l 1
214 700 m 1
 304 700 l 1
 190 0 l 1
 100 0 l 1
 214 700 l 1
393 80 m 1
 544 80 682 194 707 350 c 0
 732 506 632 620 481 620 c 1
 494 700 l 1
 689 700 829 549 797 350 c 0
 765 151 575 0 380 0 c 1
 393 80 l 1
221 7 m 5
 261 7 l 5
 305 -27 364 -67 355 -125 c 4
 347 -172 319 -207 252 -207 c 4
 215 -207 180 -193 161 -178 c 5
 186 -148 l 5
 195 -151 212 -163 242 -163 c 4
 273 -163 299 -154 304 -122 c 4
 310 -87 262 -32 221 7 c 5
EndSplineSet
EndChar

StartChar: uni1E11
Encoding: 7697 7697 367
Width: 655
VWidth: 0
Flags: HMW
LayerCount: 2
Fore
SplineSet
527 260 m 0
 546 379 481 455 384 455 c 0
 287 455 201 379 182 260 c 0
 163 141 224 65 321 65 c 0
 418 65 508 141 527 260 c 0
562 260 m 0
 538 111 447 -10 298 -10 c 0
 169 -10 71 101 97 260 c 0
 123 419 257 530 386 530 c 0
 535 530 586 409 562 260 c 0
689 730 m 5
 570 0 l 5
 485 0 l 1
 604 730 l 1
 689 730 l 5
280 -3 m 5
 320 -3 l 5
 364 -37 422 -77 413 -135 c 4
 405 -182 378 -217 311 -217 c 4
 274 -217 238 -203 219 -188 c 5
 244 -158 l 5
 253 -161 271 -173 301 -173 c 4
 332 -173 358 -164 363 -132 c 4
 369 -97 321 -42 280 -3 c 5
EndSplineSet
EndChar

StartChar: uni1E12
Encoding: 7698 7698 368
Width: 810
VWidth: 0
Flags: HMW
LayerCount: 2
Fore
SplineSet
214 700 m 1
 494 700 l 1
 481 620 l 1
 201 620 l 1
 214 700 l 1
113 80 m 1
 393 80 l 1
 380 0 l 1
 100 0 l 1
 113 80 l 1
214 700 m 1
 304 700 l 1
 190 0 l 1
 100 0 l 1
 214 700 l 1
393 80 m 1
 544 80 682 194 707 350 c 0
 732 506 632 620 481 620 c 1
 494 700 l 1
 689 700 829 549 797 350 c 0
 765 151 575 0 380 0 c 1
 393 80 l 1
279 -160 m 1
 195 -60 l 1
 265 -60 l 1
 349 -160 l 1
 279 -160 l 1
195 -60 m 1
 265 -60 l 1
 149 -160 l 1
 79 -160 l 1
 195 -60 l 1
EndSplineSet
EndChar

StartChar: uni1E13
Encoding: 7699 7699 369
Width: 655
VWidth: 0
Flags: HMW
LayerCount: 2
Fore
SplineSet
527 260 m 0
 546 379 481 455 384 455 c 0
 287 455 201 379 182 260 c 0
 163 141 224 65 321 65 c 0
 418 65 508 141 527 260 c 0
562 260 m 0
 538 111 447 -10 298 -10 c 0
 169 -10 71 101 97 260 c 0
 123 419 257 530 386 530 c 0
 535 530 586 409 562 260 c 0
689 730 m 5
 570 0 l 5
 485 0 l 1
 604 730 l 1
 689 730 l 5
337 -170 m 1
 254 -70 l 1
 324 -70 l 1
 407 -170 l 1
 337 -170 l 1
254 -70 m 1
 324 -70 l 1
 207 -170 l 1
 137 -170 l 1
 254 -70 l 1
EndSplineSet
EndChar

StartChar: uni1E14
Encoding: 7700 7700 370
Width: 670
VWidth: 0
Flags: HM
LayerCount: 2
Fore
SplineSet
165 398 m 1
 625 398 l 1
 612 318 l 1
 152 318 l 1
 165 398 l 1
214 700 m 1
 724 700 l 1
 711 620 l 1
 201 620 l 1
 214 700 l 1
113 80 m 1
 623 80 l 1
 610 0 l 1
 100 0 l 1
 113 80 l 1
214 700 m 1
 304 700 l 5
 190 0 l 5
 100 0 l 1
 214 700 l 1
341 850 m 1
 645 850 l 5
 632 770 l 5
 328 770 l 1
 341 850 l 1
473 910 m 1
 376 1050 l 1
 476 1050 l 1
 533 910 l 1
 473 910 l 1
EndSplineSet
EndChar

StartChar: uni1E15
Encoding: 7701 7701 371
Width: 615
VWidth: 0
Flags: HMW
LayerCount: 2
Fore
SplineSet
607 260 m 1
 602 230 l 1
 517 230 l 1
 522 260 l 1
 607 260 l 1
517 230 m 1
 151 230 l 1
 162 297 l 1
 528 297 l 1
 517 230 l 1
522 260 m 1
 541 379 491 455 384 455 c 0
 277 455 201 379 182 260 c 1
 97 260 l 1
 123 419 257 530 396 530 c 0
 535 530 633 419 607 260 c 1
 522 260 l 1
97 260 m 1
 182 260 l 1
 163 141 224 65 331 65 c 0
 395 65 462 98 507 147 c 1
 553 92 l 1
 496 28 405 -10 318 -10 c 0
 169 -10 71 101 97 260 c 1
262 670 m 1
 566 670 l 5
 553 590 l 5
 249 590 l 1
 262 670 l 1
394 730 m 1
 297 870 l 1
 397 870 l 1
 454 730 l 1
 394 730 l 1
EndSplineSet
EndChar

StartChar: uni1E16
Encoding: 7702 7702 372
Width: 670
VWidth: 0
Flags: HM
LayerCount: 2
Fore
SplineSet
165 398 m 1
 625 398 l 1
 612 318 l 1
 152 318 l 1
 165 398 l 1
214 700 m 1
 724 700 l 1
 711 620 l 1
 201 620 l 1
 214 700 l 1
113 80 m 1
 623 80 l 1
 610 0 l 1
 100 0 l 1
 113 80 l 1
214 700 m 1
 304 700 l 5
 190 0 l 5
 100 0 l 1
 214 700 l 1
341 850 m 1
 645 850 l 5
 632 770 l 5
 328 770 l 1
 341 850 l 1
533 910 m 1
 473 910 l 1
 576 1050 l 1
 676 1050 l 1
 533 910 l 1
EndSplineSet
EndChar

StartChar: uni1E17
Encoding: 7703 7703 373
Width: 615
VWidth: 0
Flags: HMW
LayerCount: 2
Fore
SplineSet
607 260 m 1
 602 230 l 1
 517 230 l 1
 522 260 l 1
 607 260 l 1
517 230 m 1
 151 230 l 1
 162 297 l 1
 528 297 l 1
 517 230 l 1
522 260 m 1
 541 379 491 455 384 455 c 0
 277 455 201 379 182 260 c 1
 97 260 l 1
 123 419 257 530 396 530 c 0
 535 530 633 419 607 260 c 1
 522 260 l 1
97 260 m 1
 182 260 l 1
 163 141 224 65 331 65 c 0
 395 65 462 98 507 147 c 1
 553 92 l 1
 496 28 405 -10 318 -10 c 0
 169 -10 71 101 97 260 c 1
262 670 m 1
 566 670 l 5
 553 590 l 5
 249 590 l 1
 262 670 l 1
454 730 m 1
 394 730 l 1
 497 870 l 1
 597 870 l 1
 454 730 l 1
EndSplineSet
EndChar

StartChar: uni1E18
Encoding: 7704 7704 374
Width: 670
VWidth: 0
Flags: HM
LayerCount: 2
Fore
SplineSet
165 398 m 1
 625 398 l 1
 612 318 l 1
 152 318 l 1
 165 398 l 1
214 700 m 1
 724 700 l 1
 711 620 l 1
 201 620 l 1
 214 700 l 1
113 80 m 1
 623 80 l 1
 610 0 l 1
 100 0 l 1
 113 80 l 1
214 700 m 1
 304 700 l 5
 190 0 l 5
 100 0 l 1
 214 700 l 1
394 -160 m 1
 310 -60 l 1
 380 -60 l 1
 464 -160 l 1
 394 -160 l 1
310 -60 m 1
 380 -60 l 1
 264 -160 l 1
 194 -160 l 1
 310 -60 l 1
EndSplineSet
EndChar

StartChar: uni1E19
Encoding: 7705 7705 375
Width: 615
VWidth: 0
Flags: HMW
LayerCount: 2
Fore
SplineSet
607 260 m 1
 602 230 l 1
 517 230 l 1
 522 260 l 1
 607 260 l 1
517 230 m 1
 151 230 l 1
 162 297 l 1
 528 297 l 1
 517 230 l 1
522 260 m 1
 541 379 491 455 384 455 c 0
 277 455 201 379 182 260 c 1
 97 260 l 1
 123 419 257 530 396 530 c 0
 535 530 633 419 607 260 c 1
 522 260 l 1
97 260 m 1
 182 260 l 1
 163 141 224 65 331 65 c 0
 395 65 462 98 507 147 c 1
 553 92 l 1
 496 28 405 -10 318 -10 c 0
 169 -10 71 101 97 260 c 1
352 -170 m 1
 269 -70 l 1
 339 -70 l 1
 422 -170 l 1
 352 -170 l 1
269 -70 m 1
 339 -70 l 1
 222 -170 l 1
 152 -170 l 1
 269 -70 l 1
EndSplineSet
EndChar

StartChar: uni1E1A
Encoding: 7706 7706 376
Width: 670
VWidth: 0
Flags: HM
LayerCount: 2
Fore
SplineSet
165 398 m 1
 625 398 l 1
 612 318 l 1
 152 318 l 1
 165 398 l 1
214 700 m 1
 724 700 l 1
 711 620 l 1
 201 620 l 1
 214 700 l 1
113 80 m 1
 623 80 l 1
 610 0 l 1
 100 0 l 1
 113 80 l 1
214 700 m 1
 304 700 l 5
 190 0 l 5
 100 0 l 1
 214 700 l 1
202 -200 m 1
 136 -180 l 1
 153 -102 207 -63 258 -63 c 0
 322 -63 367 -127 411 -127 c 0
 456 -127 469 -97 475 -60 c 1
 532 -80 l 1
 513 -168 462 -197 412 -197 c 0
 350 -197 309 -133 266 -133 c 0
 222 -133 208 -163 202 -200 c 1
EndSplineSet
EndChar

StartChar: uni1E1B
Encoding: 7707 7707 377
Width: 615
VWidth: 0
Flags: HMW
LayerCount: 2
Fore
SplineSet
607 260 m 1
 602 230 l 1
 517 230 l 1
 522 260 l 1
 607 260 l 1
517 230 m 1
 151 230 l 1
 162 297 l 1
 528 297 l 1
 517 230 l 1
522 260 m 1
 541 379 491 455 384 455 c 0
 277 455 201 379 182 260 c 1
 97 260 l 1
 123 419 257 530 396 530 c 0
 535 530 633 419 607 260 c 1
 522 260 l 1
97 260 m 1
 182 260 l 1
 163 141 224 65 331 65 c 0
 395 65 462 98 507 147 c 1
 553 92 l 1
 496 28 405 -10 318 -10 c 0
 169 -10 71 101 97 260 c 1
161 -210 m 1
 94 -190 l 1
 111 -112 165 -73 216 -73 c 0
 280 -73 325 -137 369 -137 c 0
 414 -137 428 -107 434 -70 c 1
 490 -90 l 1
 471 -178 420 -207 370 -207 c 0
 308 -207 267 -143 224 -143 c 0
 180 -143 167 -173 161 -210 c 1
EndSplineSet
EndChar

StartChar: uni1E1C
Encoding: 7708 7708 378
Width: 670
VWidth: 0
Flags: HM
LayerCount: 2
Fore
SplineSet
165 398 m 1
 625 398 l 1
 612 318 l 1
 152 318 l 1
 165 398 l 1
214 700 m 1
 724 700 l 1
 711 620 l 1
 201 620 l 1
 214 700 l 1
113 80 m 1
 623 80 l 1
 610 0 l 1
 100 0 l 1
 113 80 l 1
214 700 m 1
 304 700 l 5
 190 0 l 5
 100 0 l 1
 214 700 l 1
336 7 m 5
 376 7 l 5
 420 -27 479 -67 470 -125 c 4
 462 -172 434 -207 367 -207 c 4
 330 -207 295 -193 276 -178 c 5
 301 -148 l 5
 310 -151 327 -163 357 -163 c 4
 388 -163 414 -154 419 -122 c 4
 425 -87 377 -32 336 7 c 5
493 850 m 1
 433 850 402 874 410 922 c 1
 334 916 l 1
 320 827 381 770 480 770 c 1
 493 850 l 1
493 850 m 1
 480 770 l 1
 579 770 660 827 674 916 c 1
 600 922 l 1
 592 874 553 850 493 850 c 1
EndSplineSet
EndChar

StartChar: uni1E1D
Encoding: 7709 7709 379
Width: 615
VWidth: 0
Flags: HMW
LayerCount: 2
Fore
SplineSet
607 260 m 1
 602 230 l 1
 517 230 l 1
 522 260 l 1
 607 260 l 1
517 230 m 1
 151 230 l 1
 162 297 l 1
 528 297 l 1
 517 230 l 1
522 260 m 1
 541 379 491 455 384 455 c 0
 277 455 201 379 182 260 c 1
 97 260 l 1
 123 419 257 530 396 530 c 0
 535 530 633 419 607 260 c 1
 522 260 l 1
97 260 m 1
 182 260 l 1
 163 141 224 65 331 65 c 0
 395 65 462 98 507 147 c 1
 553 92 l 1
 496 28 405 -10 318 -10 c 0
 169 -10 71 101 97 260 c 1
295 -3 m 5
 335 -3 l 5
 379 -37 437 -77 428 -135 c 4
 420 -182 393 -217 326 -217 c 4
 289 -217 253 -203 234 -188 c 5
 259 -158 l 5
 268 -161 286 -173 316 -173 c 4
 347 -173 373 -164 378 -132 c 4
 384 -97 336 -42 295 -3 c 5
414 670 m 1
 354 670 323 694 331 742 c 1
 255 736 l 1
 241 647 302 590 401 590 c 1
 414 670 l 1
414 670 m 1
 401 590 l 1
 500 590 581 647 595 736 c 1
 521 742 l 1
 513 694 474 670 414 670 c 1
EndSplineSet
EndChar

StartChar: uni1E1E
Encoding: 7710 7710 380
Width: 665
VWidth: 0
Flags: HM
LayerCount: 2
Fore
SplineSet
162 378 m 1
 622 378 l 1
 609 298 l 1
 149 298 l 1
 162 378 l 1
214 700 m 1
 724 700 l 1
 711 620 l 1
 201 620 l 1
 214 700 l 1
214 700 m 1
 304 700 l 5
 190 0 l 5
 100 0 l 1
 214 700 l 1
426 835 m 0
 432 871 466 900 502 900 c 0
 538 900 562 871 556 835 c 0
 550 799 516 770 480 770 c 0
 444 770 420 799 426 835 c 0
EndSplineSet
EndChar

